<?xml version="1.0" encoding="UTF-8" standalone="no"?>
<!-- Created with Inkscape (http://www.inkscape.org/) -->

<svg
   xmlns:dc="http://purl.org/dc/elements/1.1/"
   xmlns:cc="http://creativecommons.org/ns#"
   xmlns:rdf="http://www.w3.org/1999/02/22-rdf-syntax-ns#"
   xmlns:svg="http://www.w3.org/2000/svg"
   xmlns="http://www.w3.org/2000/svg"
   xmlns:sodipodi="http://sodipodi.sourceforge.net/DTD/sodipodi-0.dtd"
   xmlns:inkscape="http://www.inkscape.org/namespaces/inkscape"
   id="svg2"
   version="1.1"
   inkscape:version="0.48.5 r10040"
   width="744.09448"
   height="1052.3622"
   xml:space="preserve"
   sodipodi:docname="streaming-transfer-modes.svg"><metadata
     id="metadata8"><rdf:RDF><cc:Work
         rdf:about=""><dc:format>image/svg+xml</dc:format><dc:type
           rdf:resource="http://purl.org/dc/dcmitype/StillImage" /><dc:title /></cc:Work></rdf:RDF></metadata><defs
     id="defs6"><clipPath
       clipPathUnits="userSpaceOnUse"
       id="clipPath16"><path
         d="m 567.48,61.011 -540,0 0,720 540,0 0,-720 z"
         clip-rule="evenodd"
         id="path18"
         inkscape:connector-curvature="0" /></clipPath><clipPath
       clipPathUnits="userSpaceOnUse"
       id="clipPath22"><path
         d="m 0,841.98 595.2,0 L 595.2,0 0,0 0,841.98 z"
         id="path24"
         inkscape:connector-curvature="0" /></clipPath><clipPath
       clipPathUnits="userSpaceOnUse"
       id="clipPath32"><path
         d="m 138.78,61.011 428.7,0 0,90.66 -428.7,0 0,-90.66 z"
         id="path34"
         inkscape:connector-curvature="0" /></clipPath></defs><sodipodi:namedview
     pagecolor="#ffffff"
     bordercolor="#666666"
     borderopacity="1"
     objecttolerance="10"
     gridtolerance="10"
     guidetolerance="10"
     inkscape:pageopacity="0"
     inkscape:pageshadow="2"
     inkscape:window-width="1485"
     inkscape:window-height="878"
     id="namedview4"
     showgrid="false"
     inkscape:zoom="0.9565475"
     inkscape:cx="317.52335"
     inkscape:cy="811.95177"
     inkscape:window-x="291"
     inkscape:window-y="101"
     inkscape:window-maximized="0"
     inkscape:current-layer="g10" /><g
     id="g10"
     inkscape:groupmode="layer"
     inkscape:label="streaming-transfer-modes"
     transform="matrix(0,1.25,1.25,0,-189.63625,371.21971)"><g
       id="g3899"><path
         inkscape:connector-curvature="0"
         id="path60"
         style="fill:#000000;fill-opacity:1;fill-rule:nonzero;stroke:none"
         d="m -272.53621,169.32206 297.600002,0 0,-0.72 -297.600002,0 0,0.72 z m 291.780002,3.48 6.6,-3.84 -6.6,-3.84 c -0.18,-0.12 -0.36,-0.06 -0.48,0.12 -0.12,0.18 -0.06,0.42 0.12,0.54 l 6,3.48 0,-0.66 -6,3.54 c -0.18,0.12 -0.24,0.3 -0.12,0.48 0.12,0.18 0.3,0.24 0.48,0.18" /><path
         inkscape:connector-curvature="0"
         id="path62"
         style="fill:#000000;fill-opacity:1;fill-rule:nonzero;stroke:none"
         d="m -270.93621,272.16206 297.600002,0 0,-0.71997 -297.600002,0 0,0.71997 z m 291.780002,3.48 6.6,-3.84 -6.6,-3.84 c -0.18,-0.06 -0.36,0 -0.48,0.18 -0.12,0.18 -0.06,0.42 0.12,0.48 l 6,3.54 0,-0.66 -6,3.48 c -0.18,0.12 -0.24,0.36 -0.12,0.54 0.12,0.18 0.3,0.24 0.48,0.12" /><path
         d="m -263.53621,172.02206 21,94.14 1.98,-0.42 -21.06,-94.2 -1.92,0.48 z m 22.02,93.96 -5.76,-2.82 7.02,8.64 2.7,-10.86"
         style="fill:#000000;fill-opacity:1;fill-rule:nonzero;stroke:none"
         id="path76"
         inkscape:connector-curvature="0" /><g
         transform="translate(-236.77621,272.88206)"
         id="g78"><path
           inkscape:connector-curvature="0"
           id="path80"
           style="fill:#000000;fill-opacity:1;fill-rule:nonzero;stroke:none"
           d="m 0,0 22.2,-98.28 1.98,0.42 L 1.98,0.42 0,0 z m 23.16,-98.1 -5.76,2.82 7.08,-8.64 2.7,10.86" /></g><g
         transform="translate(-226.09621,272.88206)"
         id="g82"><path
           inkscape:connector-curvature="0"
           id="path84"
           style="fill:#000000;fill-opacity:1;fill-rule:nonzero;stroke:none"
           d="m 0,0 22.2,-98.28 1.92,0.42 L 1.92,0.42 0,0 z m 23.16,-98.1 -5.76,2.82 7.08,-8.64 2.7,10.86" /></g><g
         transform="translate(-215.41621,272.88206)"
         id="g86"><path
           inkscape:connector-curvature="0"
           id="path88"
           style="fill:#000000;fill-opacity:1;fill-rule:nonzero;stroke:none"
           d="m 0,0 22.14,-98.28 1.98,0.42 L 1.92,0.42 0,0 z m 23.16,-98.1 -5.76,2.82 7.08,-8.64 2.64,10.86" /></g><g
         transform="translate(-204.79621,272.88206)"
         id="g90"><path
           inkscape:connector-curvature="0"
           id="path92"
           style="fill:#000000;fill-opacity:1;fill-rule:nonzero;stroke:none"
           d="m 0,0 22.2,-98.28 1.92,0.42 L 1.98,0.42 0,0 z m 23.16,-98.1 -5.76,2.82 7.08,-8.64 2.7,10.86" /></g><g
         transform="translate(-194.11621,272.88206)"
         id="g94"><path
           inkscape:connector-curvature="0"
           id="path96"
           style="fill:#000000;fill-opacity:1;fill-rule:nonzero;stroke:none"
           d="m 0,0 22.14,-98.28 1.98,0.42 L 1.92,0.42 0,0 z m 23.16,-98.1 -5.76,2.82 7.08,-8.64 2.64,10.86" /></g><g
         transform="translate(-183.49621,272.88206)"
         id="g98"><path
           inkscape:connector-curvature="0"
           id="path100"
           style="fill:#000000;fill-opacity:1;fill-rule:nonzero;stroke:none"
           d="m 0,0 22.2,-98.28 1.98,0.42 L 1.98,0.42 0,0 z m 23.16,-98.1 -5.76,2.82 7.08,-8.64 2.7,10.86" /></g><g
         transform="translate(-172.81621,272.88206)"
         id="g102"><path
           inkscape:connector-curvature="0"
           id="path104"
           style="fill:#000000;fill-opacity:1;fill-rule:nonzero;stroke:none"
           d="m 0,0 22.2,-98.28 1.92,0.42 L 1.92,0.42 0,0 z m 23.16,-98.1 -5.76,2.82 7.08,-8.64 2.7,10.86" /></g><text
         transform="matrix(0,1,1,0,0,0)"
         sodipodi:linespacing="125%"
         id="text3241"
         y="-279.61676"
         x="152.6082"
         style="font-size:16px;font-style:normal;font-variant:normal;font-weight:normal;font-stretch:normal;line-height:125%;letter-spacing:0px;word-spacing:0px;fill:#000000;fill-opacity:1;stroke:none;font-family:Liberation Sans;-inkscape-font-specification:Liberation Sans"
         xml:space="preserve"><tspan
           style="font-size:14.39999962px;font-style:normal;font-variant:normal;font-weight:normal;font-stretch:normal;font-family:Linux Biolinum O;-inkscape-font-specification:Linux Biolinum O"
           y="-279.61676"
           x="152.6082"
           id="tspan3243"
           sodipodi:role="line">client</tspan></text>
<text
         transform="matrix(0,1,1,0,0,0)"
         sodipodi:linespacing="125%"
         id="text3245"
         y="-281.10895"
         x="253.82986"
         style="font-size:16px;font-style:normal;font-variant:normal;font-weight:normal;font-stretch:normal;line-height:125%;letter-spacing:0px;word-spacing:0px;fill:#000000;fill-opacity:1;stroke:none;font-family:Liberation Sans;-inkscape-font-specification:Liberation Sans"
         xml:space="preserve"><tspan
           style="font-size:14.39999962px;font-style:normal;font-variant:normal;font-weight:normal;font-stretch:normal;font-family:Linux Biolinum O;-inkscape-font-specification:Linux Biolinum O"
           y="-281.10895"
           x="253.82986"
           id="tspan3247"
           sodipodi:role="line">server</tspan></text>
<text
         transform="matrix(0,1,1,0,0,0)"
         sodipodi:linespacing="125%"
         id="text3249"
         y="46.747879"
         x="186.93654"
         style="font-size:16px;font-style:normal;font-variant:normal;font-weight:normal;font-stretch:normal;line-height:125%;letter-spacing:0px;word-spacing:0px;fill:#000000;fill-opacity:1;stroke:none;font-family:Liberation Sans;-inkscape-font-specification:Liberation Sans"
         xml:space="preserve"><tspan
           style="font-size:14.39999962px;font-style:normal;font-variant:normal;font-weight:normal;font-stretch:normal;font-family:Linux Biolinum O;-inkscape-font-specification:Linux Biolinum O"
           y="46.747879"
           x="186.93654"
           id="tspan3251"
           sodipodi:role="line">simple bulk</tspan><tspan
           style="font-size:14.39999962px;font-style:normal;font-variant:normal;font-weight:normal;font-stretch:normal;font-family:Linux Biolinum O;-inkscape-font-specification:Linux Biolinum O"
           id="tspan3253"
           y="64.747879"
           x="186.93654"
           sodipodi:role="line">transfer</tspan><tspan
           style="font-size:14.39999962px;font-style:normal;font-variant:normal;font-weight:normal;font-stretch:normal;font-family:Linux Biolinum O;-inkscape-font-specification:Linux Biolinum O"
           id="tspan3255"
           y="82.747879"
           x="186.93654"
           sodipodi:role="line">(HTTP)</tspan></text>
</g><g
       id="g3872"
       transform="translate(0,-16.195129)"><path
         inkscape:connector-curvature="0"
         id="path106"
         style="fill:#000000;fill-opacity:1;fill-rule:nonzero;stroke:none"
         d="m -272.53621,337.66206 297.600002,0 0,-0.72003 -297.600002,0 0,0.72003 z m 291.780002,3.48 6.6,-3.84 -6.6,-3.84 c -0.18,-0.12 -0.36,-0.06 -0.48,0.12 -0.12,0.18 -0.06,0.42 0.12,0.54 l 6,3.48 0,-0.66 -6,3.54 c -0.18,0.12 -0.24,0.3 -0.12,0.48 0.12,0.18 0.3,0.24 0.48,0.18" /><path
         inkscape:connector-curvature="0"
         id="path108"
         style="fill:#000000;fill-opacity:1;fill-rule:nonzero;stroke:none"
         d="m -272.53621,440.50206 297.600002,0 0,-0.72 -297.600002,0 0,0.72 z m 291.780002,3.48 6.6,-3.84 -6.6,-3.84 c -0.18,-0.06 -0.36,0 -0.48,0.18 -0.12,0.18 -0.06,0.42 0.12,0.48 l 6,3.54 0,-0.66 -6,3.48 c -0.18,0.12 -0.24,0.36 -0.12,0.54 0.12,0.18 0.3,0.24 0.48,0.12" /><g
         transform="translate(-263.53621,340.36206)"
         id="g118"><path
           inkscape:connector-curvature="0"
           id="path120"
           style="fill:#000000;fill-opacity:1;fill-rule:nonzero;stroke:none"
           d="M 0,0 21,94.14 22.98,93.72 1.92,-0.48 0,0 z m 22.02,93.96 -5.76,-2.82 7.02,8.64 2.7,-10.86" /></g><g
         transform="translate(-236.77621,441.22206)"
         id="g122"><path
           inkscape:connector-curvature="0"
           id="path124"
           style="fill:#000000;fill-opacity:1;fill-rule:nonzero;stroke:none"
           d="m 0,0 22.2,-98.28 1.98,0.42 L 1.98,0.42 0,0 z m 23.16,-98.1 -5.76,2.82 7.08,-8.64 2.7,10.86" /></g><g
         transform="translate(-200.17621,441.22206)"
         id="g126"><path
           inkscape:connector-curvature="0"
           id="path128"
           style="fill:#000000;fill-opacity:1;fill-rule:nonzero;stroke:none"
           d="m 0,0 22.2,-98.28 1.92,0.42 L 1.92,0.42 0,0 z m 23.16,-98.1 -5.76,2.82 7.08,-8.64 2.7,10.86" /></g><g
         transform="translate(-163.57621,441.22206)"
         id="g130"><path
           inkscape:connector-curvature="0"
           id="path132"
           style="fill:#000000;fill-opacity:1;fill-rule:nonzero;stroke:none"
           d="m 0,0 22.14,-98.28 1.98,0.42 L 1.92,0.42 0,0 z m 23.16,-98.1 -5.76,2.82 7.08,-8.64 2.64,10.86" /></g><g
         transform="translate(-127.03621,441.22206)"
         id="g134"><path
           inkscape:connector-curvature="0"
           id="path136"
           style="fill:#000000;fill-opacity:1;fill-rule:nonzero;stroke:none"
           d="m 0,0 22.2,-98.28 1.98,0.42 L 1.98,0.42 0,0 z m 23.16,-98.1 -5.76,2.82 7.08,-8.64 2.7,10.86" /></g><g
         transform="translate(-90.436208,441.22206)"
         id="g138"><path
           inkscape:connector-curvature="0"
           id="path140"
           style="fill:#000000;fill-opacity:1;fill-rule:nonzero;stroke:none"
           d="m 0,0 22.2,-98.28 1.92,0.42 L 1.92,0.42 0,0 z m 23.16,-98.1 -5.76,2.82 7.08,-8.64 2.64,10.86" /></g><g
         transform="translate(-53.836208,441.22206)"
         id="g142"><path
           inkscape:connector-curvature="0"
           id="path144"
           style="fill:#000000;fill-opacity:1;fill-rule:nonzero;stroke:none"
           d="m 0,0 22.14,-98.28 1.98,0.42 L 1.92,0.42 0,0 z m 23.16,-98.1 -5.76,2.82 7.08,-8.64 2.64,10.86" /></g><g
         transform="translate(-17.296208,441.22206)"
         id="g146"><path
           inkscape:connector-curvature="0"
           id="path148"
           style="fill:#000000;fill-opacity:1;fill-rule:nonzero;stroke:none"
           d="m 0,0 22.2,-98.28 1.92,0.42 L 1.98,0.42 0,0 z m 23.16,-98.1 -5.76,2.82 7.08,-8.64 2.7,10.86" /></g><text
         transform="matrix(0,1,1,0,0,0)"
         sodipodi:linespacing="125%"
         id="text3257"
         y="-279.61676"
         x="320.94821"
         style="font-size:16px;font-style:normal;font-variant:normal;font-weight:normal;font-stretch:normal;line-height:125%;letter-spacing:0px;word-spacing:0px;fill:#000000;fill-opacity:1;stroke:none;font-family:Liberation Sans;-inkscape-font-specification:Liberation Sans"
         xml:space="preserve"><tspan
           style="font-size:14.39999962px;font-style:normal;font-variant:normal;font-weight:normal;font-stretch:normal;font-family:Linux Biolinum O;-inkscape-font-specification:Linux Biolinum O"
           y="-279.61676"
           x="320.94821"
           id="tspan3259"
           sodipodi:role="line">client</tspan></text>
<text
         transform="matrix(0,1,1,0,0,0)"
         sodipodi:linespacing="125%"
         id="text3261"
         y="-281.10895"
         x="422.16989"
         style="font-size:16px;font-style:normal;font-variant:normal;font-weight:normal;font-stretch:normal;line-height:125%;letter-spacing:0px;word-spacing:0px;fill:#000000;fill-opacity:1;stroke:none;font-family:Liberation Sans;-inkscape-font-specification:Liberation Sans"
         xml:space="preserve"><tspan
           style="font-size:14.39999962px;font-style:normal;font-variant:normal;font-weight:normal;font-stretch:normal;font-family:Linux Biolinum O;-inkscape-font-specification:Linux Biolinum O"
           y="-281.10895"
           x="422.16989"
           id="tspan3263"
           sodipodi:role="line">server</tspan></text>
<text
         transform="matrix(0,1,1,0,0,0)"
         sodipodi:linespacing="125%"
         id="text3265"
         y="46.747879"
         x="327.27924"
         style="font-size:16px;font-style:normal;font-variant:normal;font-weight:normal;font-stretch:normal;line-height:125%;letter-spacing:0px;word-spacing:0px;fill:#000000;fill-opacity:1;stroke:none;font-family:Liberation Sans;-inkscape-font-specification:Liberation Sans"
         xml:space="preserve"><tspan
           style="font-size:14.39999962px;font-style:normal;font-variant:normal;font-weight:normal;font-stretch:normal;font-family:Linux Biolinum O;-inkscape-font-specification:Linux Biolinum O"
           y="46.747879"
           x="327.27924"
           id="tspan3267"
           sodipodi:role="line">paced transfer</tspan><tspan
           style="font-size:14.39999962px;font-style:normal;font-variant:normal;font-weight:normal;font-stretch:normal;font-family:Linux Biolinum O;-inkscape-font-specification:Linux Biolinum O"
           id="tspan3269"
           y="64.747879"
           x="327.27924"
           sodipodi:role="line">(RTP &amp; paced HTTP)</tspan></text>
</g><g
       id="g3926"
       transform="translate(0,-22.904785)"><path
         inkscape:connector-curvature="0"
         id="path212"
         style="fill:#000000;fill-opacity:1;fill-rule:nonzero;stroke:none"
         d="m -272.53621,496.54106 297.600002,0 0,-0.77997 -297.600002,0 0,0.77997 z m 291.780002,3.42 6.6,-3.779 -6.6,-3.84 c -0.18,-0.12 -0.36,-0.06 -0.48,0.12 -0.12,0.18 -0.06,0.42 0.12,0.54 l 6,3.479 0,-0.659 -6,3.479 c -0.18,0.12 -0.24,0.361 -0.12,0.541 0.12,0.179 0.3,0.239 0.48,0.119" /><path
         inkscape:connector-curvature="0"
         id="path214"
         style="fill:#000000;fill-opacity:1;fill-rule:nonzero;stroke:none"
         d="m -272.53621,599.38206 297.600002,0 0,-0.71997 -297.600002,0 0,0.71997 z m 291.780002,3.479 6.6,-3.839 -6.6,-3.84 c -0.18,-0.12 -0.36,-0.06 -0.48,0.119 -0.12,0.18 -0.06,0.42 0.12,0.54 l 6,3.481 0,-0.601 -6,3.481 c -0.18,0.12 -0.24,0.3 -0.12,0.48 0.12,0.179 0.3,0.239 0.48,0.179" /><g
         transform="translate(-268.33621,496.06206)"
         id="g226"><path
           inkscape:connector-curvature="0"
           id="path228"
           style="fill:#000000;fill-opacity:1;fill-rule:nonzero;stroke:none"
           d="M 0,0 24.96,97.08 26.88,96.54 1.92,-0.48 0,0 z m 25.92,96.78 -5.82,-2.58 7.32,8.4 2.34,-10.92" /></g><g
         transform="translate(-236.77621,599.08206)"
         id="g230"><path
           inkscape:connector-curvature="0"
           id="path232"
           style="fill:#000000;fill-opacity:1;fill-rule:nonzero;stroke:none"
           d="M 0,0 22.2,-98.28 24.18,-97.8 1.98,0.48 0,0 z m 23.16,-98.04 -5.76,2.82 7.08,-8.7 2.7,10.86" /></g><g
         transform="translate(-226.09621,599.08206)"
         id="g234"><path
           inkscape:connector-curvature="0"
           id="path236"
           style="fill:#000000;fill-opacity:1;fill-rule:nonzero;stroke:none"
           d="M 0,0 22.2,-98.28 24.12,-97.8 1.92,0.48 0,0 z m 23.16,-98.04 -5.76,2.82 7.08,-8.7 2.7,10.86" /></g><g
         transform="translate(-215.41621,599.08206)"
         id="g238"><path
           inkscape:connector-curvature="0"
           id="path240"
           style="fill:#000000;fill-opacity:1;fill-rule:nonzero;stroke:none"
           d="M 0,0 22.14,-98.28 24.12,-97.8 1.92,0.48 0,0 z m 23.16,-98.04 -5.76,2.82 7.08,-8.7 2.64,10.86" /></g><g
         transform="translate(-145.75621,599.08206)"
         id="g242"><path
           inkscape:connector-curvature="0"
           id="path244"
           style="fill:#000000;fill-opacity:1;fill-rule:nonzero;stroke:none"
           d="M 0,0 22.2,-98.28 24.12,-97.8 1.98,0.48 0,0 z m 23.16,-98.04 -5.76,2.82 7.08,-8.7 2.7,10.86" /></g><g
         transform="translate(-135.07621,599.08206)"
         id="g246"><path
           inkscape:connector-curvature="0"
           id="path248"
           style="fill:#000000;fill-opacity:1;fill-rule:nonzero;stroke:none"
           d="M 0,0 22.14,-98.28 24.12,-97.8 1.92,0.48 0,0 z m 23.16,-98.04 -5.76,2.82 7.08,-8.7 2.64,10.86" /></g><g
         transform="translate(-124.45621,599.08206)"
         id="g250"><path
           inkscape:connector-curvature="0"
           id="path252"
           style="fill:#000000;fill-opacity:1;fill-rule:nonzero;stroke:none"
           d="M 0,0 22.2,-98.28 24.12,-97.8 1.98,0.48 0,0 z m 23.16,-98.04 -5.76,2.82 7.08,-8.7 2.7,10.86" /></g><g
         transform="translate(-47.296208,599.08206)"
         id="g254"><path
           inkscape:connector-curvature="0"
           id="path256"
           style="fill:#000000;fill-opacity:1;fill-rule:nonzero;stroke:none"
           d="M 0,0 22.2,-98.28 24.18,-97.8 1.98,0.48 0,0 z m 23.16,-98.04 -5.76,2.82 7.08,-8.7 2.7,10.86" /></g><g
         transform="translate(-36.616208,599.08206)"
         id="g258"><path
           inkscape:connector-curvature="0"
           id="path260"
           style="fill:#000000;fill-opacity:1;fill-rule:nonzero;stroke:none"
           d="M 0,0 22.2,-98.28 24.12,-97.8 1.98,0.48 0,0 z m 23.16,-98.04 -5.76,2.82 7.08,-8.7 2.7,10.86" /></g><g
         transform="translate(-25.936208,599.08206)"
         id="g262"><path
           inkscape:connector-curvature="0"
           id="path264"
           style="fill:#000000;fill-opacity:1;fill-rule:nonzero;stroke:none"
           d="M 0,0 22.14,-98.28 24.12,-97.8 1.92,0.48 0,0 z m 23.16,-98.04 -5.76,2.82 7.08,-8.7 2.64,10.86" /></g><text
         transform="matrix(0,1,1,0,0,0)"
         sodipodi:linespacing="125%"
         id="text3271"
         y="-279.61676"
         x="479.81772"
         style="font-size:16px;font-style:normal;font-variant:normal;font-weight:normal;font-stretch:normal;line-height:125%;letter-spacing:0px;word-spacing:0px;fill:#000000;fill-opacity:1;stroke:none;font-family:Liberation Sans;-inkscape-font-specification:Liberation Sans"
         xml:space="preserve"><tspan
           style="font-size:14.39999962px;font-style:normal;font-variant:normal;font-weight:normal;font-stretch:normal;font-family:Linux Biolinum O;-inkscape-font-specification:Linux Biolinum O"
           y="-279.61676"
           x="479.81772"
           id="tspan3273"
           sodipodi:role="line">client</tspan></text>
<text
         transform="matrix(0,1,1,0,0,0)"
         sodipodi:linespacing="125%"
         id="text3275"
         y="-281.10895"
         x="581.00946"
         style="font-size:16px;font-style:normal;font-variant:normal;font-weight:normal;font-stretch:normal;line-height:125%;letter-spacing:0px;word-spacing:0px;fill:#000000;fill-opacity:1;stroke:none;font-family:Liberation Sans;-inkscape-font-specification:Liberation Sans"
         xml:space="preserve"><tspan
           style="font-size:14.39999962px;font-style:normal;font-variant:normal;font-weight:normal;font-stretch:normal;font-family:Linux Biolinum O;-inkscape-font-specification:Linux Biolinum O"
           y="-281.10895"
           x="581.00946"
           id="tspan3277"
           sodipodi:role="line">server</tspan></text>
<text
         transform="matrix(0,1,1,0,0,0)"
         sodipodi:linespacing="125%"
         id="text3287"
         y="46.747879"
         x="506.2883"
         style="font-size:16px;font-style:normal;font-variant:normal;font-weight:normal;font-stretch:normal;line-height:125%;letter-spacing:0px;word-spacing:0px;fill:#000000;fill-opacity:1;stroke:none;font-family:Liberation Sans;-inkscape-font-specification:Liberation Sans"
         xml:space="preserve"><tspan
           style="font-size:14.39999962px;font-style:normal;font-variant:normal;font-weight:normal;font-stretch:normal;font-family:Linux Biolinum O;-inkscape-font-specification:Linux Biolinum O"
           y="46.747879"
           x="506.2883"
           id="tspan3289"
           sodipodi:role="line">paced block</tspan><tspan
           style="font-size:14.39999962px;font-style:normal;font-variant:normal;font-weight:normal;font-stretch:normal;font-family:Linux Biolinum O;-inkscape-font-specification:Linux Biolinum O"
           id="tspan3291"
           y="64.747879"
           x="506.2883"
           sodipodi:role="line">transfer</tspan><tspan
           style="font-size:14.39999962px;font-style:normal;font-variant:normal;font-weight:normal;font-stretch:normal;font-family:Linux Biolinum O;-inkscape-font-specification:Linux Biolinum O"
           id="tspan3293"
           y="82.747879"
           x="506.2883"
           sodipodi:role="line">(paced HTTP)</tspan></text>
</g><g
       id="g3958"
       transform="translate(0,-35.199951)"><path
         inkscape:connector-curvature="0"
         id="path150"
         style="fill:#000000;fill-opacity:1;fill-rule:nonzero;stroke:none"
         d="m -272.53621,660.94206 297.660002,0 0,-0.72003 -297.660002,0 0,0.72003 z m 291.780002,3.479 6.6,-3.839 -6.6,-3.841 c -0.18,-0.059 -0.36,0 -0.48,0.18 -0.12,0.18 -0.06,0.361 0.12,0.481 l 6,3.48 0,-0.6 -6,3.48 c -0.18,0.12 -0.24,0.36 -0.12,0.479 0.12,0.18 0.3,0.24 0.48,0.18" /><path
         inkscape:connector-curvature="0"
         id="path152"
         style="fill:#000000;fill-opacity:1;fill-rule:nonzero;stroke:none"
         d="m -272.53621,763.84106 297.660002,0 0,-0.77997 -297.660002,0 0,0.77997 z m 291.780002,3.421 6.6,-3.84 -6.6,-3.78 c -0.18,-0.12 -0.36,-0.06 -0.48,0.12 -0.12,0.18 -0.06,0.42 0.12,0.479 l 6,3.541 0,-0.66 -6,3.479 c -0.18,0.12 -0.24,0.36 -0.12,0.541 0.12,0.18 0.3,0.24 0.48,0.12" /><g
         transform="translate(-257.59621,659.80106)"
         id="g164"><path
           inkscape:connector-curvature="0"
           id="path166"
           style="fill:#000000;fill-opacity:1;fill-rule:nonzero;stroke:none"
           d="M 0,0 24.96,97.02 26.88,96.54 1.92,-0.54 0,0 z m 25.92,96.78 -5.88,-2.64 7.38,8.46 2.34,-10.92" /></g><g
         transform="translate(-226.03621,762.82206)"
         id="g168"><path
           inkscape:connector-curvature="0"
           id="path170"
           style="fill:#000000;fill-opacity:1;fill-rule:nonzero;stroke:none"
           d="m 0,0 22.2,-98.28 1.92,0.42 L 1.98,0.42 0,0 z m 23.16,-98.1 -5.76,2.82 7.08,-8.64 2.7,10.86" /></g><g
         transform="translate(-215.35621,762.82206)"
         id="g172"><path
           inkscape:connector-curvature="0"
           id="path174"
           style="fill:#000000;fill-opacity:1;fill-rule:nonzero;stroke:none"
           d="m 0,0 22.14,-98.28 1.98,0.42 L 1.92,0.42 0,0 z m 23.16,-98.1 -5.76,2.82 7.08,-8.64 2.64,10.86" /></g><g
         transform="translate(-204.73621,762.82206)"
         id="g176"><path
           inkscape:connector-curvature="0"
           id="path178"
           style="fill:#000000;fill-opacity:1;fill-rule:nonzero;stroke:none"
           d="m 0,0 22.2,-98.28 1.98,0.42 L 1.98,0.42 0,0 z m 23.16,-98.1 -5.76,2.82 7.08,-8.64 2.7,10.86" /></g><g
         transform="translate(-166.57621,659.80106)"
         id="g180"><path
           inkscape:connector-curvature="0"
           id="path182"
           style="fill:#000000;fill-opacity:1;fill-rule:nonzero;stroke:none"
           d="M 0,0 24.9,97.02 26.88,96.54 1.92,-0.54 0,0 z m 25.86,96.78 -5.82,-2.64 7.32,8.46 2.4,-10.92" /></g><g
         transform="translate(-135.01621,762.82206)"
         id="g184"><path
           inkscape:connector-curvature="0"
           id="path186"
           style="fill:#000000;fill-opacity:1;fill-rule:nonzero;stroke:none"
           d="m 0,0 22.2,-98.28 1.92,0.42 L 1.92,0.42 0,0 z m 23.16,-98.1 -5.76,2.82 7.08,-8.64 2.64,10.86" /></g><g
         transform="translate(-124.39621,762.82206)"
         id="g188"><path
           inkscape:connector-curvature="0"
           id="path190"
           style="fill:#000000;fill-opacity:1;fill-rule:nonzero;stroke:none"
           d="m 0,0 22.2,-98.28 1.98,0.42 L 1.98,0.42 0,0 z m 23.16,-98.1 -5.76,2.82 7.08,-8.64 2.7,10.86" /></g><g
         transform="translate(-113.71621,762.82206)"
         id="g192"><path
           inkscape:connector-curvature="0"
           id="path194"
           style="fill:#000000;fill-opacity:1;fill-rule:nonzero;stroke:none"
           d="m 0,0 22.2,-98.28 1.92,0.42 L 1.98,0.42 0,0 z m 23.16,-98.1 -5.76,2.82 7.08,-8.64 2.7,10.86" /></g><g
         transform="translate(-68.116208,659.80106)"
         id="g196"><path
           inkscape:connector-curvature="0"
           id="path198"
           style="fill:#000000;fill-opacity:1;fill-rule:nonzero;stroke:none"
           d="M 0,0 24.96,97.02 26.88,96.54 1.92,-0.54 0,0 z m 25.92,96.78 -5.82,-2.64 7.32,8.46 2.34,-10.92" /></g><g
         transform="translate(-36.556208,762.82206)"
         id="g200"><path
           inkscape:connector-curvature="0"
           id="path202"
           style="fill:#000000;fill-opacity:1;fill-rule:nonzero;stroke:none"
           d="m 0,0 22.2,-98.28 1.92,0.42 L 1.98,0.42 0,0 z m 23.16,-98.1 -5.76,2.82 7.08,-8.64 2.7,10.86" /></g><g
         transform="translate(-25.876208,762.82206)"
         id="g204"><path
           inkscape:connector-curvature="0"
           id="path206"
           style="fill:#000000;fill-opacity:1;fill-rule:nonzero;stroke:none"
           d="m 0,0 22.2,-98.28 1.92,0.42 L 1.92,0.42 0,0 z m 23.16,-98.1 -5.76,2.82 7.08,-8.64 2.64,10.86" /></g><g
         transform="translate(-15.256208,762.82206)"
         id="g208"><path
           inkscape:connector-curvature="0"
           id="path210"
           style="fill:#000000;fill-opacity:1;fill-rule:nonzero;stroke:none"
           d="m 0,0 22.2,-98.28 1.98,0.42 L 1.98,0.42 0,0 z m 23.16,-98.1 -5.76,2.82 7.08,-8.64 2.7,10.86" /></g><text
         transform="matrix(0,1,1,0,0,0)"
         sodipodi:linespacing="125%"
         id="text3279"
         y="-279.61676"
         x="644.24738"
         style="font-size:16px;font-style:normal;font-variant:normal;font-weight:normal;font-stretch:normal;line-height:125%;letter-spacing:0px;word-spacing:0px;fill:#000000;fill-opacity:1;stroke:none;font-family:Liberation Sans;-inkscape-font-specification:Liberation Sans"
         xml:space="preserve"><tspan
           style="font-size:14.39999962px;font-style:normal;font-variant:normal;font-weight:normal;font-stretch:normal;font-family:Linux Biolinum O;-inkscape-font-specification:Linux Biolinum O"
           y="-279.61676"
           x="644.24738"
           id="tspan3281"
           sodipodi:role="line">client</tspan></text>
<text
         transform="matrix(0,1,1,0,0,0)"
         sodipodi:linespacing="125%"
         id="text3283"
         y="-281.10895"
         x="745.45996"
         style="font-size:16px;font-style:normal;font-variant:normal;font-weight:normal;font-stretch:normal;line-height:125%;letter-spacing:0px;word-spacing:0px;fill:#000000;fill-opacity:1;stroke:none;font-family:Liberation Sans;-inkscape-font-specification:Liberation Sans"
         xml:space="preserve"><tspan
           style="font-size:14.39999962px;font-style:normal;font-variant:normal;font-weight:normal;font-stretch:normal;font-family:Linux Biolinum O;-inkscape-font-specification:Linux Biolinum O"
           y="-281.10895"
           x="745.45996"
           id="tspan3285"
           sodipodi:role="line">server</tspan></text>
<text
         transform="matrix(0,1,1,0,0,0)"
         sodipodi:linespacing="125%"
         id="text3295"
         y="45.497879"
         x="662.07874"
         style="font-size:16px;font-style:normal;font-variant:normal;font-weight:normal;font-stretch:normal;line-height:125%;letter-spacing:0px;word-spacing:0px;fill:#000000;fill-opacity:1;stroke:none;font-family:Liberation Sans;-inkscape-font-specification:Liberation Sans"
         xml:space="preserve"><tspan
           style="font-size:14.39999962px;font-style:normal;font-variant:normal;font-weight:normal;font-stretch:normal;font-family:Linux Biolinum O;-inkscape-font-specification:Linux Biolinum O"
           y="45.497879"
           x="662.07874"
           id="tspan3297"
           sodipodi:role="line">request</tspan><tspan
           style="font-size:14.39999962px;font-style:normal;font-variant:normal;font-weight:normal;font-stretch:normal;font-family:Linux Biolinum O;-inkscape-font-specification:Linux Biolinum O"
           id="tspan3299"
           y="63.497879"
           x="662.07874"
           sodipodi:role="line">segmentation</tspan><tspan
           style="font-size:14.39999962px;font-style:normal;font-variant:normal;font-weight:normal;font-stretch:normal;font-family:Linux Biolinum O;-inkscape-font-specification:Linux Biolinum O"
           id="tspan3301"
           y="81.497879"
           x="662.07874"
           sodipodi:role="line">(adaptive HTTP)</tspan></text>
</g></g></svg>