<?xml version="1.0" encoding="UTF-8" standalone="no"?>
<!-- Created with Inkscape (http://www.inkscape.org/) -->

<svg
   xmlns:dc="http://purl.org/dc/elements/1.1/"
   xmlns:cc="http://creativecommons.org/ns#"
   xmlns:rdf="http://www.w3.org/1999/02/22-rdf-syntax-ns#"
   xmlns:svg="http://www.w3.org/2000/svg"
   xmlns="http://www.w3.org/2000/svg"
   xmlns:sodipodi="http://sodipodi.sourceforge.net/DTD/sodipodi-0.dtd"
   xmlns:inkscape="http://www.inkscape.org/namespaces/inkscape"
   id="svg2"
   version="1.1"
   inkscape:version="0.48.4 r9939"
   width="784.66875"
   height="493.44125"
   xml:space="preserve"
   sodipodi:docname="streaming-transfer-modes.svg"><metadata
     id="metadata8"><rdf:RDF><cc:Work
         rdf:about=""><dc:format>image/svg+xml</dc:format><dc:type
           rdf:resource="http://purl.org/dc/dcmitype/StillImage" /><dc:title></dc:title></cc:Work></rdf:RDF></metadata><defs
     id="defs6"><clipPath
       clipPathUnits="userSpaceOnUse"
       id="clipPath16"><path
         d="m 567.48,61.011 -540,0 0,720 540,0 0,-720 z"
         clip-rule="evenodd"
         id="path18" /></clipPath><clipPath
       clipPathUnits="userSpaceOnUse"
       id="clipPath22"><path
         d="m 0,841.98 595.2,0 L 595.2,0 0,0 0,841.98 z"
         id="path24" /></clipPath><clipPath
       clipPathUnits="userSpaceOnUse"
       id="clipPath32"><path
         d="m 138.78,61.011 428.7,0 0,90.66 -428.7,0 0,-90.66 z"
         id="path34" /></clipPath></defs><sodipodi:namedview
     pagecolor="#ffffff"
     bordercolor="#666666"
     borderopacity="1"
     objecttolerance="10"
     gridtolerance="10"
     guidetolerance="10"
     inkscape:pageopacity="0"
     inkscape:pageshadow="2"
     inkscape:window-width="1485"
     inkscape:window-height="878"
     id="namedview4"
     showgrid="false"
     inkscape:zoom="0.9565475"
     inkscape:cx="342.58543"
     inkscape:cy="265.6566"
     inkscape:window-x="143"
     inkscape:window-y="51"
     inkscape:window-maximized="0"
     inkscape:current-layer="g10" /><g
     id="g10"
     inkscape:groupmode="layer"
     inkscape:label="streaming-transfer-modes"
     transform="matrix(0,1.25,1.25,0,-189.63625,-187.70125)"><path
       d="m 179.28,170.991 297.6,0 0,-0.72 -297.6,0 0,0.72 z m 291.78,3.48 6.6,-3.84 -6.6,-3.84 c -0.18,-0.12 -0.36,-0.06 -0.48,0.12 -0.12,0.18 -0.06,0.42 0.12,0.54 l 6,3.48 0,-0.66 -6,3.54 c -0.18,0.12 -0.24,0.3 -0.12,0.48 0.12,0.18 0.3,0.24 0.48,0.18"
       style="fill:#000000;fill-opacity:1;fill-rule:nonzero;stroke:none"
       id="path60" /><path
       d="m 179.28,273.831 297.6,0 0,-0.71997 -297.6,0 0,0.71997 z m 291.78,3.48 6.6,-3.84 -6.6,-3.84 c -0.18,-0.06 -0.36,0 -0.48,0.18 -0.12,0.18 -0.06,0.42 0.12,0.48 l 6,3.54 0,-0.66 -6,3.48 c -0.18,0.12 -0.24,0.36 -0.12,0.54 0.12,0.18 0.3,0.24 0.48,0.12"
       style="fill:#000000;fill-opacity:1;fill-rule:nonzero;stroke:none"
       id="path62" /><g
       id="g74"
       transform="translate(188.28,173.691)"><path
         d="M 0,0 21,94.14 22.98,93.72 1.92,-0.48 0,0 z m 22.02,93.96 -5.76,-2.82 7.02,8.64 2.7,-10.86"
         style="fill:#000000;fill-opacity:1;fill-rule:nonzero;stroke:none"
         id="path76" /></g><g
       id="g78"
       transform="translate(215.04,274.551)"><path
         d="m 0,0 22.2,-98.28 1.98,0.42 L 1.98,0.42 0,0 z m 23.16,-98.1 -5.76,2.82 7.08,-8.64 2.7,10.86"
         style="fill:#000000;fill-opacity:1;fill-rule:nonzero;stroke:none"
         id="path80" /></g><g
       id="g82"
       transform="translate(225.72,274.551)"><path
         d="m 0,0 22.2,-98.28 1.92,0.42 L 1.92,0.42 0,0 z m 23.16,-98.1 -5.76,2.82 7.08,-8.64 2.7,10.86"
         style="fill:#000000;fill-opacity:1;fill-rule:nonzero;stroke:none"
         id="path84" /></g><g
       id="g86"
       transform="translate(236.4,274.551)"><path
         d="m 0,0 22.14,-98.28 1.98,0.42 L 1.92,0.42 0,0 z m 23.16,-98.1 -5.76,2.82 7.08,-8.64 2.64,10.86"
         style="fill:#000000;fill-opacity:1;fill-rule:nonzero;stroke:none"
         id="path88" /></g><g
       id="g90"
       transform="translate(247.02,274.551)"><path
         d="m 0,0 22.2,-98.28 1.92,0.42 L 1.98,0.42 0,0 z m 23.16,-98.1 -5.76,2.82 7.08,-8.64 2.7,10.86"
         style="fill:#000000;fill-opacity:1;fill-rule:nonzero;stroke:none"
         id="path92" /></g><g
       id="g94"
       transform="translate(257.7,274.551)"><path
         d="m 0,0 22.14,-98.28 1.98,0.42 L 1.92,0.42 0,0 z m 23.16,-98.1 -5.76,2.82 7.08,-8.64 2.64,10.86"
         style="fill:#000000;fill-opacity:1;fill-rule:nonzero;stroke:none"
         id="path96" /></g><g
       id="g98"
       transform="translate(268.32,274.551)"><path
         d="m 0,0 22.2,-98.28 1.98,0.42 L 1.98,0.42 0,0 z m 23.16,-98.1 -5.76,2.82 7.08,-8.64 2.7,10.86"
         style="fill:#000000;fill-opacity:1;fill-rule:nonzero;stroke:none"
         id="path100" /></g><g
       id="g102"
       transform="translate(279,274.551)"><path
         d="m 0,0 22.2,-98.28 1.92,0.42 L 1.92,0.42 0,0 z m 23.16,-98.1 -5.76,2.82 7.08,-8.64 2.7,10.86"
         style="fill:#000000;fill-opacity:1;fill-rule:nonzero;stroke:none"
         id="path104" /></g><path
       d="m 179.28,332.931 297.6,0 0,-0.72003 -297.6,0 0,0.72003 z m 291.78,3.48 6.6,-3.84 -6.6,-3.84 c -0.18,-0.12 -0.36,-0.06 -0.48,0.12 -0.12,0.18 -0.06,0.42 0.12,0.54 l 6,3.48 0,-0.66 -6,3.54 c -0.18,0.12 -0.24,0.3 -0.12,0.48 0.12,0.18 0.3,0.24 0.48,0.18"
       style="fill:#000000;fill-opacity:1;fill-rule:nonzero;stroke:none"
       id="path106" /><path
       d="m 179.28,435.771 297.6,0 0,-0.72 -297.6,0 0,0.72 z m 291.78,3.48 6.6,-3.84 -6.6,-3.84 c -0.18,-0.06 -0.36,0 -0.48,0.18 -0.12,0.18 -0.06,0.42 0.12,0.48 l 6,3.54 0,-0.66 -6,3.48 c -0.18,0.12 -0.24,0.36 -0.12,0.54 0.12,0.18 0.3,0.24 0.48,0.12"
       style="fill:#000000;fill-opacity:1;fill-rule:nonzero;stroke:none"
       id="path108" /><g
       id="g118"
       transform="translate(188.28,335.631)"><path
         d="M 0,0 21,94.14 22.98,93.72 1.92,-0.48 0,0 z m 22.02,93.96 -5.76,-2.82 7.02,8.64 2.7,-10.86"
         style="fill:#000000;fill-opacity:1;fill-rule:nonzero;stroke:none"
         id="path120" /></g><g
       id="g122"
       transform="translate(215.04,436.491)"><path
         d="m 0,0 22.2,-98.28 1.98,0.42 L 1.98,0.42 0,0 z m 23.16,-98.1 -5.76,2.82 7.08,-8.64 2.7,10.86"
         style="fill:#000000;fill-opacity:1;fill-rule:nonzero;stroke:none"
         id="path124" /></g><g
       id="g126"
       transform="translate(251.64,436.491)"><path
         d="m 0,0 22.2,-98.28 1.92,0.42 L 1.92,0.42 0,0 z m 23.16,-98.1 -5.76,2.82 7.08,-8.64 2.7,10.86"
         style="fill:#000000;fill-opacity:1;fill-rule:nonzero;stroke:none"
         id="path128" /></g><g
       id="g130"
       transform="translate(288.24,436.491)"><path
         d="m 0,0 22.14,-98.28 1.98,0.42 L 1.92,0.42 0,0 z m 23.16,-98.1 -5.76,2.82 7.08,-8.64 2.64,10.86"
         style="fill:#000000;fill-opacity:1;fill-rule:nonzero;stroke:none"
         id="path132" /></g><g
       id="g134"
       transform="translate(324.78,436.491)"><path
         d="m 0,0 22.2,-98.28 1.98,0.42 L 1.98,0.42 0,0 z m 23.16,-98.1 -5.76,2.82 7.08,-8.64 2.7,10.86"
         style="fill:#000000;fill-opacity:1;fill-rule:nonzero;stroke:none"
         id="path136" /></g><g
       id="g138"
       transform="translate(361.38,436.491)"><path
         d="m 0,0 22.2,-98.28 1.92,0.42 L 1.92,0.42 0,0 z m 23.16,-98.1 -5.76,2.82 7.08,-8.64 2.64,10.86"
         style="fill:#000000;fill-opacity:1;fill-rule:nonzero;stroke:none"
         id="path140" /></g><g
       id="g142"
       transform="translate(397.98,436.491)"><path
         d="m 0,0 22.14,-98.28 1.98,0.42 L 1.92,0.42 0,0 z m 23.16,-98.1 -5.76,2.82 7.08,-8.64 2.64,10.86"
         style="fill:#000000;fill-opacity:1;fill-rule:nonzero;stroke:none"
         id="path144" /></g><g
       id="g146"
       transform="translate(434.52,436.491)"><path
         d="m 0,0 22.2,-98.28 1.92,0.42 L 1.98,0.42 0,0 z m 23.16,-98.1 -5.76,2.82 7.08,-8.64 2.7,10.86"
         style="fill:#000000;fill-opacity:1;fill-rule:nonzero;stroke:none"
         id="path148" /></g><path
       d="m 179.28,656.211 297.66,0 0,-0.72003 -297.66,0 0,0.72003 z m 291.78,3.479 6.6,-3.839 -6.6,-3.841 c -0.18,-0.059 -0.36,0 -0.48,0.18 -0.12,0.18 -0.06,0.361 0.12,0.481 l 6,3.48 0,-0.6 -6,3.48 c -0.18,0.12 -0.24,0.36 -0.12,0.479 0.12,0.18 0.3,0.24 0.48,0.18"
       style="fill:#000000;fill-opacity:1;fill-rule:nonzero;stroke:none"
       id="path150" /><path
       d="m 179.28,759.11 297.66,0 0,-0.77997 -297.66,0 0,0.77997 z m 291.78,3.421 6.6,-3.84 -6.6,-3.78 c -0.18,-0.12 -0.36,-0.06 -0.48,0.12 -0.12,0.18 -0.06,0.42 0.12,0.479 l 6,3.541 0,-0.66 -6,3.479 c -0.18,0.12 -0.24,0.36 -0.12,0.541 0.12,0.18 0.3,0.24 0.48,0.12"
       style="fill:#000000;fill-opacity:1;fill-rule:nonzero;stroke:none;stroke-width:1.6;stroke-miterlimit:4;stroke-dasharray:none"
       id="path152" /><g
       id="g164"
       transform="translate(194.22,655.07)"><path
         d="M 0,0 24.96,97.02 26.88,96.54 1.92,-0.54 0,0 z m 25.92,96.78 -5.88,-2.64 7.38,8.46 2.34,-10.92"
         style="fill:#000000;fill-opacity:1;fill-rule:nonzero;stroke:none"
         id="path166" /></g><g
       id="g168"
       transform="translate(225.78,758.091)"><path
         d="m 0,0 22.2,-98.28 1.92,0.42 L 1.98,0.42 0,0 z m 23.16,-98.1 -5.76,2.82 7.08,-8.64 2.7,10.86"
         style="fill:#000000;fill-opacity:1;fill-rule:nonzero;stroke:none"
         id="path170" /></g><g
       id="g172"
       transform="translate(236.46,758.091)"><path
         d="m 0,0 22.14,-98.28 1.98,0.42 L 1.92,0.42 0,0 z m 23.16,-98.1 -5.76,2.82 7.08,-8.64 2.64,10.86"
         style="fill:#000000;fill-opacity:1;fill-rule:nonzero;stroke:none"
         id="path174" /></g><g
       id="g176"
       transform="translate(247.08,758.091)"><path
         d="m 0,0 22.2,-98.28 1.98,0.42 L 1.98,0.42 0,0 z m 23.16,-98.1 -5.76,2.82 7.08,-8.64 2.7,10.86"
         style="fill:#000000;fill-opacity:1;fill-rule:nonzero;stroke:none"
         id="path178" /></g><g
       id="g180"
       transform="translate(285.24,655.07)"><path
         d="M 0,0 24.9,97.02 26.88,96.54 1.92,-0.54 0,0 z m 25.86,96.78 -5.82,-2.64 7.32,8.46 2.4,-10.92"
         style="fill:#000000;fill-opacity:1;fill-rule:nonzero;stroke:none"
         id="path182" /></g><g
       id="g184"
       transform="translate(316.8,758.091)"><path
         d="m 0,0 22.2,-98.28 1.92,0.42 L 1.92,0.42 0,0 z m 23.16,-98.1 -5.76,2.82 7.08,-8.64 2.64,10.86"
         style="fill:#000000;fill-opacity:1;fill-rule:nonzero;stroke:none"
         id="path186" /></g><g
       id="g188"
       transform="translate(327.42,758.091)"><path
         d="m 0,0 22.2,-98.28 1.98,0.42 L 1.98,0.42 0,0 z m 23.16,-98.1 -5.76,2.82 7.08,-8.64 2.7,10.86"
         style="fill:#000000;fill-opacity:1;fill-rule:nonzero;stroke:none"
         id="path190" /></g><g
       id="g192"
       transform="translate(338.1,758.091)"><path
         d="m 0,0 22.2,-98.28 1.92,0.42 L 1.98,0.42 0,0 z m 23.16,-98.1 -5.76,2.82 7.08,-8.64 2.7,10.86"
         style="fill:#000000;fill-opacity:1;fill-rule:nonzero;stroke:none"
         id="path194" /></g><g
       id="g196"
       transform="translate(383.7,655.07)"><path
         d="M 0,0 24.96,97.02 26.88,96.54 1.92,-0.54 0,0 z m 25.92,96.78 -5.82,-2.64 7.32,8.46 2.34,-10.92"
         style="fill:#000000;fill-opacity:1;fill-rule:nonzero;stroke:none"
         id="path198" /></g><g
       id="g200"
       transform="translate(415.26,758.091)"><path
         d="m 0,0 22.2,-98.28 1.92,0.42 L 1.98,0.42 0,0 z m 23.16,-98.1 -5.76,2.82 7.08,-8.64 2.7,10.86"
         style="fill:#000000;fill-opacity:1;fill-rule:nonzero;stroke:none"
         id="path202" /></g><g
       id="g204"
       transform="translate(425.94,758.091)"><path
         d="m 0,0 22.2,-98.28 1.92,0.42 L 1.92,0.42 0,0 z m 23.16,-98.1 -5.76,2.82 7.08,-8.64 2.64,10.86"
         style="fill:#000000;fill-opacity:1;fill-rule:nonzero;stroke:none"
         id="path206" /></g><g
       id="g208"
       transform="translate(436.56,758.091)"><path
         d="m 0,0 22.2,-98.28 1.98,0.42 L 1.98,0.42 0,0 z m 23.16,-98.1 -5.76,2.82 7.08,-8.64 2.7,10.86"
         style="fill:#000000;fill-opacity:1;fill-rule:nonzero;stroke:none"
         id="path210" /></g><path
       d="m 179.28,491.81 297.6,0 0,-0.77997 -297.6,0 0,0.77997 z m 291.78,3.42 6.6,-3.779 -6.6,-3.84 c -0.18,-0.12 -0.36,-0.06 -0.48,0.12 -0.12,0.18 -0.06,0.42 0.12,0.54 l 6,3.479 0,-0.659 -6,3.479 c -0.18,0.12 -0.24,0.361 -0.12,0.541 0.12,0.179 0.3,0.239 0.48,0.119"
       style="fill:#000000;fill-opacity:1;fill-rule:nonzero;stroke:none"
       id="path212" /><path
       d="m 179.28,594.651 297.6,0 0,-0.71997 -297.6,0 0,0.71997 z m 291.78,3.479 6.6,-3.839 -6.6,-3.84 c -0.18,-0.12 -0.36,-0.06 -0.48,0.119 -0.12,0.18 -0.06,0.42 0.12,0.54 l 6,3.481 0,-0.601 -6,3.481 c -0.18,0.12 -0.24,0.3 -0.12,0.48 0.12,0.179 0.3,0.239 0.48,0.179"
       style="fill:#000000;fill-opacity:1;fill-rule:nonzero;stroke:none"
       id="path214" /><g
       id="g226"
       transform="translate(183.48,491.331)"><path
         d="M 0,0 24.96,97.08 26.88,96.54 1.92,-0.48 0,0 z m 25.92,96.78 -5.82,-2.58 7.32,8.4 2.34,-10.92"
         style="fill:#000000;fill-opacity:1;fill-rule:nonzero;stroke:none"
         id="path228" /></g><g
       id="g230"
       transform="translate(215.04,594.351)"><path
         d="M 0,0 22.2,-98.28 24.18,-97.8 1.98,0.48 0,0 z m 23.16,-98.04 -5.76,2.82 7.08,-8.7 2.7,10.86"
         style="fill:#000000;fill-opacity:1;fill-rule:nonzero;stroke:none"
         id="path232" /></g><g
       id="g234"
       transform="translate(225.72,594.351)"><path
         d="M 0,0 22.2,-98.28 24.12,-97.8 1.92,0.48 0,0 z m 23.16,-98.04 -5.76,2.82 7.08,-8.7 2.7,10.86"
         style="fill:#000000;fill-opacity:1;fill-rule:nonzero;stroke:none"
         id="path236" /></g><g
       id="g238"
       transform="translate(236.4,594.351)"><path
         d="M 0,0 22.14,-98.28 24.12,-97.8 1.92,0.48 0,0 z m 23.16,-98.04 -5.76,2.82 7.08,-8.7 2.64,10.86"
         style="fill:#000000;fill-opacity:1;fill-rule:nonzero;stroke:none"
         id="path240" /></g><g
       id="g242"
       transform="translate(306.06,594.351)"><path
         d="M 0,0 22.2,-98.28 24.12,-97.8 1.98,0.48 0,0 z m 23.16,-98.04 -5.76,2.82 7.08,-8.7 2.7,10.86"
         style="fill:#000000;fill-opacity:1;fill-rule:nonzero;stroke:none"
         id="path244" /></g><g
       id="g246"
       transform="translate(316.74,594.351)"><path
         d="M 0,0 22.14,-98.28 24.12,-97.8 1.92,0.48 0,0 z m 23.16,-98.04 -5.76,2.82 7.08,-8.7 2.64,10.86"
         style="fill:#000000;fill-opacity:1;fill-rule:nonzero;stroke:none"
         id="path248" /></g><g
       id="g250"
       transform="translate(327.36,594.351)"><path
         d="M 0,0 22.2,-98.28 24.12,-97.8 1.98,0.48 0,0 z m 23.16,-98.04 -5.76,2.82 7.08,-8.7 2.7,10.86"
         style="fill:#000000;fill-opacity:1;fill-rule:nonzero;stroke:none"
         id="path252" /></g><g
       id="g254"
       transform="translate(404.52,594.351)"><path
         d="M 0,0 22.2,-98.28 24.18,-97.8 1.98,0.48 0,0 z m 23.16,-98.04 -5.76,2.82 7.08,-8.7 2.7,10.86"
         style="fill:#000000;fill-opacity:1;fill-rule:nonzero;stroke:none"
         id="path256" /></g><g
       id="g258"
       transform="translate(415.2,594.351)"><path
         d="M 0,0 22.2,-98.28 24.12,-97.8 1.98,0.48 0,0 z m 23.16,-98.04 -5.76,2.82 7.08,-8.7 2.7,10.86"
         style="fill:#000000;fill-opacity:1;fill-rule:nonzero;stroke:none"
         id="path260" /></g><g
       id="g262"
       transform="translate(425.88,594.351)"><path
         d="M 0,0 22.14,-98.28 24.12,-97.8 1.92,0.48 0,0 z m 23.16,-98.04 -5.76,2.82 7.08,-8.7 2.64,10.86"
         style="fill:#000000;fill-opacity:1;fill-rule:nonzero;stroke:none"
         id="path264" /></g><text
       xml:space="preserve"
       style="font-size:16px;font-style:normal;font-variant:normal;font-weight:normal;font-stretch:normal;line-height:125%;letter-spacing:0px;word-spacing:0px;fill:#000000;fill-opacity:1;stroke:none;font-family:Liberation Sans;-inkscape-font-specification:Liberation Sans"
       x="151.63838"
       y="172.19946"
       id="text3241"
       sodipodi:linespacing="125%"
       transform="matrix(0,1,1,0,0,0)"><tspan
         sodipodi:role="line"
         id="tspan3243"
         x="151.63838"
         y="172.19946">client</tspan></text>
<text
       xml:space="preserve"
       style="font-size:16px;font-style:normal;font-variant:normal;font-weight:normal;font-stretch:normal;line-height:125%;letter-spacing:0px;word-spacing:0px;fill:#000000;fill-opacity:1;stroke:none;font-family:Liberation Sans;-inkscape-font-specification:Liberation Sans"
       x="251.15894"
       y="170.70726"
       id="text3245"
       sodipodi:linespacing="125%"
       transform="matrix(0,1,1,0,0,0)"><tspan
         sodipodi:role="line"
         id="tspan3247"
         x="251.15894"
         y="170.70726">server</tspan></text>
<text
       xml:space="preserve"
       style="font-size:16px;font-style:normal;font-variant:normal;font-weight:normal;font-stretch:normal;line-height:125%;letter-spacing:0px;word-spacing:0px;fill:#000000;fill-opacity:1;stroke:none;font-family:Liberation Sans;-inkscape-font-specification:Liberation Sans"
       x="182.62131"
       y="498.56409"
       id="text3249"
       sodipodi:linespacing="125%"
       transform="matrix(0,1,1,0,0,0)"><tspan
         sodipodi:role="line"
         id="tspan3251"
         x="182.62131"
         y="498.56409">simple bulk</tspan><tspan
         sodipodi:role="line"
         x="182.62131"
         y="518.56409"
         id="tspan3253">transfer</tspan><tspan
         sodipodi:role="line"
         x="182.62131"
         y="538.56409"
         id="tspan3255">(HTTP)</tspan></text>
<text
       xml:space="preserve"
       style="font-size:16px;font-style:normal;font-variant:normal;font-weight:normal;font-stretch:normal;line-height:125%;letter-spacing:0px;word-spacing:0px;fill:#000000;fill-opacity:1;stroke:none;font-family:Liberation Sans;-inkscape-font-specification:Liberation Sans"
       x="313.57837"
       y="172.19946"
       id="text3257"
       sodipodi:linespacing="125%"
       transform="matrix(0,1,1,0,0,0)"><tspan
         sodipodi:role="line"
         id="tspan3259"
         x="313.57837"
         y="172.19946">client</tspan></text>
<text
       xml:space="preserve"
       style="font-size:16px;font-style:normal;font-variant:normal;font-weight:normal;font-stretch:normal;line-height:125%;letter-spacing:0px;word-spacing:0px;fill:#000000;fill-opacity:1;stroke:none;font-family:Liberation Sans;-inkscape-font-specification:Liberation Sans"
       x="413.09894"
       y="170.70726"
       id="text3261"
       sodipodi:linespacing="125%"
       transform="matrix(0,1,1,0,0,0)"><tspan
         sodipodi:role="line"
         id="tspan3263"
         x="413.09894"
         y="170.70726">server</tspan></text>
<text
       xml:space="preserve"
       style="font-size:16px;font-style:normal;font-variant:normal;font-weight:normal;font-stretch:normal;line-height:125%;letter-spacing:0px;word-spacing:0px;fill:#000000;fill-opacity:1;stroke:none;font-family:Liberation Sans;-inkscape-font-specification:Liberation Sans"
       x="308.67068"
       y="498.56409"
       id="text3265"
       sodipodi:linespacing="125%"
       transform="matrix(0,1,1,0,0,0)"><tspan
         sodipodi:role="line"
         id="tspan3267"
         x="308.67068"
         y="498.56409">paced transfer</tspan><tspan
         sodipodi:role="line"
         x="308.67068"
         y="518.56409"
         id="tspan3269">(RTP &amp; paced HTTP)</tspan></text>
<text
       xml:space="preserve"
       style="font-size:16px;font-style:normal;font-variant:normal;font-weight:normal;font-stretch:normal;line-height:125%;letter-spacing:0px;word-spacing:0px;fill:#000000;fill-opacity:1;stroke:none;font-family:Liberation Sans;-inkscape-font-specification:Liberation Sans"
       x="472.44788"
       y="172.19946"
       id="text3271"
       sodipodi:linespacing="125%"
       transform="matrix(0,1,1,0,0,0)"><tspan
         sodipodi:role="line"
         id="tspan3273"
         x="472.44788"
         y="172.19946">client</tspan></text>
<text
       xml:space="preserve"
       style="font-size:16px;font-style:normal;font-variant:normal;font-weight:normal;font-stretch:normal;line-height:125%;letter-spacing:0px;word-spacing:0px;fill:#000000;fill-opacity:1;stroke:none;font-family:Liberation Sans;-inkscape-font-specification:Liberation Sans"
       x="571.93848"
       y="170.70726"
       id="text3275"
       sodipodi:linespacing="125%"
       transform="matrix(0,1,1,0,0,0)"><tspan
         sodipodi:role="line"
         id="tspan3277"
         x="571.93848"
         y="170.70726">server</tspan></text>
<text
       xml:space="preserve"
       style="font-size:16px;font-style:normal;font-variant:normal;font-weight:normal;font-stretch:normal;line-height:125%;letter-spacing:0px;word-spacing:0px;fill:#000000;fill-opacity:1;stroke:none;font-family:Liberation Sans;-inkscape-font-specification:Liberation Sans"
       x="636.87756"
       y="172.19946"
       id="text3279"
       sodipodi:linespacing="125%"
       transform="matrix(0,1,1,0,0,0)"><tspan
         sodipodi:role="line"
         id="tspan3281"
         x="636.87756"
         y="172.19946">client</tspan></text>
<text
       xml:space="preserve"
       style="font-size:16px;font-style:normal;font-variant:normal;font-weight:normal;font-stretch:normal;line-height:125%;letter-spacing:0px;word-spacing:0px;fill:#000000;fill-opacity:1;stroke:none;font-family:Liberation Sans;-inkscape-font-specification:Liberation Sans"
       x="736.38898"
       y="170.70728"
       id="text3283"
       sodipodi:linespacing="125%"
       transform="matrix(0,1,1,0,0,0)"><tspan
         sodipodi:role="line"
         id="tspan3285"
         x="736.38898"
         y="170.70728">server</tspan></text>
<text
       xml:space="preserve"
       style="font-size:16px;font-style:normal;font-variant:normal;font-weight:normal;font-stretch:normal;line-height:125%;letter-spacing:0px;word-spacing:0px;fill:#000000;fill-opacity:1;stroke:none;font-family:Liberation Sans;-inkscape-font-specification:Liberation Sans"
       x="492.73257"
       y="498.56409"
       id="text3287"
       sodipodi:linespacing="125%"
       transform="matrix(0,1,1,0,0,0)"><tspan
         sodipodi:role="line"
         id="tspan3289"
         x="492.73257"
         y="498.56409">paced block</tspan><tspan
         sodipodi:role="line"
         x="492.73257"
         y="518.56409"
         id="tspan3291">transfer</tspan><tspan
         sodipodi:role="line"
         x="492.73257"
         y="538.56409"
         id="tspan3293">(paced HTTP)</tspan></text>
<text
       xml:space="preserve"
       style="font-size:16px;font-style:normal;font-variant:normal;font-weight:normal;font-stretch:normal;line-height:125%;letter-spacing:0px;word-spacing:0px;fill:#000000;fill-opacity:1;stroke:none;font-family:Liberation Sans;-inkscape-font-specification:Liberation Sans"
       x="647.88788"
       y="497.31409"
       id="text3295"
       sodipodi:linespacing="125%"
       transform="matrix(0,1,1,0,0,0)"><tspan
         sodipodi:role="line"
         id="tspan3297"
         x="647.88788"
         y="497.31409">request</tspan><tspan
         sodipodi:role="line"
         x="647.88788"
         y="517.31409"
         id="tspan3299">segmentation</tspan><tspan
         sodipodi:role="line"
         x="647.88788"
         y="537.31409"
         id="tspan3301">(adaptive HTTP)</tspan></text>
</g></svg>