<?xml version="1.0" encoding="UTF-8" standalone="no"?>
<!-- Created with Inkscape (http://www.inkscape.org/) -->

<svg
   xmlns:dc="http://purl.org/dc/elements/1.1/"
   xmlns:cc="http://creativecommons.org/ns#"
   xmlns:rdf="http://www.w3.org/1999/02/22-rdf-syntax-ns#"
   xmlns:svg="http://www.w3.org/2000/svg"
   xmlns="http://www.w3.org/2000/svg"
   xmlns:sodipodi="http://sodipodi.sourceforge.net/DTD/sodipodi-0.dtd"
   xmlns:inkscape="http://www.inkscape.org/namespaces/inkscape"
   width="210mm"
   height="297mm"
   id="svg3215"
   version="1.1"
   inkscape:version="0.48.5 r10040"
   sodipodi:docname="adaptive-streaming-no-cl.svg">
  <defs
     id="defs3217">
    <marker
       inkscape:stockid="Arrow1Sstart"
       orient="auto"
       refY="0.0"
       refX="0.0"
       id="Arrow1Sstart"
       style="overflow:visible">
      <path
         id="path4137"
         d="M 0.0,0.0 L 5.0,-5.0 L -12.5,0.0 L 5.0,5.0 L 0.0,0.0 z "
         style="fill-rule:evenodd;stroke:#000000;stroke-width:1.0pt"
         transform="scale(0.2) translate(6,0)" />
    </marker>
    <marker
       inkscape:stockid="Arrow2Mstart"
       orient="auto"
       refY="0.0"
       refX="0.0"
       id="Arrow2Mstart"
       style="overflow:visible">
      <path
         id="path4149"
         style="fill-rule:evenodd;stroke-width:0.62500000;stroke-linejoin:round"
         d="M 8.7185878,4.0337352 L -2.2072895,0.016013256 L 8.7185884,-4.0017078 C 6.9730900,-1.6296469 6.9831476,1.6157441 8.7185878,4.0337352 z "
         transform="scale(0.6) translate(0,0)" />
    </marker>
    <marker
       inkscape:stockid="Arrow2Mend"
       orient="auto"
       refY="0"
       refX="0"
       id="Arrow2Mend"
       style="overflow:visible">
      <path
         inkscape:connector-curvature="0"
         id="path3809"
         style="fill-rule:evenodd;stroke-width:0.625;stroke-linejoin:round"
         d="M 8.7185878,4.0337352 -2.2072895,0.01601326 8.7185884,-4.0017078 c -1.7454984,2.3720609 -1.7354408,5.6174519 -6e-7,8.035443 z"
         transform="scale(-0.6,-0.6)" />
    </marker>
    <marker
       inkscape:stockid="StopL"
       orient="auto"
       refY="0"
       refX="0"
       id="StopL"
       style="overflow:visible">
      <path
         inkscape:connector-curvature="0"
         id="path3951"
         d="M 0,5.65 0,-5.65"
         style="fill:none;stroke:#000000;stroke-width:1pt"
         transform="scale(0.8,0.8)" />
    </marker>
    <marker
       inkscape:stockid="StopL"
       orient="auto"
       refY="0"
       refX="0"
       id="marker3237"
       style="overflow:visible">
      <path
         inkscape:connector-curvature="0"
         id="path3239"
         d="M 0,5.65 0,-5.65"
         style="fill:none;stroke:#000000;stroke-width:1pt"
         transform="scale(0.8,0.8)" />
    </marker>
    <marker
       inkscape:stockid="Arrow2Mend"
       orient="auto"
       refY="0"
       refX="0"
       id="marker3241"
       style="overflow:visible">
      <path
         inkscape:connector-curvature="0"
         id="path3243"
         style="fill-rule:evenodd;stroke-width:0.625;stroke-linejoin:round"
         d="M 8.7185878,4.0337352 -2.2072895,0.01601326 8.7185884,-4.0017078 c -1.7454984,2.3720609 -1.7354408,5.6174519 -6e-7,8.035443 z"
         transform="scale(-0.6,-0.6)" />
    </marker>
    <marker
       inkscape:stockid="Arrow2Mend"
       orient="auto"
       refY="0"
       refX="0"
       id="Arrow2Mend-5"
       style="overflow:visible">
      <path
         inkscape:connector-curvature="0"
         id="path3809-4"
         style="fill-rule:evenodd;stroke-width:0.625;stroke-linejoin:round"
         d="M 8.7185878,4.0337352 -2.2072895,0.01601326 8.7185884,-4.0017078 c -1.7454984,2.3720609 -1.7354408,5.6174519 -6e-7,8.035443 z"
         transform="scale(-0.6,-0.6)" />
    </marker>
    <marker
       inkscape:stockid="StopL"
       orient="auto"
       refY="0"
       refX="0"
       id="StopL-6"
       style="overflow:visible">
      <path
         inkscape:connector-curvature="0"
         id="path3951-3"
         d="M 0,5.65 0,-5.65"
         style="fill:none;stroke:#000000;stroke-width:1pt"
         transform="scale(0.8,0.8)" />
    </marker>
    <marker
       inkscape:stockid="StopL"
       orient="auto"
       refY="0"
       refX="0"
       id="marker3420"
       style="overflow:visible">
      <path
         inkscape:connector-curvature="0"
         id="path3422"
         d="M 0,5.65 0,-5.65"
         style="fill:none;stroke:#000000;stroke-width:1pt"
         transform="scale(0.8,0.8)" />
    </marker>
    <marker
       inkscape:stockid="Arrow2Mend"
       orient="auto"
       refY="0"
       refX="0"
       id="marker3424"
       style="overflow:visible">
      <path
         inkscape:connector-curvature="0"
         id="path3426"
         style="fill-rule:evenodd;stroke-width:0.625;stroke-linejoin:round"
         d="M 8.7185878,4.0337352 -2.2072895,0.01601326 8.7185884,-4.0017078 c -1.7454984,2.3720609 -1.7354408,5.6174519 -6e-7,8.035443 z"
         transform="scale(-0.6,-0.6)" />
    </marker>
    <marker
       inkscape:stockid="Arrow2Mend"
       orient="auto"
       refY="0"
       refX="0"
       id="Arrow2Mend-3"
       style="overflow:visible">
      <path
         inkscape:connector-curvature="0"
         id="path3809-2"
         style="fill-rule:evenodd;stroke-width:0.625;stroke-linejoin:round"
         d="M 8.7185878,4.0337352 -2.2072895,0.01601326 8.7185884,-4.0017078 c -1.7454984,2.3720609 -1.7354408,5.6174519 -6e-7,8.035443 z"
         transform="scale(-0.6,-0.6)" />
    </marker>
    <marker
       inkscape:stockid="Arrow2Mend"
       orient="auto"
       refY="0"
       refX="0"
       id="Arrow2Mend-4"
       style="overflow:visible">
      <path
         inkscape:connector-curvature="0"
         id="path3809-26"
         style="fill-rule:evenodd;stroke-width:0.625;stroke-linejoin:round"
         d="M 8.7185878,4.0337352 -2.2072895,0.01601326 8.7185884,-4.0017078 c -1.7454984,2.3720609 -1.7354408,5.6174519 -6e-7,8.035443 z"
         transform="scale(-0.6,-0.6)" />
    </marker>
    <marker
       inkscape:stockid="StopL"
       orient="auto"
       refY="0"
       refX="0"
       id="StopL-3"
       style="overflow:visible">
      <path
         inkscape:connector-curvature="0"
         id="path3951-34"
         d="M 0,5.65 0,-5.65"
         style="fill:none;stroke:#000000;stroke-width:1pt"
         transform="scale(0.8,0.8)" />
    </marker>
    <marker
       inkscape:stockid="StopL"
       orient="auto"
       refY="0"
       refX="0"
       id="marker3832"
       style="overflow:visible">
      <path
         inkscape:connector-curvature="0"
         id="path3834"
         d="M 0,5.65 0,-5.65"
         style="fill:none;stroke:#000000;stroke-width:1pt"
         transform="scale(0.8,0.8)" />
    </marker>
    <marker
       inkscape:stockid="Arrow2Mend"
       orient="auto"
       refY="0"
       refX="0"
       id="Arrow2Mend-02"
       style="overflow:visible">
      <path
         inkscape:connector-curvature="0"
         id="path3809-1"
         style="fill-rule:evenodd;stroke-width:0.625;stroke-linejoin:round"
         d="M 8.7185878,4.0337352 -2.2072895,0.01601326 8.7185884,-4.0017078 c -1.7454984,2.3720609 -1.7354408,5.6174519 -6e-7,8.035443 z"
         transform="scale(-0.6,-0.6)" />
    </marker>
    <marker
       inkscape:stockid="Arrow2Mend"
       orient="auto"
       refY="0"
       refX="0"
       id="marker3838"
       style="overflow:visible">
      <path
         inkscape:connector-curvature="0"
         id="path3840"
         style="fill-rule:evenodd;stroke-width:0.625;stroke-linejoin:round"
         d="M 8.7185878,4.0337352 -2.2072895,0.01601326 8.7185884,-4.0017078 c -1.7454984,2.3720609 -1.7354408,5.6174519 -6e-7,8.035443 z"
         transform="scale(-0.6,-0.6)" />
    </marker>
    <marker
       inkscape:stockid="Arrow2Mend"
       orient="auto"
       refY="0"
       refX="0"
       id="marker4047"
       style="overflow:visible">
      <path
         inkscape:connector-curvature="0"
         id="path4049"
         style="fill-rule:evenodd;stroke-width:0.625;stroke-linejoin:round"
         d="M 8.7185878,4.0337352 -2.2072895,0.01601326 8.7185884,-4.0017078 c -1.7454984,2.3720609 -1.7354408,5.6174519 -6e-7,8.035443 z"
         transform="scale(-0.6,-0.6)" />
    </marker>
    <marker
       inkscape:stockid="Arrow2Mend"
       orient="auto"
       refY="0"
       refX="0"
       id="Arrow2Mend-02-1"
       style="overflow:visible">
      <path
         inkscape:connector-curvature="0"
         id="path3809-1-9"
         style="fill-rule:evenodd;stroke-width:0.625;stroke-linejoin:round"
         d="M 8.7185878,4.0337352 -2.2072895,0.01601326 8.7185884,-4.0017078 c -1.7454984,2.3720609 -1.7354408,5.6174519 -6e-7,8.035443 z"
         transform="scale(-0.6,-0.6)" />
    </marker>
    <marker
       inkscape:stockid="Arrow2Mend"
       orient="auto"
       refY="0"
       refX="0"
       id="marker4009"
       style="overflow:visible">
      <path
         inkscape:connector-curvature="0"
         id="path4011"
         style="fill-rule:evenodd;stroke-width:0.625;stroke-linejoin:round"
         d="M 8.7185878,4.0337352 -2.2072895,0.01601326 8.7185884,-4.0017078 c -1.7454984,2.3720609 -1.7354408,5.6174519 -6e-7,8.035443 z"
         transform="scale(-0.6,-0.6)" />
    </marker>
    <marker
       inkscape:stockid="StopL"
       orient="auto"
       refY="0"
       refX="0"
       id="StopL-64"
       style="overflow:visible">
      <path
         inkscape:connector-curvature="0"
         id="path3951-6"
         d="M 0,5.65 0,-5.65"
         style="fill:none;stroke:#000000;stroke-width:1pt"
         transform="scale(0.8,0.8)" />
    </marker>
    <marker
       inkscape:stockid="StopL"
       orient="auto"
       refY="0"
       refX="0"
       id="marker4015"
       style="overflow:visible">
      <path
         inkscape:connector-curvature="0"
         id="path4017"
         d="M 0,5.65 0,-5.65"
         style="fill:none;stroke:#000000;stroke-width:1pt"
         transform="scale(0.8,0.8)" />
    </marker>
    <marker
       inkscape:stockid="Arrow2Mend"
       orient="auto"
       refY="0"
       refX="0"
       id="Arrow2Mend-8"
       style="overflow:visible">
      <path
         inkscape:connector-curvature="0"
         id="path3809-5"
         style="fill-rule:evenodd;stroke-width:0.625;stroke-linejoin:round"
         d="M 8.7185878,4.0337352 -2.2072895,0.01601326 8.7185884,-4.0017078 c -1.7454984,2.3720609 -1.7354408,5.6174519 -6e-7,8.035443 z"
         transform="scale(-0.6,-0.6)" />
    </marker>
  </defs>
  <sodipodi:namedview
     id="base"
     pagecolor="#ffffff"
     bordercolor="#666666"
     borderopacity="1.0"
     inkscape:pageopacity="0.0"
     inkscape:pageshadow="2"
     inkscape:zoom="1.4"
     inkscape:cx="356.05017"
     inkscape:cy="857.00432"
     inkscape:document-units="px"
     inkscape:current-layer="layer1"
     showgrid="false"
     inkscape:window-width="1590"
     inkscape:window-height="853"
     inkscape:window-x="327"
     inkscape:window-y="134"
     inkscape:window-maximized="0" />
  <metadata
     id="metadata3220">
    <rdf:RDF>
      <cc:Work
         rdf:about="">
        <dc:format>image/svg+xml</dc:format>
        <dc:type
           rdf:resource="http://purl.org/dc/dcmitype/StillImage" />
        <dc:title />
      </cc:Work>
    </rdf:RDF>
  </metadata>
  <g
     inkscape:label="Ebene 1"
     inkscape:groupmode="layer"
     id="layer1">
    <path
       style="fill:none;stroke:#000000;stroke-width:2;stroke-linecap:butt;stroke-linejoin:miter;stroke-miterlimit:4;stroke-opacity:1;stroke-dasharray:none"
       d="m 49.183705,304.11464 c 2.446006,0.7462 2.207827,-2.1753 3.571429,-2.8571 0.212959,-0.1065 0.545927,0.1683 0.714286,0 0.168358,-0.1684 -0.168359,-0.5459 0,-0.7143 0.357142,-0.3571 1.785714,0.3571 2.142857,0 0.168358,-0.1684 -0.168359,-0.5459 0,-0.7143 0.168358,-0.1683 0.545927,0.1684 0.714285,0 0.168359,-0.1683 -0.168358,-0.5459 0,-0.7143 0.336718,-0.3367 1.091854,0.3367 1.428572,0 0.168359,-0.1683 -0.168359,-0.5459 0,-0.7143 0.168359,-0.1683 0.501327,0.1065 0.714286,0 0.301169,-0.1505 0.413116,-0.5637 0.714285,-0.7142 0.425918,-0.213 1.091854,0.3367 1.428572,0 0.168358,-0.1684 -0.168359,-0.546 0,-0.7143 0.336717,-0.3367 1.091854,0.3367 1.428573,0 0.16836,-0.1684 -0.168361,-0.546 0,-0.7143 0.33672,-0.3367 1.09185,0.3367 1.42857,0 0.16836,-0.1684 -0.16836,-0.5459 0,-0.7143 0.16836,-0.1684 0.54593,-0.1684 0.71429,0 0.16835,0.1684 -0.16836,0.5459 0,0.7143 0.16835,0.1683 0.50132,-0.1065 0.71428,0 0.30117,0.1506 0.41312,0.5637 0.71429,0.7143 0.42591,0.2129 1.09185,-0.3367 1.42857,0 0.16836,0.1683 -0.16836,0.5459 0,0.7143 0.33672,0.3367 1.09185,-0.3368 1.42857,0 0.16836,0.1683 -0.16836,0.5459 0,0.7142 0.16836,0.1684 0.54593,-0.1683 0.71429,0 0.16835,0.1684 -0.16836,0.546 0,0.7143 0.16835,0.1684 0.47619,0 0.71428,0 0.2381,0 0.47619,0 0.71429,0 1.90476,0 3.80952,0 5.71428,0 1.67513,0 -0.33671,-0.1683 1.42857,0.7143 0.18782,0.094 2.48363,0 2.85715,0 1.90476,0 3.80952,0 5.71428,0 0.26231,0 2.8284,0.029 2.85715,0 0.16835,-0.1683 -0.16836,-0.5459 0,-0.7143 0.16835,-0.1683 0.54592,0.1684 0.71428,0 0.16836,-0.1683 -0.16836,-0.5459 0,-0.7143 0.33672,-0.3367 1.09185,0.3368 1.42857,0 0.16836,-0.1683 -0.16836,-0.5459 0,-0.7142 0.16836,-0.1684 0.54593,0.1683 0.71429,0 0.16836,-0.1684 -0.16836,-0.546 0,-0.7143 0.33672,-0.3367 1.09185,0.3367 1.42857,0 0.16836,-0.1684 -0.16836,-0.546 0,-0.7143 0.33672,-0.3367 1.09185,0.3367 1.42857,0 0.16836,-0.1684 -0.16836,-0.5459 0,-0.7143 0.16836,-0.1684 0.54593,0.1684 0.71429,0 0.16836,-0.1684 -0.16836,-0.5459 0,-0.7143 0.16836,-0.1683 0.54592,0.1684 0.71428,0 0.16836,-0.1683 -0.16836,-0.5459 0,-0.7143 0.33672,-0.3367 1.09186,0.3367 1.42857,0 0.16836,-0.1683 -0.16835,-0.5459 0,-0.7143 0.33672,-0.3367 1.09186,0.3368 1.42858,0 0.16835,-0.1683 -0.16836,-0.5459 0,-0.7142 0.16835,-0.1684 0.54592,0.1683 0.71428,0 0.16836,-0.1684 -0.16836,-0.546 0,-0.7143 0.33672,-0.3367 1.09185,0.3367 1.42857,0 0.16836,-0.1684 -0.16836,-0.546 0,-0.7143 0.19545,-0.1955 2.46965,0.1937 2.85715,0 0.30117,-0.1506 0.41311,-0.5637 0.71428,-0.7143 0.28321,-0.1416 1.99683,0.146 2.14286,0 0.16836,-0.1684 -0.16836,-0.5459 0,-0.7143 0.16836,-0.1683 0.47619,0 0.71428,0 1.19048,0 2.38096,0 3.57143,0 0.2381,0 0.54593,-0.1683 0.71429,0 0.16836,0.1684 -0.16836,0.5459 0,0.7143 0.16836,0.1684 0.54593,-0.1684 0.71428,0 0.16836,0.1684 -0.16835,0.5459 0,0.7143 0.16836,0.1683 0.54593,-0.1684 0.71429,0 0.16836,0.1683 -0.16836,0.5459 0,0.7143 0.16836,0.1683 0.54593,-0.1684 0.71429,0 0.16835,0.1683 -0.16836,0.5459 0,0.7143 0.16835,0.1683 0.54592,-0.1684 0.71428,0 0.33672,0.3367 -0.33672,1.0918 0,1.4285 0.16836,0.1684 0.54593,-0.1683 0.71429,0 0.16836,0.1684 -0.16836,0.546 0,0.7143 0.16836,0.1684 0.54592,-0.1683 0.71428,0 0.33672,0.3367 -0.33671,1.0919 0,1.4286 0.16836,0.1683 0.54593,-0.1684 0.71429,0 0.33672,0.3367 -0.33672,1.0918 0,1.4286 0.16836,0.1683 0.54593,-0.1684 0.71428,0 0.16836,0.1683 -0.16835,0.5459 0,0.7142 0.16836,0.1684 0.54593,-0.1683 0.71429,0 1.47788,1.4779 -2.2584,-0.058 0.71429,1.4286 0.21295,0.1065 0.54592,-0.1683 0.71428,0 1.47788,1.4779 -2.2584,-0.058 0.71429,1.4286 0.21296,0.1065 0.54592,-0.1684 0.71428,0 0.16836,0.1683 -0.16836,0.5459 0,0.7143 0.16836,0.1683 0.54593,-0.1684 0.71429,0 0.16836,0.1683 -0.16836,0.5459 0,0.7143 0.33672,0.3367 1.09185,-0.3368 1.42857,0 0.16836,0.1683 -0.16836,0.5459 0,0.7142 0.14603,0.1461 1.85965,-0.1416 2.14286,0 0.30117,0.1506 0.41311,0.5637 0.71428,0.7143 0.21738,0.1087 1.82118,0 2.14286,0 1.42857,0 2.85714,0 4.28571,0 3.09524,0 6.19048,0 9.28572,0 0.26231,0 2.8284,0.029 2.85714,0 0.16836,-0.1683 -0.16836,-0.5459 0,-0.7143 0.33672,-0.3367 1.09185,0.3368 1.42857,0 0.16836,-0.1683 -0.16836,-0.5459 0,-0.7142 0.17188,-0.1719 2.68527,0.1718 2.85714,0 0.16836,-0.1684 -0.16835,-0.546 0,-0.7143 0.35715,-0.3572 1.78572,0.3571 2.14286,0 0.16836,-0.1684 -0.16836,-0.546 0,-0.7143 0.33672,-0.3367 1.09186,0.3367 1.42857,0 0.16836,-0.1684 -0.16836,-0.5459 0,-0.7143 0.33672,-0.3367 1.09186,0.3367 1.42857,0 0.16836,-0.1684 -0.16835,-0.5459 0,-0.7143 0.16836,-0.1683 0.54593,0.1684 0.71429,0 0.16836,-0.1683 -0.16836,-0.5459 0,-0.7143 0.33672,-0.3367 1.09185,0.3367 1.42857,0 0.16836,-0.1683 -0.16836,-0.5459 0,-0.7143 0.33672,-0.3367 1.09186,0.3368 1.42857,0 0.16836,-0.1683 -0.16836,-0.5459 0,-0.7142 0.16836,-0.1684 0.50133,0.1064 0.71429,0 0.30117,-0.1506 0.41312,-0.5637 0.71428,-0.7143 0.21296,-0.1065 0.54593,0.1683 0.71429,0 0.16836,-0.1684 -0.16836,-0.546 0,-0.7143 0.33672,-0.3367 1.09185,0.3367 1.42857,0 0.16836,-0.1684 -0.16836,-0.5459 0,-0.7143 0.17188,-0.1719 2.68527,0.1719 2.85714,0 0.16836,-0.1684 -0.16835,-0.5459 0,-0.7143 0.16836,-0.1683 0.47619,0 0.71429,0 0.2381,0 0.47619,0 0.71429,0 1.19047,0 2.38095,0 3.57142,0 0.2381,0 0.54593,-0.1683 0.71429,0 0.16836,0.1684 -0.16836,0.5459 0,0.7143 0.47525,0.4752 0.95332,-0.4753 1.42857,0 0.16836,0.1684 -0.16836,0.5459 0,0.7143 0.17188,0.1719 2.68527,-0.1719 2.85714,0 0.16836,0.1683 -0.16835,0.5459 0,0.7143 0.19545,0.1954 2.46966,-0.1938 2.85715,0 0.30117,0.1506 0.41311,0.5637 0.71428,0.7143 0.21296,0.1064 0.47619,0 0.71429,0 0.23809,0 0.47619,0 0.71428,0 1.19048,0 2.38096,0 3.57143,0 0.26231,0 2.8284,0.029 2.85715,0 0.16835,-0.1684 -0.16836,-0.546 0,-0.7143 0.17188,-0.1719 2.68526,0.1718 2.85714,0 0.16836,-0.1684 -0.16836,-0.546 0,-0.7143 0.35714,-0.3572 1.78571,0.3571 2.14286,0 0.16835,-0.1684 -0.16836,-0.5459 0,-0.7143 0.35714,-0.3571 1.78571,0.3571 2.14285,0 0.16836,-0.1684 -0.16836,-0.5459 0,-0.7143 0.17188,-0.1719 2.68527,0.1719 2.85715,0 0.16835,-0.1683 -0.16836,-0.5459 0,-0.7143 0.33671,-0.3367 1.09185,0.3367 1.42857,0 0.16836,-0.1683 -0.16836,-0.5459 0,-0.7143 0.023,-0.023 1.96962,0 2.14285,0 1.90477,0 3.80953,0 5.71429,0 0.2381,0 0.54593,-0.1683 0.71429,0 0.16835,0.1684 -0.16836,0.546 0,0.7143 0.17188,0.1719 2.68526,-0.1719 2.85714,0 0.16836,0.1684 -0.16836,0.546 0,0.7143 0.16836,0.1684 0.47619,0 0.71428,0 1.19048,0 2.38096,0 3.57143,0 0.17324,0 2.11989,-0.023 2.14286,0 0.16836,0.1684 -0.16836,0.5459 0,0.7143 0.17188,0.1719 2.68526,-0.1719 2.85714,0 0.16836,0.1684 -0.16836,0.5459 0,0.7143 0.22118,0.2212 3.35026,-0.2212 3.57143,0 0.16836,0.1683 -0.16836,0.5459 0,0.7143 0.16836,0.1683 0.47619,0 0.71429,0 1.19047,0 2.38095,0 3.57143,0 1.90476,0 -0.2381,0.2381 0.71428,-0.7143 0.35714,-0.3572 1.78572,0.3571 2.14286,0 0.16836,-0.1684 -0.16836,-0.5459 0,-0.7143 0.22118,-0.2212 3.35025,0.2212 3.57143,0 0.16836,-0.1684 -0.16836,-0.5459 0,-0.7143 0.14602,-0.146 1.85965,0.1416 2.14285,0 0.30117,-0.1506 0.41312,-0.5637 0.71429,-0.7143 0.38749,-0.1937 2.6617,0.1955 2.85714,0 0.16836,-0.1683 -0.16836,-0.5459 0,-0.7143 0.17188,-0.1718 2.68527,0.1719 2.85715,0 0.16835,-0.1683 -0.16836,-0.5459 0,-0.7142 0.22117,-0.2212 3.35025,0.2211 3.57142,0 0.16836,-0.1684 -0.16835,-0.546 0,-0.7143 0.16836,-0.1684 0.47619,0 0.71429,0 0.2381,0 0.47619,0 0.71429,0 1.90476,0 3.80952,0 5.71428,0 0.2381,0 0.47619,0 0.71429,0 0.23809,0 0.54592,-0.1684 0.71428,0 0.16836,0.1683 -0.16836,0.5459 0,0.7143 0.33672,0.3367 1.09186,-0.3368 1.42857,0 0.16836,0.1683 -0.16835,0.5459 0,0.7142 0.33672,0.3368 1.09186,-0.3367 1.42858,0 0.16835,0.1684 -0.16836,0.546 0,0.7143 0.33671,0.3367 1.09185,-0.3367 1.42857,0 0.16836,0.1684 -0.16836,0.546 0,0.7143 0.16836,0.1684 0.47619,0 0.71428,0 1.66667,0 3.33334,0 5,0 1.66667,0 3.33334,0 5,0 0.32169,0 1.92548,0.1087 2.14286,0 0.30117,-0.1506 0.41312,-0.5637 0.71429,-0.7143 0.2832,-0.1416 1.99683,0.1461 2.14285,0 0.16836,-0.1683 -0.16836,-0.5459 0,-0.7143 0.16836,-0.1683 0.47619,0 0.71429,0 0.50629,0 4.10103,0.092 4.28571,0 0.30117,-0.1505 0.41312,-0.5637 0.71429,-0.7142 0.21296,-0.1065 0.47619,0 0.71428,0 0.2381,0 0.4762,0 0.71429,0 1.19048,0 2.38095,0 3.57143,0 0.23809,0 0.47619,0 0.71428,0 0.2381,0 0.54593,0.1683 0.71429,0 0.16836,-0.1684 -0.16836,-0.546 0,-0.7143 0.16836,-0.1684 0.47619,0 0.71429,0 0.23809,0 0.47619,0 0.71428,0 3.57143,0 7.14286,0 10.71429,0 2.61905,0 5.23809,0 7.85714,0 0.2381,0 0.47619,0 0.71429,0 0.23809,0 0.54592,-0.1684 0.71428,0 0.16836,0.1683 -0.16836,0.5459 0,0.7143 0.33672,0.3367 1.09186,-0.3368 1.42857,0 0.16836,0.1683 -0.16836,0.5459 0,0.7142 0.33672,0.3368 1.09186,-0.3367 1.42857,0 0.16836,0.1684 -0.16835,0.546 0,0.7143 0.17188,0.1719 2.68527,-0.1719 2.85715,0 0.16836,0.1684 -0.16836,0.546 0,0.7143 0.17188,0.1719 2.68526,-0.1719 2.85714,0 0.16836,0.1684 -0.16836,0.5459 0,0.7143 0.0287,0.029 2.59483,0 2.85714,0 1.90477,0 3.80953,0 5.71429,0 0.23809,0 0.54593,-0.1684 0.71428,0 0.16836,0.1684 -0.16835,0.5459 0,0.7143 0.35715,0.3571 1.78572,-0.3572 2.14286,0 0.16836,0.1683 -0.16836,0.5459 0,0.7143 0.0714,0.071 2.07143,0.071 2.14286,0 0.16836,-0.1684 -0.16836,-0.546 0,-0.7143 0.16836,-0.1684 0.50133,0.1065 0.71428,0 0.30117,-0.1506 0.41312,-0.5637 0.71429,-0.7143 0.42592,-0.213 1.09185,0.3367 1.42857,0 0.16836,-0.1684 -0.16836,-0.5459 0,-0.7143 0.23822,-0.2382 1.19036,0.2382 1.42857,0 0.16836,-0.1683 -0.16836,-0.5459 0,-0.7143 0.35715,-0.3571 1.78572,0.3572 2.14286,0 0.16836,-0.1683 -0.16836,-0.5459 0,-0.7143 0.35714,-0.3571 1.78571,0.3572 2.14286,0 0.16836,-0.1683 -0.16836,-0.5459 0,-0.7142 0.35714,-0.3572 1.78571,0.3571 2.14285,0 0.16836,-0.1684 -0.16835,-0.546 0,-0.7143 0.35715,-0.3572 1.78572,0.3571 2.14286,0 0.16836,-0.1684 -0.16836,-0.546 0,-0.7143 0.22118,-0.2212 3.35025,0.2212 3.57143,0 0.16836,-0.1684 -0.16836,-0.5459 0,-0.7143 0.16836,-0.1684 0.47619,0 0.71429,0 0.23809,0 0.47619,0 0.71428,0 0.33679,0 3.53906,-0.032 3.57143,0 0.16836,0.1684 -0.16836,0.5459 0,0.7143 0.16836,0.1683 0.47619,0 0.71429,0 0.23809,0 0.47619,0 0.71428,0 0.2381,0 0.47619,0 0.71429,0 0.23809,0 0.54592,-0.1684 0.71428,0 0.16836,0.1683 -0.16836,0.5459 0,0.7143 0.0324,0.032 3.23465,0 3.57143,0 0.2381,0 0.54593,-0.1684 0.71429,0 0.16836,0.1683 -0.16836,0.5459 0,0.7143 0.33671,0.3367 1.00265,-0.213 1.42857,0 0.30117,0.1505 0.41312,0.5637 0.71428,0.7142 0.42592,0.213 1.09186,-0.3367 1.42858,0 0.16835,0.1684 -0.16836,0.546 0,0.7143 0.33671,0.3367 1.09185,-0.3367 1.42857,0 0.16836,0.1684 -0.16836,0.546 0,0.7143 0.16836,0.1684 0.54592,-0.1683 0.71428,0 0.16836,0.1684 -0.16836,0.5459 0,0.7143 0.19545,0.1954 2.46965,-0.1937 2.85715,0 0.30117,0.1506 0.41311,0.5637 0.71428,0.7143 0.18468,0.092 3.77943,0 4.28572,0 1.42857,0 2.85714,0 4.28571,0 0.2381,0 0.47619,0 0.71429,0 0.23809,0 0.50132,0.1065 0.71428,0 0.30117,-0.1506 0.41312,-0.5637 0.71429,-0.7143 0.21296,-0.1065 0.47619,0 0.71428,0 0.2381,0 0.47619,0 0.71429,0 1.42857,0 2.85714,0 4.28571,0 0.33679,0 3.53906,-0.032 3.57143,0 0.16836,0.1684 -0.16836,0.5459 0,0.7143 0.16836,0.1683 0.54593,-0.1684 0.71429,0 0.16836,0.1683 -0.16836,0.5459 0,0.7143 0.16836,0.1683 0.54592,-0.1684 0.71428,0 0.16836,0.1683 -0.16836,0.5459 0,0.7143 0.33672,0.3367 1.09186,-0.3368 1.42857,0 0.16836,0.1683 -0.16835,0.5459 0,0.7142 0.16836,0.1684 0.54593,-0.1683 0.71429,0 0.16836,0.1684 -0.16836,0.546 0,0.7143 0.33672,0.3367 1.09185,-0.3367 1.42857,0 0.33672,0.3367 -0.33672,1.0919 0,1.4286 0.16836,0.1684 0.54593,-0.1684 0.71429,0 0.16836,0.1684 -0.16836,0.5459 0,0.7143 0.16836,0.1683 0.54592,-0.1684 0.71428,0 0.16836,0.1683 -0.16836,0.5459 0,0.7143 0.16836,0.1683 0.54593,-0.1684 0.71429,0 0.16836,0.1683 -0.10648,0.5013 0,0.7143 0.15058,0.3011 0.5637,0.4131 0.71428,0.7142 0.10648,0.213 -0.16835,0.546 0,0.7143 0.16836,0.1684 0.50133,-0.1065 0.71429,0 0.60234,0.3012 0.82623,1.1274 1.42857,1.4286 0.21296,0.1065 0.54593,-0.1684 0.71429,0 0.16836,0.1684 -0.16836,0.5459 0,0.7143 0.16836,0.1683 0.54592,-0.1684 0.71428,0 0.16836,0.1683 -0.16836,0.5459 0,0.7143 0.16836,0.1683 0.54593,-0.1684 0.71429,0 0.16836,0.1683 -0.16836,0.5459 0,0.7143 0.33672,0.3367 1.09185,-0.3368 1.42857,0 0.16836,0.1683 -0.16836,0.5459 0,0.7142 0.33672,0.3368 1.09185,-0.3367 1.42857,0 0.16836,0.1684 -0.16836,0.546 0,0.7143 0.16836,0.1684 0.54593,-0.1683 0.71429,0 0.16836,0.1684 -0.16836,0.546 0,0.7143 0.33672,0.3367 1.09185,-0.3367 1.42857,0 0.16836,0.1684 -0.16836,0.5459 0,0.7143 0.33672,0.3367 1.09185,-0.3367 1.42857,0 0.16836,0.1684 -0.16836,0.5459 0,0.7143 0.16836,0.1683 0.54593,-0.1684 0.71429,0 0.16835,0.1683 -0.16836,0.5459 0,0.7143 0.16835,0.1683 0.54592,-0.1684 0.71428,0 0.16836,0.1683 -0.16836,0.5459 0,0.7143 0.16836,0.1683 0.54593,-0.1684 0.71429,0 0.16836,0.1683 -0.16836,0.5459 0,0.7142 0.33672,0.3368 1.09185,-0.3367 1.42857,0 0.16836,0.1684 -0.16836,0.546 0,0.7143 0.16836,0.1684 0.54593,-0.1683 0.71428,0 0.16836,0.1684 -0.16835,0.546 0,0.7143 0.33672,0.3367 1.09186,-0.3367 1.42858,0 0.16835,0.1684 -0.16836,0.5459 0,0.7143 0.33671,0.3367 1.09185,-0.3367 1.42857,0 0.16836,0.1684 -0.16836,0.5459 0,0.7143 0.16836,0.1683 0.54592,-0.1684 0.71428,0 0.16836,0.1683 -0.16836,0.5459 0,0.7143 0.16836,0.1683 0.54593,-0.1684 0.71429,0 0.16836,0.1683 -0.16836,0.5459 0,0.7143 0.16836,0.1683 0.54593,-0.1684 0.71428,0 0.16836,0.1683 -0.16835,0.5459 0,0.7142 0.47762,0.4777 0.95096,-0.4776 1.42858,0 0.16835,0.1684 -0.16836,0.546 0,0.7143 0.33671,0.3367 1.09185,-0.3367 1.42857,0 0.16836,0.1684 -0.16836,0.546 0,0.7143 0.16836,0.1684 0.54592,-0.1683 0.71428,0 0.16836,0.1684 -0.16836,0.5459 0,0.7143 0.16836,0.1684 0.54593,-0.1684 0.71429,0 0.16836,0.1684 -0.16836,0.5459 0,0.7143 0.16836,0.1683 0.54593,-0.1684 0.71428,0 0.16836,0.1683 -0.16835,0.5459 0,0.7143 0.33672,0.3367 1.09186,-0.3367 1.42858,0 0.16835,0.1683 -0.16836,0.5459 0,0.7143 0.16835,0.1683 0.54592,-0.1684 0.71428,0 0.16836,0.1683 -0.16836,0.5459 0,0.7142 0.33672,0.3368 1.09186,-0.3367 1.42857,0 0.16836,0.1684 -0.16836,0.546 0,0.7143 0.16836,0.1684 0.54593,-0.1683 0.71429,0 0.16836,0.1684 -0.16836,0.546 0,0.7143 0.16836,0.1684 0.47619,0 0.71428,0 0.2381,0 0.4762,0 0.71429,0 1.90476,0 -0.23809,-0.2381 0.71429,0.7143 0.19544,0.1954 2.46965,-0.1937 2.85714,0 0.60234,0.3012 0.82623,1.1274 1.42857,1.4286 0.21296,0.1064 0.50133,-0.1065 0.71429,0 0.30117,0.1506 0.41311,0.5637 0.71428,0.7143 0.21296,0.1064 0.54593,-0.1684 0.71429,0 0.16836,0.1683 -0.16836,0.5459 0,0.7142 0.33672,0.3368 1.09185,-0.3367 1.42857,0 0.16836,0.1684 -0.16836,0.546 0,0.7143 0.47761,0.4776 0.95096,-0.4776 1.42857,0 0.16836,0.1684 -0.16836,0.546 0,0.7143 0.33672,0.3367 1.09185,-0.3367 1.42857,0 0.16836,0.1684 -0.16836,0.5459 0,0.7143 0.0324,0.032 3.23465,0 3.57143,0 0.2381,0 0.54593,-0.1684 0.71429,0 0.16835,0.1684 -0.16836,0.5459 0,0.7143 0.16835,0.1683 0.47619,0 0.71428,0 0.2381,0 0.47619,0 0.71429,0 0.17323,0 2.11988,-0.023 2.14285,0 0.16836,0.1683 -0.16835,0.5459 0,0.7143 0.14603,0.146 1.85965,-0.1416 2.14286,0 0.30117,0.1506 0.41312,0.5637 0.71429,0.7143 0.28321,0.1416 1.99683,-0.1461 2.14285,0 0.16836,0.1683 -0.16835,0.5459 0,0.7142 0.33672,0.3368 1.09186,-0.3367 1.42858,0 0.16835,0.1684 -0.16836,0.546 0,0.7143 0.17188,0.1719 2.68526,-0.1719 2.85714,0 0.95238,0.9524 -1.19048,0.7143 0.71428,0.7143"
       id="path8517"
       inkscape:connector-curvature="0" />
    <g
       id="g4084"
       transform="translate(-38,-4.5715366)">
      <rect
         y="75.209244"
         x="140.8459"
         height="19.984882"
         width="88.358025"
         id="rect5002-2-6-2"
         style="fill:none;stroke:#000000;stroke-width:2;stroke-miterlimit:4;stroke-dasharray:none" />
      <rect
         y="75.209244"
         x="235.80025"
         height="19.984882"
         width="88.358025"
         id="rect5002-2-6-2-1"
         style="fill:none;stroke:#000000;stroke-width:2;stroke-miterlimit:4;stroke-dasharray:none" />
      <rect
         y="75.209244"
         x="328.75458"
         height="19.984882"
         width="88.358025"
         id="rect5002-2-6-2-12"
         style="fill:none;stroke:#000000;stroke-width:2;stroke-miterlimit:4;stroke-dasharray:none" />
      <path
         id="path6978-2"
         d="m 433.30401,95.1887 -11.17988,0 0,-19.97402 0,0 11.17988,0"
         style="fill:none;stroke:#000000;stroke-width:2.02598119;stroke-miterlimit:4;stroke-dasharray:none"
         inkscape:connector-curvature="0" />
      <path
         id="path6978-2-3"
         d="m 526.9746,75.207 79.84698,0 0,19.98938 0,0 -79.84698,0"
         style="fill:none;stroke:#000000;stroke-width:2;stroke-miterlimit:4;stroke-dasharray:none"
         inkscape:connector-curvature="0" />
    </g>
    <path
       style="fill:none;stroke:#000000;stroke-width:2;stroke-linecap:butt;stroke-linejoin:miter;stroke-miterlimit:4;stroke-opacity:1;stroke-dasharray:none"
       d="m 490.47679,334.54944 c 2.18364,-0.5459 1.32614,-0.5051 2.52538,-0.5051 0.16836,0 0.38603,0.1191 0.50508,0 0.11904,-0.119 -0.11905,-0.386 0,-0.505 0.23809,-0.2381 0.77205,0.238 1.01015,0 0.11905,-0.1191 -0.11905,-0.3861 0,-0.5051 0.33684,-0.3369 0.67331,0.3368 1.01015,0 0.11905,-0.1191 -0.11905,-0.3861 0,-0.5051 0.12154,-0.1215 1.89877,0.1215 2.02031,0 0.11904,-0.119 -0.11905,-0.386 0,-0.5051 0.23809,-0.2381 0.77205,0.2381 1.01015,0 0.11905,-0.119 -0.11905,-0.386 0,-0.5051 0.23809,-0.238 0.77206,0.2381 1.01015,0 0.11905,-0.119 -0.11905,-0.386 0,-0.505 0.11905,-0.1191 0.38603,0.119 0.50508,0 0.11904,-0.1191 -0.11905,-0.3861 0,-0.5051 0.23809,-0.2381 0.70898,0.1506 1.01015,0 0.21296,-0.1065 0.29212,-0.3986 0.50508,-0.5051 0.15058,-0.075 0.35449,0.075 0.50507,0 0.21296,-0.1065 0.29212,-0.3986 0.50508,-0.5051 0.15058,-0.075 0.38603,0.1191 0.50508,0 0.11904,-0.119 -0.11905,-0.386 0,-0.505 0.11904,-0.1191 0.38602,0.119 0.50507,0 0.11905,-0.1191 -0.11905,-0.3861 0,-0.5051 0.2381,-0.2381 0.77206,0.2381 1.01015,0 0.11905,-0.1191 -0.11904,-0.386 0,-0.5051 0.2381,-0.2381 0.77206,0.2381 1.01016,0 0.11904,-0.119 -0.11905,-0.386 0,-0.5051 0.23809,-0.2381 0.77205,0.2381 1.01015,0 0.11905,-0.119 -0.11905,-0.386 0,-0.505 0.11905,-0.1191 0.38603,0.119 0.50508,0 0.11904,-0.1191 -0.11905,-0.3861 0,-0.5051 0.25253,-0.2526 1.26269,0.2525 1.51522,0 0.11905,-0.1191 -0.11904,-0.386 0,-0.5051 0.11905,-0.119 0.38603,0.1191 0.50508,0 0.11905,-0.119 -0.11905,-0.386 0,-0.5051 0.2381,-0.2381 0.77206,0.2381 1.01015,0 0.11905,-0.119 -0.11904,-0.386 0,-0.505 0.25254,-0.2526 1.26269,0.2525 1.51523,0 0.11905,-0.1191 -0.11905,-0.3861 0,-0.5051 0.25254,-0.2526 1.26269,0.2525 1.51523,0 0.11905,-0.1191 -0.11905,-0.386 0,-0.5051 0.25254,-0.2525 1.26269,0.2525 1.51523,0 0.11905,-0.119 -0.11905,-0.386 0,-0.5051 0.25254,-0.2525 1.26269,0.2526 1.51523,0 0.11905,-0.119 -0.11905,-0.386 0,-0.505 0.23809,-0.2381 0.77206,0.238 1.01015,0 0.11905,-0.1191 -0.11905,-0.3861 0,-0.5051 0.25254,-0.2526 1.26269,0.2525 1.51523,0 0.11905,-0.1191 -0.11905,-0.3861 0,-0.5051 0.33684,-0.3368 0.67331,0.3368 1.01015,0 0.11905,-0.119 -0.11905,-0.386 0,-0.5051 0.2381,-0.2381 0.77206,0.2381 1.01015,0 0.11905,-0.119 -0.11904,-0.386 0,-0.5051 0.25254,-0.2525 1.2627,0.2526 1.51523,0 0.11905,-0.119 -0.11904,-0.386 0,-0.505 0.2381,-0.2381 0.77206,0.2381 1.01016,0 0.11904,-0.1191 -0.11905,-0.3861 0,-0.5051 0.25253,-0.2525 1.26269,0.2525 1.51522,0 0.11905,-0.1191 -0.11904,-0.386 0,-0.5051 0.33685,-0.3368 0.67332,0.3369 1.01016,0 0.11904,-0.119 -0.11905,-0.386 0,-0.5051 0.25254,-0.2525 1.26269,0.2526 1.51523,0 0.11904,-0.119 -0.11905,-0.386 0,-0.505 0.23809,-0.2381 0.77205,0.2381 1.01015,0 0.11905,-0.1191 -0.11905,-0.3861 0,-0.5051 0.25254,-0.2525 1.26269,0.2525 1.51523,0 0.11905,-0.1191 -0.11905,-0.386 0,-0.5051 0.23809,-0.2381 0.77205,0.2381 1.01015,0 0.11905,-0.119 -0.11905,-0.386 0,-0.5051 0.33684,-0.3368 0.67331,0.3369 1.01015,0 0.11905,-0.119 -0.11905,-0.386 0,-0.505 0.25254,-0.2526 1.26269,0.2525 1.51523,0 0.11905,-0.1191 -0.11905,-0.3861 0,-0.5051 0.11905,-0.1191 0.35449,0.075 0.50508,0 0.21296,-0.1065 0.29212,-0.3986 0.50507,-0.5051 0.15059,-0.075 0.38603,0.1191 0.50508,0 0.11905,-0.119 -0.11905,-0.386 0,-0.5051 0.11905,-0.119 0.38603,0.1191 0.50508,0 0.11904,-0.119 -0.11905,-0.386 0,-0.505 0.23809,-0.2381 0.77205,0.2381 1.01015,0 0.11905,-0.1191 -0.11905,-0.3861 0,-0.5051 0.11905,-0.1191 0.35449,0.075 0.50508,0 0.21295,-0.1065 0.29211,-0.3986 0.50507,-0.5051 0.30117,-0.1506 0.77206,0.2381 1.01015,0 0.11905,-0.119 -0.11904,-0.386 0,-0.5051 0.25254,-0.2525 1.26269,0.2526 1.51523,0 0.11905,-0.119 -0.11904,-0.386 0,-0.505 0.2381,-0.2381 0.77206,0.238 1.01016,0 0.11904,-0.1191 -0.11905,-0.3861 0,-0.5051 0.11904,-0.1191 0.33671,0 0.50507,0 0.16836,0 0.33672,0 0.50508,0 0.12249,0 1.49898,-0.016 1.51523,0 0.11904,0.119 -0.11905,0.386 0,0.5051 0.11904,0.119 0.38603,-0.1191 0.50507,0 0.67344,0.6734 -0.84179,0.505 0.50508,0.505 1.34687,0 -0.16836,-0.1683 0.50508,0.5051 0.12153,0.1215 1.89876,-0.1215 2.0203,0 0.11905,0.1191 -0.11905,0.386 0,0.5051 0.11905,0.119 0.33672,0 0.50508,0 0.84179,0 1.68358,0 2.52538,0 0.16836,0 0.38603,-0.1191 0.50507,0 0.11905,0.119 -0.11904,0.386 0,0.5051 0.11905,0.119 0.33672,0 0.50508,0 0.16836,0 0.33672,0 0.50508,0 1.34687,0 2.69374,0 4.04061,0 1.01015,0 2.0203,0 3.03046,0 0.16835,0 0.38602,0.119 0.50507,0 0.11905,-0.1191 -0.11905,-0.3861 0,-0.5051 0.1564,-0.1564 2.36899,0.1564 2.52538,0 0.11905,-0.1191 -0.11904,-0.386 0,-0.5051 0.10326,-0.1033 1.31497,0.1001 1.51523,0 0.21296,-0.1065 0.29212,-0.3986 0.50508,-0.5051 0.20026,-0.1001 1.41197,0.1033 1.51523,0 0.11904,-0.119 -0.11905,-0.386 0,-0.505 0.23809,-0.2381 0.70898,0.1505 1.01015,0 0.21296,-0.1065 0.29212,-0.3986 0.50508,-0.5051 0.30116,-0.1506 0.70898,0.1506 1.01015,0 0.21296,-0.1065 0.29212,-0.3986 0.50507,-0.5051 0.30117,-0.1506 0.70899,0.1506 1.01016,0 0.21296,-0.1065 0.29211,-0.3986 0.50507,-0.5051 0.20026,-0.1001 1.41198,0.1033 1.51523,0 0.11905,-0.119 -0.11905,-0.386 0,-0.5051 0.25254,-0.2525 1.26269,0.2526 1.51523,0 0.11905,-0.119 -0.11905,-0.386 0,-0.505 0.11905,-0.1191 0.38603,0.119 0.50508,0 0.11904,-0.1191 -0.11905,-0.3861 0,-0.5051 0.23809,-0.2381 0.77205,0.2381 1.01015,0 0.11905,-0.1191 -0.11905,-0.386 0,-0.5051 0.23809,-0.2381 0.77206,0.2381 1.01015,0 0.11905,-0.119 -0.11905,-0.386 0,-0.5051 0.11905,-0.119 0.38603,0.1191 0.50508,0 0.11905,-0.119 -0.11905,-0.386 0,-0.505 0.11905,-0.1191 0.38603,0.119 0.50507,0 0.11905,-0.1191 -0.11904,-0.3861 0,-0.5051 0.2381,-0.2381 0.77206,0.2381 1.01016,0 0.11904,-0.1191 -0.11905,-0.386 0,-0.5051 0.23809,-0.2381 0.77205,0.2381 1.01015,0 0.11905,-0.119 -0.11905,-0.386 0,-0.5051 0.11905,-0.119 0.38603,0.1191 0.50508,0 0.11904,-0.119 -0.11905,-0.386 0,-0.505 0.11904,-0.1191 0.35449,0.075 0.50507,0 0.21296,-0.1065 0.29212,-0.3986 0.50508,-0.5051 0.15058,-0.075 0.38603,0.119 0.50507,0 0.11905,-0.1191 -0.11904,-0.386 0,-0.5051 0.2381,-0.2381 0.77206,0.2381 1.01016,0 0.11904,-0.119 -0.11905,-0.386 0,-0.5051 0.33684,-0.3368 0.67331,0.3369 1.01015,0 0,-1.3468 -0.16836,0.1684 0.50508,-0.505 0.11904,-0.1191 -0.11905,-0.3861 0,-0.5051 0.23809,-0.2381 0.77205,0.2381 1.01015,0 0.11905,-0.1191 -0.11905,-0.3861 0,-0.5051 0.23809,-0.2381 0.77206,0.2381 1.01015,0 0.11905,-0.119 -0.11905,-0.386 0,-0.5051 0.2381,-0.2381 0.77206,0.2381 1.01015,0 0.11905,-0.119 -0.11904,-0.386 0,-0.5051 0.11905,-0.119 0.38603,0.1191 0.50508,0 0.11905,-0.119 -0.11905,-0.386 0,-0.505 0.11905,-0.1191 0.38603,0.119 0.50508,0 0.11904,-0.1191 -0.11905,-0.3861 0,-0.5051 0.23809,-0.2381 0.77205,0.2381 1.01015,0 0.11905,-0.1191 -0.11905,-0.386 0,-0.5051 0.23809,-0.2381 0.77206,0.2381 1.01015,0 0.11905,-0.119 -0.11905,-0.386 0,-0.5051 0.2381,-0.2381 0.77206,0.2381 1.01015,0 0.11905,-0.119 -0.11904,-0.386 0,-0.505 0.11905,-0.1191 0.38603,0.119 0.50508,0 0.11905,-0.1191 -0.11905,-0.3861 0,-0.5051 0.2381,-0.2381 0.77206,0.2381 1.01015,0 0.11905,-0.1191 -0.11904,-0.386 0,-0.5051 0.2381,-0.2381 0.77206,0.2381 1.01016,0 0.11904,-0.119 -0.11905,-0.386 0,-0.5051 0.11904,-0.119 0.38602,0.1191 0.50507,0 0.11905,-0.119 -0.11905,-0.386 0,-0.505 0.2381,-0.2381 0.77206,0.2381 1.01015,0 0.11905,-0.1191 -0.11904,-0.3861 0,-0.5051 0.25254,-0.2526 1.26269,0.2525 1.51523,0 0.11905,-0.1191 -0.11904,-0.386 0,-0.5051 0.25254,-0.2525 1.26269,0.2525 1.51523,0 0.11905,-0.119 -0.11905,-0.386 0,-0.5051 0.12154,-0.1215 1.89877,0.1216 2.02031,0 0.11904,-0.119 -0.11905,-0.386 0,-0.505 0.12153,-0.1216 1.89876,0.1215 2.0203,0 0.11905,-0.1191 -0.11905,-0.3861 0,-0.5051 0.10326,-0.1033 1.31497,0.1001 1.51523,0 0.21296,-0.1065 0.29212,-0.3986 0.50508,-0.5051 0.1328,-0.066 1.75619,0 2.0203,0 1.17851,0 2.35702,0 3.53554,0 0.16835,0 0.38602,-0.119 0.50507,0 0.11905,0.1191 -0.11905,0.386 0,0.5051 0.12154,0.1215 1.89877,-0.1216 2.02031,0 0.11905,0.119 -0.11905,0.386 0,0.5051 0.0162,0.016 1.39273,0 1.51523,0 2.0203,0 4.04061,0 6.06091,0 0.16836,0 0.33672,0 0.50508,0 0.16836,0 0.38603,0.119 0.50507,0 0.11905,-0.1191 -0.11904,-0.3861 0,-0.5051 0.2381,-0.2381 0.77206,0.2381 1.01016,0 0.11904,-0.1191 -0.11905,-0.386 0,-0.5051 0.15639,-0.1564 2.36898,0.1564 2.52538,0 0.11905,-0.119 -0.11905,-0.386 0,-0.5051 0.25254,-0.2525 1.26269,0.2526 1.51523,0 0.11904,-0.119 -0.11905,-0.386 0,-0.505 0.15639,-0.1564 2.36898,0.1563 2.52538,0 0.11905,-0.1191 -0.11905,-0.3861 0,-0.5051 0.23809,-0.2381 0.70898,0.1506 1.01015,0 0.21296,-0.1065 0.29212,-0.3986 0.50508,-0.5051 0.15058,-0.075 0.38603,0.119 0.50507,0 0.11905,-0.119 -0.11904,-0.386 0,-0.5051 0.11905,-0.119 0.35449,0.075 0.50508,0 0.21296,-0.1065 0.29212,-0.3986 0.50508,-0.5051 0.30117,-0.1505 0.77205,0.2381 1.01015,0 0.11905,-0.119 -0.11905,-0.386 0,-0.505 0.11905,-0.1191 0.35449,0.075 0.50507,0 0.21296,-0.1065 0.29212,-0.3986 0.50508,-0.5051 0.15059,-0.075 0.35449,0.075 0.50508,0 0.21296,-0.1065 0.29211,-0.3986 0.50507,-0.5051 0.20026,-0.1001 1.41198,0.1033 1.51523,0 0.11905,-0.119 -0.11905,-0.386 0,-0.5051 0.17729,-0.1772 2.17651,0.1745 2.52538,0 0.21296,-0.1064 0.29212,-0.3986 0.50508,-0.505 0.34887,-0.1745 2.34809,0.1773 2.52538,0 0.11905,-0.1191 -0.11905,-0.3861 0,-0.5051 0.11905,-0.1191 0.33672,0 0.50508,0 1.17851,0 2.35702,0 3.53553,0 2.35702,0 4.71405,0 7.07107,0 0.16836,0 0.33672,0 0.50508,0 0.16835,0 0.38602,-0.1191 0.50507,0 0.11905,0.119 -0.11905,0.386 0,0.5051 0.11905,0.119 0.38603,-0.1191 0.50508,0 0.11905,0.119 -0.11905,0.386 0,0.505 0.11905,0.1191 0.38603,-0.119 0.50507,0 0.11905,0.1191 -0.11904,0.3861 0,0.5051 0.33685,0.3369 0.67331,-0.3368 1.01016,0 0.11904,0.1191 -0.11905,0.386 0,0.5051 0.11904,0.119 0.38603,-0.1191 0.50507,0 0.11905,0.119 -0.11904,0.386 0,0.5051 0.25254,0.2525 1.26269,-0.2526 1.51523,0 0.11905,0.119 -0.11905,0.386 0,0.505 0.2381,0.2381 0.77206,-0.238 1.01015,0 0.67344,0.6735 -0.84179,0.5051 0.50508,0.5051 1.34687,0 -0.16836,-0.1683 0.50508,0.5051 0.12153,0.1215 1.89877,-0.1215 2.0203,0 0.11905,0.119 -0.11905,0.386 0,0.5051 0.2381,0.2381 0.77206,-0.2381 1.01015,0 0.11905,0.119 -0.11904,0.386 0,0.5051 0.1564,0.1563 2.36899,-0.1564 2.52539,0 0.11904,0.119 -0.11905,0.386 0,0.505 0.0229,0.023 2.28724,0 2.52538,0 0.18548,0 1.99998,0.02 2.0203,0 0.11905,-0.119 -0.11905,-0.386 0,-0.505 0.1564,-0.1564 2.36899,0.1563 2.52538,0 0.11905,-0.1191 -0.11904,-0.3861 0,-0.5051 0.1564,-0.1564 2.36899,0.1564 2.52539,0 0.11904,-0.1191 -0.11905,-0.3861 0,-0.5051 0.12153,-0.1215 1.89876,0.1215 2.0203,0 0.11905,-0.119 -0.11905,-0.386 0,-0.5051 0.12154,-0.1215 1.89877,0.1216 2.02031,0 0.11904,-0.119 -0.11905,-0.386 0,-0.5051 0.25253,-0.2525 1.26269,0.2526 1.51522,0 0.11905,-0.119 -0.11904,-0.386 0,-0.505 0.1382,-0.1382 1.74631,0.137 2.02031,0 0.21296,-0.1065 0.29212,-0.3986 0.50508,-0.5051 0.15371,-0.077 1.28776,0 1.51522,0 1.34687,0 2.69374,0 4.04061,0 0.16836,0 0.33672,0 0.50508,0 0.16836,0 0.38603,0.119 0.50508,0 0.11904,-0.1191 -0.11905,-0.386 0,-0.5051 0.11904,-0.119 0.33671,0 0.50507,0 0.16836,0 0.33672,0 0.50508,0 1.51523,0 3.03046,0 4.54569,0 0.16835,0 0.33671,0 0.50507,0 0.16836,0 0.38603,0.1191 0.50508,0 0.11905,-0.119 -0.11905,-0.386 0,-0.5051 0.12154,-0.1215 1.89877,0.1216 2.0203,0 0.11905,-0.119 -0.11904,-0.386 0,-0.505 0.1564,-0.1564 2.36899,0.1564 2.52539,0 0.11904,-0.1191 -0.11905,-0.3861 0,-0.5051 0.11904,-0.1191 0.33671,0 0.50507,0 0.16836,0 0.33672,0 0.50508,0 0.84179,0 1.68359,0 2.52538,0 0.16836,0 0.38603,-0.1191 0.50508,0 0.11904,0.119 -0.11905,0.386 0,0.5051 0.25253,0.2525 1.26269,-0.2526 1.51522,0 0.11905,0.119 -0.11904,0.386 0,0.505 0.11905,0.1191 0.33672,0 0.50508,0 0.16836,0 0.33672,0 0.50508,0 1.34687,0 -0.16836,-0.1683 0.50507,0.5051 0.25254,0.2526 1.26269,-0.2525 1.51523,0 0.11905,0.1191 -0.11905,0.386 0,0.5051 0.0229,0.023 2.28724,0 2.52538,0 0.16836,0 0.38603,-0.1191 0.50508,0 0.11905,0.119 -0.11905,0.386 0,0.5051 0.11905,0.119 0.33672,0 0.50508,0 1.34687,0 2.69374,0 4.04061,0 0.18548,0 1.99998,0.02 2.0203,0 0.11905,-0.1191 -0.11905,-0.3861 0,-0.5051 0.25254,-0.2525 1.26269,0.2525 1.51523,0 0.11905,-0.1191 -0.11905,-0.386 0,-0.5051 0.25254,-0.2525 1.26269,0.2526 1.51523,0 0.11905,-0.119 -0.11905,-0.386 0,-0.5051 0.12154,-0.1215 1.89877,0.1216 2.0203,0 0.11905,-0.119 -0.11904,-0.386 0,-0.505 0.25254,-0.2526 1.26269,0.2525 1.51523,0 0.11905,-0.1191 -0.11905,-0.3861 0,-0.5051 0.25254,-0.2525 1.26269,0.2525 1.51523,0 0.11905,-0.1191 -0.11905,-0.386 0,-0.5051 0.0162,-0.016 1.39274,0 1.51523,0 3.19882,0 6.39763,0 9.59645,0"
       id="path8659"
       inkscape:connector-curvature="0" />
    <path
       style="fill:none;stroke:#000000;stroke-width:2;stroke-miterlimit:4;stroke-dasharray:none"
       d="m 693.87277,96.973301 50.44675,0 0,20.459459 -50.44675,0 z"
       id="rect5002-2-6-2-7-1-2"
       inkscape:connector-curvature="0" />
    <path
       style="fill:none;stroke:#000000;stroke-width:2;stroke-miterlimit:4;stroke-dasharray:none"
       d="m 573.38508,123.99075 36.52716,0 0,20.6819 -36.52716,0 z"
       id="rect5002-2-6-2-7"
       inkscape:connector-curvature="0" />
    <path
       style="fill:none;stroke:#000000;stroke-width:2;stroke-miterlimit:4;stroke-dasharray:none"
       d="m 613.69548,123.99075 36.52716,0 0,20.6819 -36.52716,0 z"
       id="rect5002-2-6-2-7-5"
       inkscape:connector-curvature="0" />
    <path
       style="fill:none;stroke:#000000;stroke-width:2;stroke-miterlimit:4;stroke-dasharray:none"
       d="m 655.13203,123.99065 36.52716,0 0,20.6819 -36.52716,0 z"
       id="rect5002-2-6-2-7-5-0"
       inkscape:connector-curvature="0" />
    <text
       xml:space="preserve"
       style="font-size:20px;font-style:italic;font-variant:normal;font-weight:normal;font-stretch:normal;line-height:125%;letter-spacing:0px;word-spacing:0px;fill:#000000;fill-opacity:1;stroke:none;font-family:Liberation Sans;-inkscape-font-specification:Sans Italic"
       x="-0.50291651"
       y="42.571255"
       id="text3398-7"
       sodipodi:linespacing="125%"><tspan
         sodipodi:role="line"
         id="tspan3400-1"
         x="-0.50291651"
         y="42.571255"
         style="-inkscape-font-specification:Linux Biolinum O Italic;font-family:Linux Biolinum O;font-weight:normal;font-style:italic;font-stretch:normal;font-variant:normal">w/o crosslayer information</tspan></text>
    <text
       xml:space="preserve"
       style="font-size:20px;font-style:normal;font-variant:normal;font-weight:normal;font-stretch:normal;line-height:125%;letter-spacing:0px;word-spacing:0px;fill:#000000;fill-opacity:1;stroke:none;font-family:Liberation Sans;-inkscape-font-specification:Liberation Sans"
       x="-0.35643214"
       y="14.548854"
       id="text5004-7"
       sodipodi:linespacing="125%"><tspan
         sodipodi:role="line"
         id="tspan5006-5"
         x="-0.35643214"
         y="14.548854"
         style="-inkscape-font-specification:Linux Biolinum O;font-family:Linux Biolinum O;font-weight:normal;font-style:normal;font-stretch:normal;font-variant:normal">adaptive video streaming</tspan></text>
    <path
       style="fill:none;stroke:#000000;stroke-width:1.5;stroke-linecap:butt;stroke-linejoin:miter;stroke-miterlimit:4;stroke-opacity:1;stroke-dasharray:none;marker-start:url(#Arrow2Mstart);marker-end:url(#marker3838)"
       d="m 457.31801,344.81124 35.13329,0"
       id="path3059"
       inkscape:connector-curvature="0" />
    <text
       xml:space="preserve"
       style="font-size:16px;font-style:normal;font-variant:normal;font-weight:normal;font-stretch:normal;line-height:125%;letter-spacing:0px;word-spacing:0px;fill:#000000;fill-opacity:1;stroke:none;font-family:Liberation Sans;-inkscape-font-specification:Sans"
       x="457.32553"
       y="362.57013"
       id="text5019"
       sodipodi:linespacing="125%"><tspan
         sodipodi:role="line"
         id="tspan5021"
         x="457.32553"
         y="362.57013"
         style="font-style:normal;font-variant:normal;font-weight:normal;font-stretch:normal;font-family:Linux Biolinum O;-inkscape-font-specification:Linux Biolinum O">video</tspan><tspan
         sodipodi:role="line"
         x="457.32553"
         y="382.57013"
         id="tspan5023"
         style="font-style:normal;font-variant:normal;font-weight:normal;font-stretch:normal;font-family:Linux Biolinum O;-inkscape-font-specification:Linux Biolinum O">stall</tspan></text>
    <path
       style="fill:#7f7f7f;fill-opacity:0.47154475;stroke:none"
       d="m 395.75897,51.610084 93.99359,0 0,283.902216 -93.99359,0 z"
       id="rect5229-7-0-1"
       inkscape:connector-curvature="0" />
    <path
       style="fill:none;stroke:#000000;stroke-width:2;stroke-linecap:butt;stroke-linejoin:miter;stroke-miterlimit:4;stroke-opacity:1;stroke-dasharray:none;marker-end:url(#Arrow2Mend)"
       d="m 48.302013,155.68052 694.358597,0"
       id="path3008-6-3"
       inkscape:connector-curvature="0" />
    <text
       xml:space="preserve"
       style="font-size:20px;font-style:normal;font-variant:normal;font-weight:normal;font-stretch:normal;line-height:125%;letter-spacing:0px;word-spacing:0px;fill:#000000;fill-opacity:1;stroke:none;font-family:Liberation Sans;-inkscape-font-specification:Liberation Sans"
       x="706.48676"
       y="177.05611"
       id="text4222-23-6"
       sodipodi:linespacing="125%"><tspan
         sodipodi:role="line"
         id="tspan4224-9-9"
         x="706.48676"
         y="177.05611"
         style="font-style:normal;font-variant:normal;font-weight:normal;font-stretch:normal;font-family:Linux Biolinum O;-inkscape-font-specification:Linux Biolinum O">time</tspan></text>
    <text
       xml:space="preserve"
       style="font-size:20px;font-style:normal;font-variant:normal;font-weight:normal;font-stretch:normal;line-height:125%;letter-spacing:0px;word-spacing:0px;fill:#000000;fill-opacity:1;stroke:none;font-family:Liberation Sans;-inkscape-font-specification:Liberation Sans"
       x="403.67529"
       y="205.8455"
       id="text4424-3-4"
       sodipodi:linespacing="125%"><tspan
         style="font-style:normal;font-variant:normal;font-weight:normal;font-stretch:normal;font-family:Linux Biolinum O;-inkscape-font-specification:Linux Biolinum O"
         sodipodi:role="line"
         id="tspan4426-45-9"
         x="403.67529"
         y="205.8455">handover</tspan><tspan
         style="font-style:normal;font-variant:normal;font-weight:normal;font-stretch:normal;font-family:Linux Biolinum O;-inkscape-font-specification:Linux Biolinum O"
         sodipodi:role="line"
         x="403.67529"
         y="230.8455"
         id="tspan4428-8-5">period</tspan></text>
    <path
       style="fill:none;stroke:#000000;stroke-width:2;stroke-linecap:butt;stroke-linejoin:miter;stroke-miterlimit:4;stroke-opacity:1;stroke-dasharray:none;marker-start:url(#StopL);marker-end:url(#StopL)"
       d="m 394.57557,155.66113 94.44927,0"
       id="path4432-2-0"
       inkscape:connector-curvature="0" />
    <text
       xml:space="preserve"
       style="font-size:20px;font-style:normal;font-variant:normal;font-weight:normal;font-stretch:normal;line-height:125%;letter-spacing:0px;word-spacing:0px;fill:#000000;fill-opacity:1;stroke:none;font-family:Liberation Sans;-inkscape-font-specification:Liberation Sans"
       x="-155.86519"
       y="42.460999"
       id="text5008-4-78-9"
       sodipodi:linespacing="125%"
       transform="matrix(0,-1,1,0,0,0)"><tspan
         sodipodi:role="line"
         x="-155.86519"
         y="42.460999"
         style="font-size:18px;font-style:normal;font-variant:normal;font-weight:normal;font-stretch:normal;font-family:Linux Biolinum O;-inkscape-font-specification:Linux Biolinum O"
         id="tspan7393-2">quality levels</tspan></text>
    <text
       xml:space="preserve"
       style="font-size:20px;font-style:normal;font-variant:normal;font-weight:normal;font-stretch:normal;line-height:125%;letter-spacing:0px;word-spacing:0px;fill:#000000;fill-opacity:1;stroke:none;font-family:Liberation Sans;-inkscape-font-specification:Liberation Sans"
       x="415.11066"
       y="22.537977"
       id="text5008-4-9-4-6"
       sodipodi:linespacing="125%"><tspan
         sodipodi:role="line"
         x="415.11066"
         y="22.537977"
         style="font-size:16px;font-style:normal;font-variant:normal;font-weight:normal;font-stretch:normal;font-family:Linux Biolinum O;-inkscape-font-specification:Linux Biolinum O"
         id="tspan5101-6-4-6">affected</tspan><tspan
         sodipodi:role="line"
         x="415.11066"
         y="42.537979"
         style="font-size:16px;font-style:normal;font-variant:normal;font-weight:normal;font-stretch:normal;font-family:Linux Biolinum O;-inkscape-font-specification:Linux Biolinum O"
         id="tspan6865-5-0">requests</tspan></text>
    <text
       xml:space="preserve"
       style="font-size:20px;font-style:normal;font-variant:normal;font-weight:normal;font-stretch:normal;line-height:125%;letter-spacing:0px;word-spacing:0px;fill:#000000;fill-opacity:1;stroke:none;font-family:Liberation Sans;-inkscape-font-specification:Liberation Sans"
       x="-323.48303"
       y="41.224998"
       id="text5008-4-78-8-8"
       sodipodi:linespacing="125%"
       transform="matrix(0,-1,1,0,0,0)"><tspan
         sodipodi:role="line"
         x="-323.48303"
         y="41.224998"
         style="font-size:16px;font-style:normal;font-variant:normal;font-weight:normal;font-stretch:normal;font-family:Linux Biolinum O;-inkscape-font-specification:Linux Biolinum O"
         id="tspan7469-1">video buffer</tspan></text>
    <path
       style="fill:none;stroke:#000000;stroke-width:2;stroke-linecap:butt;stroke-linejoin:miter;stroke-miterlimit:4;stroke-opacity:1;stroke-dasharray:none;marker-end:url(#Arrow2Mend-02)"
       d="m 48.301996,335.29413 694.358684,0"
       id="path3008-6-5-8"
       inkscape:connector-curvature="0" />
    <path
       style="fill:none;stroke:#000000;stroke-width:2;stroke-linecap:butt;stroke-linejoin:miter;stroke-miterlimit:4;stroke-opacity:1;stroke-dasharray:none;marker-end:url(#Arrow2Mend-02)"
       d="m 48.305542,335.2941 0,-104.0457"
       id="path7495-3"
       inkscape:connector-curvature="0" />
    <text
       xml:space="preserve"
       style="font-size:20px;font-style:normal;font-variant:normal;font-weight:normal;font-stretch:normal;line-height:125%;letter-spacing:0px;word-spacing:0px;fill:#000000;fill-opacity:1;stroke:none;font-family:Liberation Sans;-inkscape-font-specification:Liberation Sans"
       x="64.24826"
       y="84.318153"
       id="text5008-8-6"
       sodipodi:linespacing="125%"><tspan
         sodipodi:role="line"
         id="tspan5010-3-9"
         x="64.24826"
         y="84.318153"
         style="font-size:16px;font-style:normal;font-variant:normal;font-weight:normal;font-stretch:normal;font-family:Linux Biolinum O;-inkscape-font-specification:Linux Biolinum O">high</tspan></text>
    <text
       xml:space="preserve"
       style="font-size:20px;font-style:normal;font-variant:normal;font-weight:normal;font-stretch:normal;line-height:125%;letter-spacing:0px;word-spacing:0px;fill:#000000;fill-opacity:1;stroke:none;font-family:Liberation Sans;-inkscape-font-specification:Liberation Sans"
       x="64.376259"
       y="112.70703"
       id="text5008-8-5-2"
       sodipodi:linespacing="125%"><tspan
         sodipodi:role="line"
         id="tspan5010-3-8-2"
         x="64.376259"
         y="112.70703"
         style="font-size:16px;font-style:normal;font-variant:normal;font-weight:normal;font-stretch:normal;font-family:Linux Biolinum O;-inkscape-font-specification:Linux Biolinum O">medium</tspan></text>
    <text
       xml:space="preserve"
       style="font-size:20px;font-style:normal;font-variant:normal;font-weight:normal;font-stretch:normal;line-height:125%;letter-spacing:0px;word-spacing:0px;fill:#000000;fill-opacity:1;stroke:none;font-family:Liberation Sans;-inkscape-font-specification:Liberation Sans"
       x="64.24826"
       y="139.83565"
       id="text5008-8-9-0"
       sodipodi:linespacing="125%"><tspan
         sodipodi:role="line"
         id="tspan5010-3-3-8"
         x="64.24826"
         y="139.83565"
         style="font-size:16px;font-style:normal;font-variant:normal;font-weight:normal;font-stretch:normal;font-family:Linux Biolinum O;-inkscape-font-specification:Linux Biolinum O">low</tspan></text>
  </g>
</svg>
