<?xml version="1.0" encoding="UTF-8" standalone="no"?>
<!-- Created with Inkscape (http://www.inkscape.org/) -->

<svg
   xmlns:dc="http://purl.org/dc/elements/1.1/"
   xmlns:cc="http://creativecommons.org/ns#"
   xmlns:rdf="http://www.w3.org/1999/02/22-rdf-syntax-ns#"
   xmlns:svg="http://www.w3.org/2000/svg"
   xmlns="http://www.w3.org/2000/svg"
   xmlns:sodipodi="http://sodipodi.sourceforge.net/DTD/sodipodi-0.dtd"
   xmlns:inkscape="http://www.inkscape.org/namespaces/inkscape"
   width="210mm"
   height="297mm"
   id="svg3215"
   version="1.1"
   inkscape:version="0.48.5 r10040"
   sodipodi:docname="adaptive-streaming-cl.svg">
  <defs
     id="defs3217">
    <marker
       inkscape:stockid="Arrow2Mend"
       orient="auto"
       refY="0"
       refX="0"
       id="Arrow2Mend"
       style="overflow:visible">
      <path
         inkscape:connector-curvature="0"
         id="path3809"
         style="fill-rule:evenodd;stroke-width:0.625;stroke-linejoin:round"
         d="M 8.7185878,4.0337352 -2.2072895,0.01601326 8.7185884,-4.0017078 c -1.7454984,2.3720609 -1.7354408,5.6174519 -6e-7,8.035443 z"
         transform="scale(-0.6,-0.6)" />
    </marker>
    <marker
       inkscape:stockid="StopL"
       orient="auto"
       refY="0"
       refX="0"
       id="StopL"
       style="overflow:visible">
      <path
         inkscape:connector-curvature="0"
         id="path3951"
         d="M 0,5.65 0,-5.65"
         style="fill:none;stroke:#000000;stroke-width:1pt"
         transform="scale(0.8,0.8)" />
    </marker>
    <marker
       inkscape:stockid="StopL"
       orient="auto"
       refY="0"
       refX="0"
       id="marker3237"
       style="overflow:visible">
      <path
         inkscape:connector-curvature="0"
         id="path3239"
         d="M 0,5.65 0,-5.65"
         style="fill:none;stroke:#000000;stroke-width:1pt"
         transform="scale(0.8,0.8)" />
    </marker>
    <marker
       inkscape:stockid="Arrow2Mend"
       orient="auto"
       refY="0"
       refX="0"
       id="marker3241"
       style="overflow:visible">
      <path
         inkscape:connector-curvature="0"
         id="path3243"
         style="fill-rule:evenodd;stroke-width:0.625;stroke-linejoin:round"
         d="M 8.7185878,4.0337352 -2.2072895,0.01601326 8.7185884,-4.0017078 c -1.7454984,2.3720609 -1.7354408,5.6174519 -6e-7,8.035443 z"
         transform="scale(-0.6,-0.6)" />
    </marker>
    <marker
       inkscape:stockid="Arrow2Mend"
       orient="auto"
       refY="0"
       refX="0"
       id="Arrow2Mend-5"
       style="overflow:visible">
      <path
         inkscape:connector-curvature="0"
         id="path3809-4"
         style="fill-rule:evenodd;stroke-width:0.625;stroke-linejoin:round"
         d="M 8.7185878,4.0337352 -2.2072895,0.01601326 8.7185884,-4.0017078 c -1.7454984,2.3720609 -1.7354408,5.6174519 -6e-7,8.035443 z"
         transform="scale(-0.6,-0.6)" />
    </marker>
    <marker
       inkscape:stockid="StopL"
       orient="auto"
       refY="0"
       refX="0"
       id="StopL-6"
       style="overflow:visible">
      <path
         inkscape:connector-curvature="0"
         id="path3951-3"
         d="M 0,5.65 0,-5.65"
         style="fill:none;stroke:#000000;stroke-width:1pt"
         transform="scale(0.8,0.8)" />
    </marker>
    <marker
       inkscape:stockid="StopL"
       orient="auto"
       refY="0"
       refX="0"
       id="marker3420"
       style="overflow:visible">
      <path
         inkscape:connector-curvature="0"
         id="path3422"
         d="M 0,5.65 0,-5.65"
         style="fill:none;stroke:#000000;stroke-width:1pt"
         transform="scale(0.8,0.8)" />
    </marker>
    <marker
       inkscape:stockid="Arrow2Mend"
       orient="auto"
       refY="0"
       refX="0"
       id="marker3424"
       style="overflow:visible">
      <path
         inkscape:connector-curvature="0"
         id="path3426"
         style="fill-rule:evenodd;stroke-width:0.625;stroke-linejoin:round"
         d="M 8.7185878,4.0337352 -2.2072895,0.01601326 8.7185884,-4.0017078 c -1.7454984,2.3720609 -1.7354408,5.6174519 -6e-7,8.035443 z"
         transform="scale(-0.6,-0.6)" />
    </marker>
    <marker
       inkscape:stockid="Arrow2Mend"
       orient="auto"
       refY="0"
       refX="0"
       id="Arrow2Mend-3"
       style="overflow:visible">
      <path
         inkscape:connector-curvature="0"
         id="path3809-2"
         style="fill-rule:evenodd;stroke-width:0.625;stroke-linejoin:round"
         d="M 8.7185878,4.0337352 -2.2072895,0.01601326 8.7185884,-4.0017078 c -1.7454984,2.3720609 -1.7354408,5.6174519 -6e-7,8.035443 z"
         transform="scale(-0.6,-0.6)" />
    </marker>
    <marker
       inkscape:stockid="Arrow2Mend"
       orient="auto"
       refY="0"
       refX="0"
       id="Arrow2Mend-4"
       style="overflow:visible">
      <path
         inkscape:connector-curvature="0"
         id="path3809-26"
         style="fill-rule:evenodd;stroke-width:0.625;stroke-linejoin:round"
         d="M 8.7185878,4.0337352 -2.2072895,0.01601326 8.7185884,-4.0017078 c -1.7454984,2.3720609 -1.7354408,5.6174519 -6e-7,8.035443 z"
         transform="scale(-0.6,-0.6)" />
    </marker>
    <marker
       inkscape:stockid="StopL"
       orient="auto"
       refY="0"
       refX="0"
       id="StopL-3"
       style="overflow:visible">
      <path
         inkscape:connector-curvature="0"
         id="path3951-34"
         d="M 0,5.65 0,-5.65"
         style="fill:none;stroke:#000000;stroke-width:1pt"
         transform="scale(0.8,0.8)" />
    </marker>
    <marker
       inkscape:stockid="StopL"
       orient="auto"
       refY="0"
       refX="0"
       id="marker3832"
       style="overflow:visible">
      <path
         inkscape:connector-curvature="0"
         id="path3834"
         d="M 0,5.65 0,-5.65"
         style="fill:none;stroke:#000000;stroke-width:1pt"
         transform="scale(0.8,0.8)" />
    </marker>
    <marker
       inkscape:stockid="Arrow2Mend"
       orient="auto"
       refY="0"
       refX="0"
       id="Arrow2Mend-02"
       style="overflow:visible">
      <path
         inkscape:connector-curvature="0"
         id="path3809-1"
         style="fill-rule:evenodd;stroke-width:0.625;stroke-linejoin:round"
         d="M 8.7185878,4.0337352 -2.2072895,0.01601326 8.7185884,-4.0017078 c -1.7454984,2.3720609 -1.7354408,5.6174519 -6e-7,8.035443 z"
         transform="scale(-0.6,-0.6)" />
    </marker>
    <marker
       inkscape:stockid="Arrow2Mend"
       orient="auto"
       refY="0"
       refX="0"
       id="marker3838"
       style="overflow:visible">
      <path
         inkscape:connector-curvature="0"
         id="path3840"
         style="fill-rule:evenodd;stroke-width:0.625;stroke-linejoin:round"
         d="M 8.7185878,4.0337352 -2.2072895,0.01601326 8.7185884,-4.0017078 c -1.7454984,2.3720609 -1.7354408,5.6174519 -6e-7,8.035443 z"
         transform="scale(-0.6,-0.6)" />
    </marker>
    <marker
       inkscape:stockid="Arrow2Mend"
       orient="auto"
       refY="0"
       refX="0"
       id="Arrow2Mend-1"
       style="overflow:visible">
      <path
         inkscape:connector-curvature="0"
         id="path3809-0"
         style="fill-rule:evenodd;stroke-width:0.625;stroke-linejoin:round"
         d="M 8.7185878,4.0337352 -2.2072895,0.01601326 8.7185884,-4.0017078 c -1.7454984,2.3720609 -1.7354408,5.6174519 -6e-7,8.035443 z"
         transform="scale(-0.6,-0.6)" />
    </marker>
    <marker
       inkscape:stockid="StopL"
       orient="auto"
       refY="0"
       refX="0"
       id="StopL-67"
       style="overflow:visible">
      <path
         inkscape:connector-curvature="0"
         id="path3951-1"
         d="M 0,5.65 0,-5.65"
         style="fill:none;stroke:#000000;stroke-width:1pt"
         transform="scale(0.8,0.8)" />
    </marker>
    <marker
       inkscape:stockid="StopL"
       orient="auto"
       refY="0"
       refX="0"
       id="marker4041"
       style="overflow:visible">
      <path
         inkscape:connector-curvature="0"
         id="path4043"
         d="M 0,5.65 0,-5.65"
         style="fill:none;stroke:#000000;stroke-width:1pt"
         transform="scale(0.8,0.8)" />
    </marker>
    <marker
       inkscape:stockid="Arrow2Mend"
       orient="auto"
       refY="0"
       refX="0"
       id="Arrow2Mend-02-9"
       style="overflow:visible">
      <path
         inkscape:connector-curvature="0"
         id="path3809-1-5"
         style="fill-rule:evenodd;stroke-width:0.625;stroke-linejoin:round"
         d="M 8.7185878,4.0337352 -2.2072895,0.01601326 8.7185884,-4.0017078 c -1.7454984,2.3720609 -1.7354408,5.6174519 -6e-7,8.035443 z"
         transform="scale(-0.6,-0.6)" />
    </marker>
    <marker
       inkscape:stockid="Arrow2Mend"
       orient="auto"
       refY="0"
       refX="0"
       id="marker4047"
       style="overflow:visible">
      <path
         inkscape:connector-curvature="0"
         id="path4049"
         style="fill-rule:evenodd;stroke-width:0.625;stroke-linejoin:round"
         d="M 8.7185878,4.0337352 -2.2072895,0.01601326 8.7185884,-4.0017078 c -1.7454984,2.3720609 -1.7354408,5.6174519 -6e-7,8.035443 z"
         transform="scale(-0.6,-0.6)" />
    </marker>
  </defs>
  <sodipodi:namedview
     id="base"
     pagecolor="#ffffff"
     bordercolor="#666666"
     borderopacity="1.0"
     inkscape:pageopacity="0.0"
     inkscape:pageshadow="2"
     inkscape:zoom="1"
     inkscape:cx="267.73551"
     inkscape:cy="822.11895"
     inkscape:document-units="px"
     inkscape:current-layer="layer1"
     showgrid="false"
     inkscape:window-width="1625"
     inkscape:window-height="869"
     inkscape:window-x="246"
     inkscape:window-y="110"
     inkscape:window-maximized="0" />
  <metadata
     id="metadata3220">
    <rdf:RDF>
      <cc:Work
         rdf:about="">
        <dc:format>image/svg+xml</dc:format>
        <dc:type
           rdf:resource="http://purl.org/dc/dcmitype/StillImage" />
        <dc:title />
      </cc:Work>
    </rdf:RDF>
  </metadata>
  <g
     inkscape:label="Ebene 1"
     inkscape:groupmode="layer"
     id="layer1">
    <path
       style="fill:#7f7f7f;fill-opacity:0.47154475;stroke:none"
       d="m 395.75873,51.61019 93.99359,0 0,283.90222 -93.99359,0 z"
       id="rect5229-7-0"
       inkscape:connector-curvature="0" />
    <path
       style="fill:none;stroke:#000000;stroke-width:2;stroke-linecap:butt;stroke-linejoin:miter;stroke-miterlimit:4;stroke-opacity:1;stroke-dasharray:none;marker-end:url(#Arrow2Mend)"
       d="m 48.301771,155.68063 694.358599,0"
       id="path3008-6"
       inkscape:connector-curvature="0" />
    <text
       xml:space="preserve"
       style="font-size:20px;font-style:normal;font-variant:normal;font-weight:normal;font-stretch:normal;line-height:125%;letter-spacing:0px;word-spacing:0px;fill:#000000;fill-opacity:1;stroke:none;font-family:Liberation Sans;-inkscape-font-specification:Liberation Sans"
       x="706.48651"
       y="177.05621"
       id="text4222-23"
       sodipodi:linespacing="125%"><tspan
         sodipodi:role="line"
         id="tspan4224-9"
         x="706.48651"
         y="177.05621"
         style="font-style:normal;font-variant:normal;font-weight:normal;font-stretch:normal;font-family:Linux Biolinum O;-inkscape-font-specification:Linux Biolinum O">time</tspan></text>
    <text
       xml:space="preserve"
       style="font-size:20px;font-style:normal;font-variant:normal;font-weight:normal;font-stretch:normal;line-height:125%;letter-spacing:0px;word-spacing:0px;fill:#000000;fill-opacity:1;stroke:none;font-family:Liberation Sans;-inkscape-font-specification:Liberation Sans"
       x="403.67505"
       y="205.84561"
       id="text4424-3"
       sodipodi:linespacing="125%"><tspan
         style="font-style:normal;font-variant:normal;font-weight:normal;font-stretch:normal;font-family:Linux Biolinum O;-inkscape-font-specification:Linux Biolinum O"
         sodipodi:role="line"
         id="tspan4426-45"
         x="403.67505"
         y="205.84561">handover</tspan><tspan
         style="font-style:normal;font-variant:normal;font-weight:normal;font-stretch:normal;font-family:Linux Biolinum O;-inkscape-font-specification:Linux Biolinum O"
         sodipodi:role="line"
         x="403.67505"
         y="230.84561"
         id="tspan4428-8">period</tspan></text>
    <path
       style="fill:none;stroke:#000000;stroke-width:2;stroke-linecap:butt;stroke-linejoin:miter;stroke-miterlimit:4;stroke-opacity:1;stroke-dasharray:none;marker-start:url(#StopL);marker-end:url(#StopL)"
       d="m 394.57533,155.66124 94.44927,0"
       id="path4432-2"
       inkscape:connector-curvature="0" />
    <text
       xml:space="preserve"
       style="font-size:20px;font-style:normal;font-variant:normal;font-weight:normal;font-stretch:normal;line-height:125%;letter-spacing:0px;word-spacing:0px;fill:#000000;fill-opacity:1;stroke:none;font-family:Liberation Sans;-inkscape-font-specification:Liberation Sans"
       x="-155.8653"
       y="42.460762"
       id="text5008-4-78"
       sodipodi:linespacing="125%"
       transform="matrix(0,-1,1,0,0,0)"><tspan
         sodipodi:role="line"
         x="-155.8653"
         y="42.460762"
         style="font-size:18px;font-style:normal;font-variant:normal;font-weight:normal;font-stretch:normal;font-family:Linux Biolinum O;-inkscape-font-specification:Linux Biolinum O"
         id="tspan7393">quality levels</tspan></text>
    <text
       xml:space="preserve"
       style="font-size:20px;font-style:normal;font-variant:normal;font-weight:normal;font-stretch:normal;line-height:125%;letter-spacing:0px;word-spacing:0px;fill:#000000;fill-opacity:1;stroke:none;font-family:Liberation Sans;-inkscape-font-specification:Liberation Sans"
       x="415.11041"
       y="22.538082"
       id="text5008-4-9-4"
       sodipodi:linespacing="125%"><tspan
         sodipodi:role="line"
         x="415.11041"
         y="22.538082"
         style="font-size:16px;font-style:normal;font-variant:normal;font-weight:normal;font-stretch:normal;font-family:Linux Biolinum O;-inkscape-font-specification:Linux Biolinum O"
         id="tspan5101-6-4">affected</tspan><tspan
         sodipodi:role="line"
         x="415.11041"
         y="42.538082"
         style="font-size:16px;font-style:normal;font-variant:normal;font-weight:normal;font-stretch:normal;font-family:Linux Biolinum O;-inkscape-font-specification:Linux Biolinum O"
         id="tspan6865-5">requests</tspan></text>
    <text
       xml:space="preserve"
       style="font-size:20px;font-style:normal;font-variant:normal;font-weight:normal;font-stretch:normal;line-height:125%;letter-spacing:0px;word-spacing:0px;fill:#000000;fill-opacity:1;stroke:none;font-family:Liberation Sans;-inkscape-font-specification:Liberation Sans"
       x="-323.48315"
       y="41.224762"
       id="text5008-4-78-8"
       sodipodi:linespacing="125%"
       transform="matrix(0,-1,1,0,0,0)"><tspan
         sodipodi:role="line"
         x="-323.48315"
         y="41.224762"
         style="font-size:16px;font-style:normal;font-variant:normal;font-weight:normal;font-stretch:normal;font-family:Linux Biolinum O;-inkscape-font-specification:Linux Biolinum O"
         id="tspan7469">video buffer</tspan></text>
    <path
       style="fill:none;stroke:#000000;stroke-width:2;stroke-linecap:butt;stroke-linejoin:miter;stroke-miterlimit:4;stroke-opacity:1;stroke-dasharray:none;marker-end:url(#Arrow2Mend-02)"
       d="m 48.301754,335.29424 694.358686,0"
       id="path3008-6-5"
       inkscape:connector-curvature="0" />
    <path
       style="fill:none;stroke:#000000;stroke-width:2;stroke-linecap:butt;stroke-linejoin:miter;stroke-miterlimit:4;stroke-opacity:1;stroke-dasharray:none;marker-end:url(#Arrow2Mend-02)"
       d="m 48.3053,335.29421 0,-104.0457"
       id="path7495"
       inkscape:connector-curvature="0" />
    <path
       style="fill:none;stroke:#000000;stroke-width:2;stroke-linecap:butt;stroke-linejoin:miter;stroke-opacity:1;stroke-miterlimit:4;stroke-dasharray:none"
       d="m 50.269055,303.54321 c 2.446006,0.7462 2.207827,-2.1753 3.571429,-2.8571 0.212959,-0.1065 0.545927,0.1683 0.714286,0 0.168358,-0.1684 -0.168359,-0.5459 0,-0.7143 0.357142,-0.3571 1.785714,0.3571 2.142857,0 0.168358,-0.1684 -0.168359,-0.5459 0,-0.7143 0.168358,-0.1683 0.545927,0.1684 0.714285,0 0.168359,-0.1683 -0.168358,-0.5459 0,-0.7143 0.336718,-0.3367 1.091854,0.3367 1.428572,0 0.168359,-0.1683 -0.168359,-0.5459 0,-0.7143 0.168359,-0.1683 0.501327,0.1065 0.714286,0 0.301169,-0.1505 0.413116,-0.5637 0.714285,-0.7142 0.42592,-0.213 1.09185,0.3367 1.42857,0 0.16836,-0.1684 -0.16836,-0.546 0,-0.7143 0.33672,-0.3367 1.09186,0.3367 1.42857,0 0.16836,-0.1684 -0.16836,-0.546 0,-0.7143 0.33672,-0.3367 1.09186,0.3367 1.42857,0 0.16836,-0.1684 -0.16835,-0.5459 0,-0.7143 0.16836,-0.1684 0.54593,-0.1684 0.71429,0 0.16836,0.1684 -0.16836,0.5459 0,0.7143 0.16836,0.1683 0.50133,-0.1065 0.71429,0 0.30116,0.1506 0.41311,0.5637 0.71428,0.7143 0.42592,0.2129 1.09186,-0.3367 1.42857,0 0.16836,0.1683 -0.16836,0.5459 0,0.7143 0.33672,0.3367 1.09186,-0.3368 1.42858,0 0.16835,0.1683 -0.16836,0.5459 0,0.7142 0.16835,0.1684 0.54592,-0.1683 0.71428,0 0.16836,0.1684 -0.16836,0.546 0,0.7143 0.16836,0.1684 0.47619,0 0.71429,0 0.23809,0 0.47619,0 0.71428,0 1.90476,0 3.80953,0 5.71429,0 1.67513,0 -0.33672,-0.1683 1.42857,0.7143 0.18781,0.094 2.48363,0 2.85714,0 1.90476,0 3.80953,0 5.71429,0 0.26231,0 2.8284,0.029 2.85714,0 0.16836,-0.1683 -0.16836,-0.5459 0,-0.7143 0.16836,-0.1683 0.54593,0.1684 0.71429,0 0.16835,-0.1683 -0.16836,-0.5459 0,-0.7143 0.33671,-0.3367 1.09185,0.3368 1.42857,0 0.16836,-0.1683 -0.16836,-0.5459 0,-0.7142 0.16836,-0.1684 0.54592,0.1683 0.71428,0 0.16836,-0.1684 -0.16836,-0.546 0,-0.7143 0.33672,-0.3367 1.09186,0.3367 1.42858,0 0.16835,-0.1684 -0.16836,-0.546 0,-0.7143 0.33671,-0.3367 1.09185,0.3367 1.42857,0 0.16835,-0.1684 -0.16836,-0.5459 0,-0.7143 0.16835,-0.1684 0.54592,0.1684 0.71428,0 0.16836,-0.1684 -0.16836,-0.5459 0,-0.7143 0.16836,-0.1683 0.54593,0.1684 0.71429,0 0.16836,-0.1683 -0.16836,-0.5459 0,-0.7143 0.33671,-0.3367 1.09185,0.3367 1.42857,0 0.16836,-0.1683 -0.16836,-0.5459 0,-0.7143 0.33672,-0.3367 1.09185,0.3368 1.428565,0 0.16836,-0.1683 -0.16836,-0.5459 0,-0.7142 0.16836,-0.1684 0.54593,0.1683 0.71429,0 0.16835,-0.1684 -0.16836,-0.546 0,-0.7143 0.33671,-0.3367 1.09185,0.3367 1.42857,0 0.16836,-0.1684 -0.16836,-0.546 0,-0.7143 0.19544,-0.1955 2.46965,0.1937 2.85714,0 0.30117,-0.1506 0.41312,-0.5637 0.71429,-0.7143 0.2832,-0.1416 1.99683,0.146 2.14285,0 0.16836,-0.1684 -0.16836,-0.5459 0,-0.7143 0.16836,-0.1683 0.47619,0 0.71429,0 1.19048,0 2.38095,0 3.57143,0 0.23809,0 0.54592,-0.1683 0.71428,0 0.16836,0.1684 -0.16836,0.5459 0,0.7143 0.16836,0.1684 0.54593,-0.1684 0.71429,0 0.16836,0.1684 -0.16836,0.5459 0,0.7143 0.16836,0.1683 0.54593,-0.1684 0.71429,0 0.16835,0.1683 -0.16836,0.5459 0,0.7143 0.16835,0.1683 0.54592,-0.1684 0.71428,0 0.16836,0.1683 -0.16836,0.5459 0,0.7143 0.16836,0.1683 0.54593,-0.1684 0.71429,0 0.33671,0.3367 -0.33672,1.0918 0,1.4285 0.16835,0.1684 0.54592,-0.1683 0.71428,0 0.16836,0.1684 -0.16836,0.546 0,0.7143 0.16836,0.1684 0.54593,-0.1683 0.71429,0 0.33672,0.3367 -0.33672,1.0919 0,1.4286 0.16836,0.1683 0.54592,-0.1684 0.71428,0 0.33672,0.3367 -0.33671,1.0918 0,1.4286 0.16836,0.1683 0.54593,-0.1684 0.71429,0 0.16836,0.1683 -0.16836,0.5459 0,0.7142 0.16836,0.1684 0.54593,-0.1683 0.71429,0 1.47788,1.4779 -2.25841,-0.058 0.71428,1.4286 0.21296,0.1065 0.54593,-0.1683 0.71429,0 1.47788,1.4779 -2.2584,-0.058 0.71428,1.4286 0.21296,0.1065 0.54593,-0.1684 0.71429,0 0.16836,0.1683 -0.16836,0.5459 0,0.7143 0.16836,0.1683 0.54592,-0.1684 0.71428,0 0.16836,0.1683 -0.16836,0.5459 0,0.7143 0.33672,0.3367 1.09186,-0.3368 1.42858,0 0.16835,0.1683 -0.16836,0.5459 0,0.7142 0.14602,0.1461 1.85964,-0.1416 2.14285,0 0.30117,0.1506 0.41312,0.5637 0.71429,0.7143 0.21738,0.1087 1.82117,0 2.14286,0 1.42857,0 2.85714,0 4.28571,0 3.09524,0 6.19048,0 9.28572,0 0.26231,0 2.8284,0.029 2.85714,0 0.16836,-0.1683 -0.16836,-0.5459 0,-0.7143 0.33672,-0.3367 1.09185,0.3368 1.42857,0 0.16836,-0.1683 -0.16836,-0.5459 0,-0.7142 0.17188,-0.1719 2.68527,0.1718 2.85714,0 0.16836,-0.1684 -0.16835,-0.546 0,-0.7143 0.35715,-0.3572 1.78572,0.3571 2.14286,0 0.16836,-0.1684 -0.16836,-0.546 0,-0.7143 0.33672,-0.3367 1.09186,0.3367 1.42857,0 0.16836,-0.1684 -0.16836,-0.5459 0,-0.7143 0.33672,-0.3367 1.09186,0.3367 1.42857,0 0.16836,-0.1684 -0.16835,-0.5459 0,-0.7143 0.16836,-0.1683 0.54593,0.1684 0.71429,0 0.16836,-0.1683 -0.16836,-0.5459 0,-0.7143 0.33672,-0.3367 1.09185,0.3367 1.42857,0 0.16836,-0.1683 -0.16836,-0.5459 0,-0.7143 0.33672,-0.3367 1.09186,0.3368 1.42857,0 0.16836,-0.1683 -0.16836,-0.5459 0,-0.7142 0.16836,-0.1684 0.50133,0.1064 0.71429,0 0.30117,-0.1506 0.41312,-0.5637 0.71428,-0.7143 0.21296,-0.1065 0.54593,0.1683 0.71429,0 0.16836,-0.1684 -0.16836,-0.546 0,-0.7143 0.33672,-0.3367 1.09185,0.3367 1.42857,0 0.16836,-0.1684 -0.16836,-0.5459 0,-0.7143 0.17188,-0.1719 2.68527,0.1719 2.85714,0 0.16836,-0.1684 -0.16835,-0.5459 0,-0.7143 0.16836,-0.1683 0.47619,0 0.71429,0 0.2381,0 0.47619,0 0.71429,0 1.19047,0 2.38095,0 3.57142,0 0.2381,0 0.54593,-0.1683 0.71429,0 0.16836,0.1684 -0.16836,0.5459 0,0.7143 0.47525,0.4752 0.95332,-0.4753 1.42857,0 0.16836,0.1684 -0.16836,0.5459 0,0.7143 0.17188,0.1719 2.68527,-0.1719 2.85714,0 0.16836,0.1683 -0.16835,0.5459 0,0.7143 0.19545,0.1954 2.46966,-0.1938 2.85715,0 0.30117,0.1506 0.41311,0.5637 0.71428,0.7143 0.21296,0.1064 0.47619,0 0.71429,0 0.23809,0 0.47619,0 0.71428,0 1.19048,0 2.38096,0 3.57143,0 0.26231,0 2.8284,0.029 2.85715,0 0.16835,-0.1684 -0.16836,-0.546 0,-0.7143 0.17188,-0.1719 2.68526,0.1718 2.85714,0 0.16836,-0.1684 -0.16836,-0.546 0,-0.7143 0.35714,-0.3572 1.78571,0.3571 2.14286,0 0.16835,-0.1684 -0.16836,-0.5459 0,-0.7143 0.35714,-0.3571 1.78571,0.3571 2.14285,0 0.16836,-0.1684 -0.16836,-0.5459 0,-0.7143 0.17188,-0.1719 2.68527,0.1719 2.85715,0 0.16835,-0.1683 -0.16836,-0.5459 0,-0.7143 0.33671,-0.3367 1.09185,0.3367 1.42857,0 0.16836,-0.1683 -0.16836,-0.5459 0,-0.7143 0.023,-0.023 1.96962,0 2.14285,0 1.90477,0 3.80953,0 5.71429,0 0.2381,0 0.54593,-0.1683 0.71429,0 0.16835,0.1684 -0.16836,0.546 0,0.7143 0.17188,0.1719 2.68526,-0.1719 2.85714,0 0.16836,0.1684 -0.16836,0.546 0,0.7143 0.16836,0.1684 0.47619,0 0.71428,0 1.19048,0 2.38096,0 3.57143,0 0.17324,0 2.11989,-0.023 2.14286,0 0.16836,0.1684 -0.16836,0.5459 0,0.7143 0.17188,0.1719 2.68526,-0.1719 2.85714,0 0.16836,0.1684 -0.16836,0.5459 0,0.7143 0.22118,0.2212 3.35026,-0.2212 3.57143,0 0.16836,0.1683 -0.16836,0.5459 0,0.7143 0.16836,0.1683 0.47619,0 0.71429,0 1.19047,0 2.38095,0 3.57143,0 1.90476,0 -0.2381,0.2381 0.71428,-0.7143 0.35714,-0.3572 1.78572,0.3571 2.14286,0 0.16836,-0.1684 -0.16836,-0.5459 0,-0.7143 0.22118,-0.2212 3.35025,0.2212 3.57143,0 0.16836,-0.1684 -0.16836,-0.5459 0,-0.7143 0.14602,-0.146 1.85965,0.1416 2.14285,0 0.30117,-0.1506 0.41312,-0.5637 0.71429,-0.7143 0.38749,-0.1937 2.6617,0.1955 2.85714,0 0.16836,-0.1683 -0.16836,-0.5459 0,-0.7143 0.17188,-0.1718 2.68527,0.1719 2.85715,0 0.16835,-0.1683 -0.16836,-0.5459 0,-0.7142 0.22117,-0.2212 3.35025,0.2211 3.57142,0 0.16836,-0.1684 -0.16835,-0.546 0,-0.7143 0.16836,-0.1684 0.47619,0 0.71429,0 0.2381,0 0.47619,0 0.71429,0 1.90476,0 3.80952,0 5.71428,0 0.2381,0 0.47619,0 0.71429,0 0.23809,0 0.54592,-0.1684 0.71428,0 0.16836,0.1683 -0.16836,0.5459 0,0.7143 0.33672,0.3367 1.09186,-0.3368 1.42857,0 0.16836,0.1683 -0.16835,0.5459 0,0.7142 0.33672,0.3368 1.09186,-0.3367 1.42858,0 0.16835,0.1684 -0.16836,0.546 0,0.7143 0.33671,0.3367 1.09185,-0.3367 1.42857,0 0.16836,0.1684 -0.16836,0.546 0,0.7143 0.16836,0.1684 0.47619,0 0.71428,0 1.66667,0 3.33334,0 5,0 1.66667,0 3.33334,0 5,0 0.32169,0 1.92548,0.1087 2.14286,0 0.30117,-0.1506 0.41312,-0.5637 0.71429,-0.7143 0.2832,-0.1416 1.99683,0.1461 2.14285,0 0.16836,-0.1683 -0.16836,-0.5459 0,-0.7143 0.16836,-0.1683 0.47619,0 0.71429,0 0.50629,0 4.10103,0.092 4.28571,0 0.30117,-0.1505 0.41312,-0.5637 0.71429,-0.7142 0.21296,-0.1065 0.47619,0 0.71428,0 0.2381,0 0.4762,0 0.71429,0 1.19048,0 2.38095,0 3.57143,0 0.23809,0 0.47619,0 0.71428,0 0.2381,0 0.54593,0.1683 0.71429,0 0.16836,-0.1684 -0.16836,-0.546 0,-0.7143 0.16836,-0.1684 0.47619,0 0.71429,0 0.23809,0 0.47619,0 0.71428,0 3.57143,0 7.14286,0 10.71429,0"
       id="path8517"
       inkscape:connector-curvature="0"
       sodipodi:nodetypes="ccccccccccccccccccscccccccccssscssccccccccccccscccccccccccccccsscssccccccccccccccccscscccccccssssccccccccccccccccccccccccccsssccccccccsssccccccccccccssccccssccccccsscccccccccccccssssccccccccsssscccsccssssccssc" />
    <text
       xml:space="preserve"
       style="font-size:20px;font-style:normal;font-variant:normal;font-weight:normal;font-stretch:normal;line-height:125%;letter-spacing:0px;word-spacing:0px;fill:#000000;fill-opacity:1;stroke:none;font-family:Liberation Sans;-inkscape-font-specification:Liberation Sans"
       x="64.248024"
       y="84.31826"
       id="text5008-8"
       sodipodi:linespacing="125%"><tspan
         sodipodi:role="line"
         id="tspan5010-3"
         x="64.248024"
         y="84.31826"
         style="font-size:16px;font-style:normal;font-variant:normal;font-weight:normal;font-stretch:normal;font-family:Linux Biolinum O;-inkscape-font-specification:Linux Biolinum O">high</tspan></text>
    <rect
       style="fill:none;stroke:#000000;stroke-width:2;stroke-miterlimit:4;stroke-dasharray:none"
       id="rect5002-2-6-2"
       width="88.358025"
       height="19.984882"
       x="103.93125"
       y="70.637817" />
    <rect
       style="fill:none;stroke:#000000;stroke-width:2;stroke-miterlimit:4;stroke-dasharray:none"
       id="rect5002-2-6-2-1"
       width="88.358025"
       height="19.984882"
       x="198.8856"
       y="70.637817" />
    <rect
       style="fill:none;stroke:#000000;stroke-width:2;stroke-miterlimit:4;stroke-dasharray:none"
       id="rect5002-2-6-2-12"
       width="88.358025"
       height="19.984882"
       x="549.8399"
       y="70.637817" />
    <text
       xml:space="preserve"
       style="font-size:20px;font-style:normal;font-variant:normal;font-weight:normal;font-stretch:normal;line-height:125%;letter-spacing:0px;word-spacing:0px;fill:#000000;fill-opacity:1;stroke:none;font-family:Liberation Sans;-inkscape-font-specification:Liberation Sans"
       x="64.376022"
       y="112.70714"
       id="text5008-8-5"
       sodipodi:linespacing="125%"><tspan
         sodipodi:role="line"
         id="tspan5010-3-8"
         x="64.376022"
         y="112.70714"
         style="font-size:16px;font-style:normal;font-variant:normal;font-weight:normal;font-stretch:normal;font-family:Linux Biolinum O;-inkscape-font-specification:Linux Biolinum O">medium</tspan></text>
    <path
       style="fill:none;stroke:#000000;stroke-width:2;stroke-miterlimit:4;stroke-dasharray:none"
       d="m 290.95812,96.97341 50.44675,0 0,20.45946 -50.44675,0 z"
       id="rect5002-2-6-2-7-1-2"
       inkscape:connector-curvature="0" />
    <text
       xml:space="preserve"
       style="font-size:20px;font-style:normal;font-variant:normal;font-weight:normal;font-stretch:normal;line-height:125%;letter-spacing:0px;word-spacing:0px;fill:#000000;fill-opacity:1;stroke:none;font-family:Liberation Sans;-inkscape-font-specification:Liberation Sans"
       x="64.248024"
       y="139.83575"
       id="text5008-8-9"
       sodipodi:linespacing="125%"><tspan
         sodipodi:role="line"
         id="tspan5010-3-3"
         x="64.248024"
         y="139.83575"
         style="font-size:16px;font-style:normal;font-variant:normal;font-weight:normal;font-stretch:normal;font-family:Linux Biolinum O;-inkscape-font-specification:Linux Biolinum O">low</tspan></text>
    <text
       xml:space="preserve"
       style="font-size:20px;font-style:italic;font-variant:normal;font-weight:normal;font-stretch:normal;line-height:125%;letter-spacing:0px;word-spacing:0px;fill:#000000;fill-opacity:1;stroke:none;font-family:Liberation Sans;-inkscape-font-specification:Sans Italic"
       x="2.3542361"
       y="43.999828"
       id="text3398-7"
       sodipodi:linespacing="125%"><tspan
         sodipodi:role="line"
         id="tspan3400-1"
         x="2.3542361"
         y="43.999828"
         style="-inkscape-font-specification:Linux Biolinum O Italic;font-family:Linux Biolinum O;font-weight:normal;font-style:italic;font-stretch:normal;font-variant:normal">with crosslayer information</tspan></text>
    <text
       xml:space="preserve"
       style="font-size:20px;font-style:normal;font-variant:normal;font-weight:normal;font-stretch:normal;line-height:125%;letter-spacing:0px;word-spacing:0px;fill:#000000;fill-opacity:1;stroke:none;font-family:Liberation Sans;-inkscape-font-specification:Liberation Sans"
       x="2.5007129"
       y="15.977432"
       id="text5004-7"
       sodipodi:linespacing="125%"><tspan
         sodipodi:role="line"
         id="tspan5006-5"
         x="2.5007129"
         y="15.977432"
         style="-inkscape-font-specification:Linux Biolinum O;font-family:Linux Biolinum O;font-weight:normal;font-style:normal;font-stretch:normal;font-variant:normal">adaptive video streaming</tspan></text>
    <path
       style="fill:none;stroke:#000000;stroke-width:2;stroke-linecap:butt;stroke-linejoin:miter;stroke-miterlimit:4;stroke-opacity:1;stroke-dasharray:none;marker-end:url(#marker4047)"
       d="m 276.45722,185.23002 0,-23.62696"
       id="path3128"
       inkscape:connector-curvature="0" />
    <text
       xml:space="preserve"
       style="font-size:20px;font-style:normal;font-variant:normal;font-weight:bold;font-stretch:normal;line-height:125%;letter-spacing:0px;word-spacing:0px;fill:#000000;fill-opacity:1;stroke:none;font-family:Liberation Sans;-inkscape-font-specification:Sans Bold"
       x="245.16563"
       y="197.07648"
       id="text4230"
       sodipodi:linespacing="125%"><tspan
         sodipodi:role="line"
         id="tspan4232"
         x="245.16563"
         y="197.07648"
         style="font-size:16px;font-style:normal;font-variant:normal;font-weight:normal;font-stretch:normal;font-family:Linux Biolinum O;-inkscape-font-specification:Linux Biolinum O">handover</tspan><tspan
         sodipodi:role="line"
         x="245.16563"
         y="217.07648"
         id="tspan4234"
         style="font-size:16px;font-style:normal;font-variant:normal;font-weight:normal;font-stretch:normal;font-family:Linux Biolinum O;-inkscape-font-specification:Linux Biolinum O">notice</tspan></text>
    <flowRoot
       xml:space="preserve"
       id="flowRoot4236"
       style="fill:black;stroke:none;stroke-opacity:1;stroke-width:1px;stroke-linejoin:miter;stroke-linecap:butt;fill-opacity:1;font-family:Liberation Sans;font-style:normal;font-weight:bold;font-size:20px;line-height:125%;letter-spacing:0px;word-spacing:0px;-inkscape-font-specification:Sans Bold;font-stretch:normal;font-variant:normal"><flowRegion
         id="flowRegion4238"><rect
           id="rect4240"
           width="97.14286"
           height="37.857143"
           x="273.57144"
           y="218.79076" /></flowRegion><flowPara
         id="flowPara4242" /></flowRoot>    <path
       style="fill:none;stroke:#000000;stroke-width:2;stroke-miterlimit:4;stroke-dasharray:none"
       d="m 343.86197,96.97341 50.44675,0 0,20.45946 -50.44675,0 z"
       id="rect5002-2-6-2-7-1-2-7"
       inkscape:connector-curvature="0" />
    <path
       style="fill:none;stroke:#000000;stroke-width:2;stroke-miterlimit:4;stroke-dasharray:none"
       d="m 492.71911,96.97341 50.44675,0 0,20.45946 -50.44675,0 z"
       id="rect5002-2-6-2-7-1-2-8"
       inkscape:connector-curvature="0" />
    <rect
       style="fill:none;stroke:#000000;stroke-width:2;stroke-miterlimit:4;stroke-dasharray:none"
       id="rect5002-2-6-2-12-6"
       width="88.358025"
       height="19.984882"
       x="643.3349"
       y="70.637817" />
    <path
       style="fill:none;stroke:#000000;stroke-width:2;stroke-linecap:butt;stroke-linejoin:miter;stroke-opacity:1;stroke-miterlimit:4;stroke-dasharray:none"
       d="m 295.58534,291.00504 c 2.02381,0 4.04762,0 6.07143,0 0.13116,0 1.4142,0.0144 1.42857,0 0.0842,-0.0842 -0.0842,-0.27296 0,-0.35714 0.0859,-0.0859 1.34264,0.0859 1.42857,0 0.0842,-0.0842 -0.0842,-0.27297 0,-0.35715 0.17858,-0.17857 0.89286,0.17857 1.07143,0 0.0842,-0.0842 -0.0842,-0.27296 0,-0.35714 0.16836,-0.16836 0.54593,0.16836 0.71429,0 0.0842,-0.0842 -0.0842,-0.27296 0,-0.35714 0.17857,-0.17857 0.89286,0.17857 1.07143,0 0.0842,-0.0842 -0.0842,-0.27297 0,-0.35715 0.17857,-0.17857 0.89285,0.17858 1.07143,0 0.0842,-0.0842 -0.0842,-0.27296 0,-0.35714 0.16835,-0.16836 0.54592,0.16836 0.71428,0 0.0842,-0.0842 -0.0842,-0.27296 0,-0.35714 0.16836,-0.16836 0.54593,0.16836 0.71429,0 0.0842,-0.0842 -0.0842,-0.27296 0,-0.35714 0.16836,-0.16836 0.54592,0.16835 0.71428,0 0.0842,-0.0842 -0.0842,-0.27297 0,-0.35715 0.0842,-0.0842 0.27297,0.0842 0.35715,0 0.0842,-0.0842 -0.0842,-0.27296 0,-0.35714 0.16835,-0.16836 0.54592,0.16836 0.71428,0 0.0842,-0.0842 -0.0842,-0.27296 0,-0.35714 0.16836,-0.16836 0.54593,0.16836 0.71429,0 0.0842,-0.0842 -0.0842,-0.27297 0,-0.35715 0.0842,-0.0842 0.23809,0 0.35714,0 0.11905,0 0.2381,0 0.35714,0 0.95238,0 -0.11904,0.11905 0.35715,-0.35714 0.17857,-0.17857 0.89285,0.17857 1.07142,0 0.0842,-0.0842 -0.0842,-0.27296 0,-0.35714 0.0842,-0.0842 0.25067,0.0532 0.35715,0 0.15058,-0.0753 0.20656,-0.28185 0.35714,-0.35714 0.10648,-0.0532 0.27296,0.0842 0.35714,0 0.0842,-0.0842 -0.0842,-0.27297 0,-0.35715 0.16836,-0.16836 0.54593,0.16836 0.71429,0 0.0842,-0.0842 -0.0842,-0.27296 0,-0.35714 0.16836,-0.16836 0.54593,0.16836 0.71428,0 0.0842,-0.0842 -0.0842,-0.27296 0,-0.35714 0.16836,-0.16836 0.54593,0.16836 0.71429,0 0.0842,-0.0842 -0.0842,-0.27297 0,-0.35715 0.16836,-0.16835 0.54593,0.16836 0.71429,0 0.0842,-0.0842 -0.0842,-0.27296 0,-0.35714 0.16835,-0.16836 0.54592,0.16836 0.71428,0 0.0842,-0.0842 -0.0842,-0.27296 0,-0.35714 0.16836,-0.16836 0.54593,0.16836 0.71429,0 0.0842,-0.0842 -0.0842,-0.27296 0,-0.35714 0.16836,-0.16836 0.54592,0.16835 0.71428,0 0.0842,-0.0842 -0.0842,-0.27297 0,-0.35715 0.17857,-0.17857 0.89286,0.17857 1.07143,0 0.0842,-0.0842 -0.0842,-0.27296 0,-0.35714 0.17857,-0.17857 0.89286,0.17857 1.07143,0 0.0842,-0.0842 -0.0842,-0.27296 0,-0.35714 0.0859,-0.0859 1.34263,0.0859 1.42857,0 0.0842,-0.0842 -0.0842,-0.27297 0,-0.35715 0.0144,-0.0144 1.29742,0 1.42857,0 0.95238,0 -0.11904,0.11905 0.35715,-0.35714 0.0842,-0.0842 0.23809,0 0.35714,0 0.71428,0 1.42857,0 2.14286,0 0.11904,0 0.27296,0.0842 0.35714,0 0.0842,-0.0842 -0.0842,-0.27296 0,-0.35714 0.0115,-0.0115 0.98481,0 1.07143,0 1.66666,0 3.33333,0 5,0 0.11905,0 0.23809,0 0.35714,0 0.11905,0 0.27296,0.0842 0.35714,0 0.0842,-0.0842 -0.0842,-0.27296 0,-0.35714 0.0842,-0.0842 0.2381,0 0.35715,0 0.71428,0 1.42857,0 2.14285,0 0.11905,0 0.27297,0.0842 0.35715,0 0.0842,-0.0842 -0.0842,-0.27297 0,-0.35715 0.0162,-0.0162 1.61732,0 1.78571,0 0.13116,0 1.4142,0.0144 1.42857,0 0.0842,-0.0842 -0.0842,-0.27296 0,-0.35714 0.11059,-0.11059 1.67513,0.11059 1.78572,0 0.0842,-0.0842 -0.0842,-0.27296 0,-0.35714 0.0144,-0.0144 1.29741,0 1.42857,0 0.13115,0 1.4142,0.0144 1.42857,0 0.0842,-0.0842 -0.0842,-0.27297 0,-0.35715 0.0859,-0.0859 1.34263,0.0859 1.42857,0 0.0842,-0.0842 -0.0842,-0.27296 0,-0.35714 0.16836,-0.16836 0.54593,0.16836 0.71429,0 0.0842,-0.0842 -0.0842,-0.27296 0,-0.35714 0.17857,-0.17857 0.89285,0.17857 1.07142,0 0.0842,-0.0842 -0.0842,-0.27296 0,-0.35714 0.17858,-0.17858 0.89286,0.17857 1.07143,0 0.0842,-0.0842 -0.0842,-0.27297 0,-0.35715 0.0842,-0.0842 0.2381,0 0.35715,0 0.11904,0 0.27296,0.0842 0.35714,0 0.0842,-0.0842 -0.0842,-0.27296 0,-0.35714 0.17857,-0.17857 0.89286,0.17857 1.07143,0 0.0842,-0.0842 -0.0842,-0.27296 0,-0.35714 0.0859,-0.0859 1.34263,0.0859 1.42857,0 0.0842,-0.0842 -0.0842,-0.27297 0,-0.35715 0.17857,-0.17857 0.89286,0.17858 1.07143,0 0.0842,-0.0842 -0.0842,-0.27296 0,-0.35714 0.0859,-0.0859 1.34263,0.0859 1.42857,0 0.0842,-0.0842 -0.0842,-0.27296 0,-0.35714 0.0842,-0.0842 0.23809,0 0.35714,0 0.71429,0 1.42857,0 2.14286,0 1.42857,0 2.85714,0 4.28571,0 0.24841,0 1.65656,-0.0646 1.78572,0 0.15058,0.0753 0.20656,0.28185 0.35714,0.35714 0.21296,0.10648 0.54593,-0.16836 0.71429,0 0.0842,0.0842 -0.0842,0.27297 0,0.35714 0.0859,0.0859 1.34263,-0.0859 1.42857,0 0.0842,0.0842 -0.0842,0.27297 0,0.35715 0.17857,0.17857 0.89285,-0.17857 1.07143,0 0.0842,0.0842 -0.0842,0.27296 0,0.35714 0.0842,0.0842 0.23809,0 0.35714,0 0.95238,0 1.90476,0 2.85714,0 0.11905,0 0.2381,0 0.35714,0 0.11905,0 0.27297,-0.0842 0.35715,0 0.0842,0.0842 -0.0842,0.27296 0,0.35714 0.0842,0.0842 0.23809,0 0.35714,0 0.11905,0 0.2381,0 0.35714,0 1.07143,0 2.14286,0 3.21429,0 0.11905,0 0.23809,0 0.35714,0 0.11905,0 0.27297,0.0842 0.35714,0 0.0842,-0.0842 -0.0842,-0.27296 0,-0.35714 0.0859,-0.0859 1.34264,0.0859 1.42858,0 0.0842,-0.0842 -0.0842,-0.27296 0,-0.35714 0.17857,-0.17857 0.89285,0.17857 1.07142,0 0.0842,-0.0842 -0.0842,-0.27297 0,-0.35715 0.0842,-0.0842 0.2381,0 0.35715,0 0.16839,0 1.76953,0.0162 1.78571,0 0.0842,-0.0842 -0.0842,-0.27296 0,-0.35714 0.17857,-0.17857 0.89286,0.17857 1.07143,0 0.0842,-0.0842 -0.0842,-0.27296 0,-0.35714 0.0115,-0.0115 0.98481,0 1.07143,0 1.90476,0 3.80952,0 5.71428,0 0.95239,0 1.90477,0 2.85715,0 0.11905,0 0.23809,0 0.35714,0 0.11905,0 0.27296,-0.0842 0.35714,0 0.0842,0.0842 -0.0842,0.27296 0,0.35714 0.0859,0.0859 1.34264,-0.0859 1.42857,0 0.0842,0.0842 -0.0842,0.27297 0,0.35714 0.0842,0.0842 0.27297,-0.0842 0.35715,0 0.0842,0.0842 -0.0842,0.27297 0,0.35715 0.0859,0.0859 1.34263,-0.0859 1.42857,0 0.0842,0.0842 -0.0842,0.27296 0,0.35714 0.0842,0.0842 0.23809,0 0.35714,0 0,0.11905 -0.0842,0.27296 0,0.35714 0.17857,0.17857 0.89286,-0.17857 1.07143,0 0.0842,0.0842 -0.0842,0.27297 0,0.35715 0.17857,0.17857 0.89286,-0.17858 1.07143,0 0.0842,0.0842 -0.0842,0.27296 0,0.35714 0.0859,0.0859 1.34263,-0.0859 1.42857,0 0.0842,0.0842 -0.0842,0.27296 0,0.35714 0.16836,0.16836 0.54593,-0.16836 0.71429,0 0.0842,0.0842 -0.0842,0.27297 0,0.35714 0.16835,0.16836 0.54592,-0.16835 0.71428,0 0.0842,0.0842 -0.0842,0.27297 0,0.35715 0.17857,0.17857 0.89286,-0.17857 1.07143,0 0.0842,0.0842 -0.0842,0.27296 0,0.35714 0.11059,0.11059 1.67513,-0.11059 1.78571,0 0.0842,0.0842 -0.0842,0.27296 0,0.35714 0.16836,0.16836 0.54593,-0.16836 0.71429,0 0.0842,0.0842 -0.0842,0.27297 0,0.35715 0.0842,0.0842 0.27296,-0.0842 0.35714,0 0.0842,0.0842 -0.0842,0.27296 0,0.35714 0.16836,0.16836 0.54593,-0.16836 0.71429,0 0.0842,0.0842 -0.0842,0.27296 0,0.35714 0.16836,0.16836 0.54593,-0.16836 0.71428,0 0.0842,0.0842 -0.0842,0.27297 0,0.35714 0.16836,0.16836 0.54593,-0.16835 0.71429,0 0.0842,0.0842 -0.0842,0.27297 0,0.35715 0.073,0.073 0.92982,-0.0708 1.07143,0 0.15058,0.0753 0.20656,0.28185 0.35714,0.35714 0.12916,0.0646 1.53731,0 1.78572,0 0.11904,0 0.27296,-0.0842 0.35714,0 0.0842,0.0842 -0.0842,0.27296 0,0.35714 0.0842,0.0842 0.23809,0 0.35714,0 0.59524,0 1.19048,0 1.78572,0 0.13115,0 1.4142,-0.0144 1.42857,0 0.0842,0.0842 -0.0842,0.27297 0,0.35715 0.17857,0.17857 0.89285,-0.17858 1.07143,0 0.0842,0.0842 -0.0842,0.27296 0,0.35714 0.17857,0.17857 0.89285,-0.17857 1.07142,0 0.0842,0.0842 -0.0842,0.27296 0,0.35714 0.16836,0.16836 0.54593,-0.16836 0.71429,0 0.0842,0.0842 -0.0842,0.27297 0,0.35714 0.16836,0.16836 0.54593,-0.16835 0.71429,0 0.0842,0.0842 -0.0842,0.27297 0,0.35715 0.0842,0.0842 0.27296,-0.0842 0.35714,0 0.0842,0.0842 -0.0842,0.27296 0,0.35714 0.16836,0.16836 0.54593,-0.16836 0.71428,0 0.0842,0.0842 -0.0842,0.27296 0,0.35714 0.0842,0.0842 0.27297,-0.0842 0.35715,0 0.0842,0.0842 -0.0842,0.27297 0,0.35715 0.0842,0.0842 0.27296,-0.0842 0.35714,0 0.0842,0.0842 -0.0842,0.27296 0,0.35714 0.16836,0.16836 0.54593,-0.16836 0.71429,0 0.0842,0.0842 -0.0842,0.27296 0,0.35714 0.0842,0.0842 0.27296,-0.0842 0.35714,0 0.0842,0.0842 -0.0842,0.27297 0,0.35714 0.0859,0.0859 1.34263,-0.0859 1.42857,0 0.0842,0.0842 -0.0842,0.27297 0,0.35715 0.0842,0.0842 0.2381,0 0.35714,0 0.11905,0 0.2381,0 0.35715,0 0.47619,0.59524 0.88956,1.2467 1.42857,1.78571 0.0859,0.0859 1.34263,-0.0859 1.42857,0 0.0842,0.0842 -0.0842,0.27297 0,0.35714 0.17857,0.17858 0.89286,-0.17857 1.07143,0 0.0842,0.0842 -0.0842,0.27297 0,0.35715 0.16836,0.16836 0.54592,-0.16836 0.71428,0 0.0842,0.0842 -0.0842,0.27296 0,0.35714 0.0842,0.0842 0.25067,-0.0532 0.35715,0 0.15058,0.0753 0.20655,0.28185 0.35714,0.35714 0.10648,0.0532 0.27296,-0.0842 0.35714,0 0.0842,0.0842 -0.0842,0.27297 0,0.35715 0.16836,0.16835 0.54593,-0.16836 0.71429,0 0.0842,0.0842 -0.0842,0.27296 0,0.35714 0.0842,0.0842 0.27296,-0.0842 0.35714,0 0.0842,0.0842 -0.0842,0.27296 0,0.35714 0.0842,0.0842 0.27296,-0.0842 0.35714,0 0.0842,0.0842 -0.0842,0.27297 0,0.35714 0.0842,0.0842 0.27297,-0.0842 0.35715,0 0.0842,0.0842 -0.0842,0.27297 0,0.35715 0.0842,0.0842 0.27296,-0.0842 0.35714,0 0.0842,0.0842 -0.0842,0.27296 0,0.35714 0.0842,0.0842 0.27296,-0.0842 0.35714,0 0.0842,0.0842 0,0.2381 0,0.35714 0.11905,0 0.27297,-0.0842 0.35714,0 0.0842,0.0842 -0.0842,0.27297 0,0.35715 0.0842,0.0842 0.27297,-0.0842 0.35715,0 0.0842,0.0842 -0.0842,0.27296 0,0.35714 0.0842,0.0842 0.27296,-0.0842 0.35714,0 0.0842,0.0842 -0.0842,0.27296 0,0.35714 0.16836,0.16836 0.54593,-0.16836 0.71429,0 0.0842,0.0842 -0.0842,0.27297 0,0.35714 0.0842,0.0842 0.23809,0 0.35714,0 0.11905,0 0.23809,0 0.35714,0 0.83334,0 1.66667,0 2.5,0 0.11905,0 0.27297,-0.0842 0.35714,0 0.0842,0.0842 -0.0842,0.27297 0,0.35715 0.16836,0.16836 0.54593,-0.16836 0.71429,0 0.0842,0.0842 -0.0842,0.27296 0,0.35714 0.16836,0.16836 0.54593,-0.16836 0.71429,0 0.0842,0.0842 -0.0842,0.27296 0,0.35714 0.0842,0.0842 0.27296,-0.0842 0.35714,0 0.0842,0.0842 -0.0842,0.27297 0,0.35715 0.0842,0.0842 0.27296,-0.0842 0.35714,0 0.0842,0.0842 -0.0842,0.27296 0,0.35714 0.0842,0.0842 0.27297,-0.0842 0.35714,0 0.0842,0.0842 -0.0842,0.27296 0,0.35714 0.0842,0.0842 0.27297,-0.0842 0.35715,0 0.0842,0.0842 -0.0842,0.27297 0,0.35714 0.0842,0.0842 0.27296,-0.0842 0.35714,0 0.0842,0.0842 -0.0842,0.27297 0,0.35715 0.0842,0.0842 0.27296,-0.0842 0.35714,0 0.0842,0.0842 -0.0842,0.27296 0,0.35714 0.16836,0.16836 0.54593,-0.16836 0.71429,0 0.0842,0.0842 -0.0842,0.27296 0,0.35714 0.17857,0.17857 0.89286,-0.17857 1.07143,0 0.0842,0.0842 -0.0842,0.27297 0,0.35715 0.16836,0.16835 0.50132,-0.10648 0.71428,0 0.15059,0.0753 0.20656,0.28185 0.35715,0.35714 0.10648,0.0532 0.27296,-0.0842 0.35714,0 0.0842,0.0842 -0.0842,0.27296 0,0.35714 0.16836,0.16836 0.50133,-0.10648 0.71428,0 0.15059,0.0753 0.20656,0.28185 0.35715,0.35714 0.19374,0.0969 1.33085,-0.0977 1.42857,0 0.0842,0.0842 -0.0842,0.27297 0,0.35715 0.0859,0.0859 1.34263,-0.0859 1.42857,0 0.0842,0.0842 -0.0842,0.27296 0,0.35714 0.16836,0.16836 0.54593,-0.16836 0.71429,0 0.0842,0.0842 -0.0842,0.27296 0,0.35714 0.16835,0.16836 0.54592,-0.16836 0.71428,0 0.0842,0.0842 -0.0842,0.27297 0,0.35715 0.16836,0.16835 0.54593,-0.16836 0.71429,0 0.0842,0.0842 -0.0842,0.27296 0,0.35714 0.17857,0.17857 0.89285,-0.17857 1.07143,0 0.0842,0.0842 -0.0842,0.27296 0,0.35714 0.17857,0.17857 0.89285,-0.17857 1.07142,0 0.0842,0.0842 -0.0842,0.27297 0,0.35714 0.16836,0.16836 0.54593,-0.16835 0.71429,0 0.0842,0.0842 -0.0842,0.27297 0,0.35715 0.16836,0.16836 0.50133,-0.10648 0.71429,0 0.15058,0.0753 0.20655,0.28185 0.35714,0.35714 0.10648,0.0532 0.27296,-0.0842 0.35714,0 0.0842,0.0842 -0.0842,0.27296 0,0.35714 0.0842,0.0842 0.27297,-0.0842 0.35714,0 0.0842,0.0842 -0.0842,0.27297 0,0.35715 0.0842,0.0842 0.27297,-0.0842 0.35715,0 0.0842,0.0842 -0.0842,0.27296 0,0.35714 0.0842,0.0842 0.27296,-0.0842 0.35714,0 0.0842,0.0842 -0.0842,0.27296 0,0.35714 0.0842,0.0842 0.27296,-0.0842 0.35714,0 0.0842,0.0842 -0.0842,0.27297 0,0.35714 0.0842,0.0842 0.27297,-0.0842 0.35715,0 0.0842,0.0842 -0.0842,0.27297 0,0.35715 0.0842,0.0842 0.27296,-0.0842 0.35714,0 0.16836,0.16836 -0.16836,0.54592 0,0.71428 0.0842,0.0842 0.27296,-0.0842 0.35714,0 0.0842,0.0842 -0.0842,0.27297 0,0.35715 0.16836,0.16835 0.54593,-0.16836 0.71429,0 0.0842,0.0842 -0.0842,0.27296 0,0.35714 0.17857,0.17857 0.89285,-0.17857 1.07143,0 0.0842,0.0842 -0.0842,0.27296 0,0.35714 0.16835,0.16836 0.54592,-0.16836 0.71428,0 0.0842,0.0842 -0.0842,0.27297 0,0.35714 0.16836,0.16836 0.54593,-0.16835 0.71429,0 0.0842,0.0842 -0.0842,0.27297 0,0.35715 0.16836,0.16836 0.54592,-0.16836 0.71428,0 0.0842,0.0842 -0.0842,0.27296 0,0.35714 0.16836,0.16836 0.54593,-0.16836 0.71429,0 0.0842,0.0842 -0.0842,0.27296 0,0.35714 0.0162,0.0162 1.61732,0 1.78571,0 0.11905,0 0.27297,-0.0842 0.35715,0 0.0842,0.0842 -0.0842,0.27297 0,0.35715 0.0859,0.0859 1.34263,-0.0859 1.42857,0 0.47619,0.47619 -0.59524,0.35714 0.35714,0.35714 0.11905,0 0.2381,0 0.35714,0 0.11905,0 0.27297,-0.0842 0.35715,0 0.0842,0.0842 -0.0842,0.27296 0,0.35714 0.0842,0.0842 0.27296,-0.0842 0.35714,0 0.0842,0.0842 -0.0842,0.27297 0,0.35714 0.16836,0.16836 0.54593,-0.16835 0.71428,0 0.0842,0.0842 -0.0842,0.27297 0,0.35715 0.17858,0.17857 0.89286,-0.17857 1.07143,0 0.0842,0.0842 -0.0842,0.27296 0,0.35714 0.0162,0.0162 1.61733,0 1.78572,0 2.73809,0 5.47619,0 8.21428,0 0.13116,0 1.4142,-0.0144 1.42857,0 0.0842,0.0842 -0.0842,0.27296 0,0.35714 0.0859,0.0859 1.34264,-0.0859 1.42858,0 0.0842,0.0842 -0.0842,0.27297 0,0.35715 0.16836,0.16835 0.54592,-0.16836 0.71428,0 0.0842,0.0842 -0.0842,0.27296 0,0.35714 0.17857,0.17857 0.89286,-0.17857 1.07143,0 0.0842,0.0842 -0.0842,0.27296 0,0.35714 0.11059,0.11059 1.67513,-0.11059 1.78571,0 0.0842,0.0842 -0.0842,0.27297 0,0.35714 0.0859,0.0859 1.34264,-0.0859 1.42858,0 0.0842,0.0842 -0.0842,0.27297 0,0.35715 0.16836,0.16836 0.54592,-0.16836 0.71428,0 0.0842,0.0842 -0.0842,0.27296 0,0.35714 0.0842,0.0842 0.2381,0 0.35714,0 0.71429,0 1.42858,0 2.14286,0 0.59524,0 1.19048,0 1.78572,0 0.47583,0 0.23845,0 0.71428,0 0.11905,0 0.35714,-0.11905 0.35714,0 0,0.11905 -0.47619,0 -0.35714,0 0.35714,0 0.71429,0 1.07143,0 0.11905,0 0.27296,0.0842 0.35714,0 0.0842,-0.0842 -0.0842,-0.27296 0,-0.35714 0.17857,-0.17857 0.89286,0.17857 1.07143,0 0.0842,-0.0842 -0.0842,-0.27297 0,-0.35715 0.16836,-0.16835 0.54593,0.16836 0.71429,0 0.0842,-0.0842 -0.0842,-0.27296 0,-0.35714 0.0842,-0.0842 0.27296,0.0842 0.35714,0 0.0842,-0.0842 -0.0842,-0.27296 0,-0.35714 0.16836,-0.16836 0.54593,0.16836 0.71429,0 0.0842,-0.0842 -0.0842,-0.27296 0,-0.35714 0.16836,-0.16836 0.54592,0.16835 0.71428,0 0.0842,-0.0842 -0.0842,-0.27297 0,-0.35715 0.11059,-0.11058 1.67513,0.11059 1.78572,0 0.0842,-0.0842 -0.0842,-0.27296 0,-0.35714 0.0842,-0.0842 0.23809,0 0.35714,0 0.71428,0 1.42857,0 2.14286,0 0.11904,0 0.27296,0.0842 0.35714,0 0.0842,-0.0842 -0.0842,-0.27296 0,-0.35714 0.0859,-0.0859 1.34263,0.0859 1.42857,0 0.0842,-0.0842 -0.0842,-0.27297 0,-0.35715 0.17857,-0.17857 0.89286,0.17858 1.07143,0 0.0842,-0.0842 -0.0842,-0.27296 0,-0.35714 0.17857,-0.17857 0.89286,0.17857 1.07143,0 0.0842,-0.0842 -0.0842,-0.27296 0,-0.35714 0.17857,-0.17857 0.89285,0.17857 1.07143,0 0.0842,-0.0842 -0.0842,-0.27296 0,-0.35714 0.0859,-0.0859 1.34263,0.0859 1.42857,0 0.0842,-0.0842 -0.0842,-0.27297 0,-0.35715 0.16836,-0.16836 0.54592,0.16836 0.71428,0 0.0842,-0.0842 -0.0842,-0.27296 0,-0.35714 0.073,-0.073 0.92983,0.0708 1.07143,0 0.15059,-0.0753 0.20656,-0.28185 0.35714,-0.35714 0.14161,-0.0708 0.99842,0.073 1.07143,0 0.0842,-0.0842 -0.0842,-0.27297 0,-0.35715 0.16836,-0.16835 0.54593,0.16836 0.71429,0 0.0842,-0.0842 -0.0842,-0.27296 0,-0.35714 0.17857,-0.17857 0.89286,0.17857 1.07143,0 0.0842,-0.0842 -0.0842,-0.27296 0,-0.35714 0.17857,-0.17857 0.89285,0.17857 1.07143,0 0.0842,-0.0842 -0.0842,-0.27296 0,-0.35714 0.0162,-0.0162 1.61732,0 1.78571,0 2.44201,0 3.05352,0 5.71429,0 0.16839,0 1.76952,0.0162 1.78571,0 0.0842,-0.0842 -0.0842,-0.27297 0,-0.35715 0.17857,-0.17857 0.89286,0.17857 1.07143,0 0.0842,-0.0842 -0.0842,-0.27296 0,-0.35714 0.0859,-0.0859 1.34263,0.0859 1.42857,0 0.0842,-0.0842 -0.0842,-0.27296 0,-0.35714 0.17857,-0.17857 0.89286,0.17857 1.07143,0 0.0842,-0.0842 -0.0842,-0.27297 0,-0.35715 0.0842,-0.0842 0.25066,0.0532 0.35714,0 0.15059,-0.0753 0.20656,-0.28185 0.35714,-0.35714 0.10648,-0.0532 0.27297,0.0842 0.35715,0 0.0842,-0.0842 -0.0842,-0.27296 0,-0.35714 0.16836,-0.16836 0.54592,0.16836 0.71428,0 0.0842,-0.0842 -0.0842,-0.27296 0,-0.35714 0.0842,-0.0842 0.2381,0 0.35715,0 0.11904,0 0.23809,0 0.35714,0 0.59524,0 1.19048,0 1.78571,0 0.11905,0 0.35715,-0.11905 0.35715,0 0,0.11904 -0.47619,0 -0.35715,0 0.2381,0 0.50133,0.10648 0.71429,0 0.10648,-0.0532 -0.0842,-0.27297 0,-0.35715 0.17857,-0.17857 0.89286,0.17857 1.07143,0 0.0842,-0.0842 -0.0842,-0.27296 0,-0.35714 0.16836,-0.16836 0.54592,0.16836 0.71428,0 0.0842,-0.0842 -0.0842,-0.27296 0,-0.35714 0.16836,-0.16836 0.54593,0.16836 0.71429,0 0.0842,-0.0842 -0.0842,-0.27297 0,-0.35715 0.0842,-0.0842 0.23809,0 0.35714,0 0.16839,0 1.76953,0.0162 1.78572,0 0.0842,-0.0842 -0.0842,-0.27296 0,-0.35714 0.0842,-0.0842 0.23809,0 0.35714,0 0.95238,0 1.90476,0 2.85714,0 0.11905,0 0.2381,0 0.35714,0 0.11905,0 0.27297,0.0842 0.35715,0 0.0842,-0.0842 -0.0842,-0.27296 0,-0.35714 0.17857,-0.17857 0.89285,0.17857 1.07143,0 0.0842,-0.0842 -0.0842,-0.27296 0,-0.35714 0.17857,-0.17858 0.89285,0.17857 1.07142,0 0.0842,-0.0842 -0.0842,-0.27297 0,-0.35715 0.16836,-0.16836 0.50133,0.10648 0.71429,0 0.15059,-0.0753 0.20656,-0.28185 0.35714,-0.35714 0.21296,-0.10648 0.54593,0.16836 0.71429,0 0.0842,-0.0842 -0.0842,-0.27296 0,-0.35714 0.073,-0.073 0.92982,0.0708 1.07143,0 0.15058,-0.0753 0.20656,-0.28185 0.35714,-0.35715 0.1416,-0.0708 0.99842,0.073 1.07143,0 0.0842,-0.0842 -0.0842,-0.27296 0,-0.35714 0.0859,-0.0859 1.34263,0.0859 1.42857,0 0.0842,-0.0842 -0.0842,-0.27296 0,-0.35714 0.0162,-0.0162 1.61732,0 1.78571,0 0.11905,0 0.27297,0.0842 0.35715,0 0.0842,-0.0842 -0.0842,-0.27296 0,-0.35714 0.11059,-0.11059 1.67512,0.11058 1.78571,0 0.0842,-0.0842 -0.0842,-0.27297 0,-0.35715 0.16836,-0.16836 0.54593,0.16836 0.71429,0 0.0842,-0.0842 -0.0842,-0.27296 0,-0.35714 0.16836,-0.16836 0.54592,0.16836 0.71428,0 0.0842,-0.0842 -0.0842,-0.27296 0,-0.35714 0.16836,-0.16836 0.54593,0.16836 0.71429,0 0.0842,-0.0842 -0.0842,-0.27297 0,-0.35715 0.17857,-0.17857 0.89286,0.17858 1.07143,0 0.0842,-0.0842 -0.0842,-0.27296 0,-0.35714 0.16836,-0.16836 0.54592,0.16836 0.71428,0 0.0842,-0.0842 -0.0842,-0.27296 0,-0.35714 0.0842,-0.0842 0.2381,0 0.35715,0 0.2484,0 1.65656,0.0646 1.78571,0 0.15059,-0.0753 0.20656,-0.28185 0.35714,-0.35714 0.10648,-0.0532 0.2381,0 0.35715,0 0.11904,0 0.23809,0 0.35714,0 0.11905,0 0.35714,-0.11905 0.35714,0 0,0.11904 -0.47619,0 -0.35714,0 0.23809,0 0.47619,0 0.71428,0 0.11905,0 0.25067,0.0532 0.35715,0 0.15058,-0.0753 0.20656,-0.28185 0.35714,-0.35715 0.12916,-0.0646 1.53731,0 1.78571,0 1.30953,0 2.61905,0 3.92858,0 1.07142,0 2.14285,0 3.21428,0 0.11905,0 0.2381,0 0.35714,0 0.11905,0 0.27297,0.0842 0.35715,0 0.0842,-0.0842 -0.0842,-0.27296 0,-0.35714 0.0859,-0.0859 1.34263,0.0859 1.42857,0 0.0842,-0.0842 -0.0842,-0.27296 0,-0.35714 0.073,-0.073 0.92982,0.0708 1.07143,0 0.15058,-0.0753 0.20656,-0.28185 0.35714,-0.35715 0.1416,-0.0708 0.99842,0.073 1.07143,0 0.0842,-0.0842 -0.0842,-0.27296 0,-0.35714 0.17857,-0.17857 0.89286,0.17857 1.07143,0 0.0842,-0.0842 -0.0842,-0.27296 0,-0.35714 0.17857,-0.17857 0.89285,0.17857 1.07143,0 0.0842,-0.0842 -0.0842,-0.27296 0,-0.35714 0.17857,-0.17858 0.89285,0.17857 1.07142,0 0.0842,-0.0842 -0.0842,-0.27297 0,-0.35715 0.17858,-0.17857 0.89286,0.17857 1.07143,0 0.0842,-0.0842 -0.0842,-0.27296 0,-0.35714 0.0842,-0.0842 0.2381,0 0.35715,0 0.11904,0 0.23809,0 0.35714,0 1.07143,0 2.14286,0 3.21428,0 0.11905,0 0.2381,0 0.35715,0 0.11905,0 0.27296,0.0842 0.35714,0 0.0842,-0.0842 -0.0842,-0.27296 0,-0.35714 0.0842,-0.0842 0.2381,0 0.35714,0 0.71429,0 1.42857,0 2.14286,0 0.11905,0 0.2381,0 0.35714,0 0.11905,0 0.27297,0.0842 0.35715,0 0.0842,-0.0842 -0.0842,-0.27297 0,-0.35715 0.0842,-0.0842 0.23809,0 0.35714,0 0.59524,0 1.19048,0 1.78571,0 0.11905,0 0.27297,0.0842 0.35715,0 0.0842,-0.0842 -0.0842,-0.27296 0,-0.35714 0.0859,-0.0859 1.34263,0.0859 1.42857,0 0.0842,-0.0842 -0.0842,-0.27296 0,-0.35714 0.17857,-0.17857 0.89285,0.17857 1.07143,0 0.0842,-0.0842 -0.0842,-0.27296 0,-0.35714 0.0842,-0.0842 0.23809,0 0.35714,0 0.16839,0 1.76953,0.0162 1.78571,0 0.0842,-0.0842 -0.0842,-0.27297 0,-0.35715 0.073,-0.073 0.92983,0.0708 1.07143,0 0.15059,-0.0753 0.20656,-0.28185 0.35714,-0.35714 0.1087,-0.0543 0.91059,0 1.07143,0 0.83334,0 1.66667,0 2.5,0 0.59524,0 1.19048,0 1.78572,0 0.23809,0 0.95238,0 0.71428,0 -0.23809,0 -0.95238,0 -0.71428,0 0.47619,0 0.95238,0 1.42857,0 0.16839,0 1.76953,0.0162 1.78571,0 0.0842,-0.0842 -0.0842,-0.27296 0,-0.35714 0.0842,-0.0842 0.2381,0 0.35715,0 0.11904,0 0.23809,0 0.35714,0 0.71428,0 1.42857,0 2.14286,0 0.11904,0 0.27296,0.0842 0.35714,0 0.0842,-0.0842 -0.0842,-0.27297 0,-0.35715 0.073,-0.073 0.92982,0.0708 1.07143,0 0.15058,-0.0753 0.20656,-0.28185 0.35714,-0.35714 0.0923,-0.0462 1.88971,0 2.14286,0 0.11905,0 0.27296,0.0842 0.35714,0 0.0842,-0.0842 -0.0842,-0.27296 0,-0.35714 0.0859,-0.0859 1.34263,0.0859 1.42857,0 0.0842,-0.0842 -0.0842,-0.27296 0,-0.35714 0.0859,-0.0859 1.34263,0.0859 1.42857,0 0.0842,-0.0842 -0.0842,-0.27297 0,-0.35715 0.16836,-0.16836 0.50133,0.10648 0.71429,0 0.15058,-0.0753 0.20656,-0.28185 0.35714,-0.35714 0.14161,-0.0708 0.99842,0.073 1.07143,0 0.0842,-0.0842 -0.0842,-0.27296 0,-0.35714 0.0859,-0.0859 1.34263,0.0859 1.42857,0 0.0842,-0.0842 -0.0842,-0.27297 0,-0.35715 0.17857,-0.17857 0.89286,0.17858 1.07143,0 0.0842,-0.0842 -0.0842,-0.27296 0,-0.35714 0.17857,-0.17857 0.89286,0.17857 1.07143,0 0.0842,-0.0842 -0.0842,-0.27296 0,-0.35714 0.16836,-0.16836 0.54593,0.16836 0.71428,0 0.0842,-0.0842 -0.0842,-0.27296 0,-0.35714 0.17858,-0.17858 0.89286,0.17857 1.07143,0 0.0842,-0.0842 -0.0842,-0.27297 0,-0.35715 0.0115,-0.0115 0.98482,0 1.07143,0 1.78572,0 3.57143,0 5.35714,0 0.11905,0 0.2381,0 0.35715,0 0.11905,0 0.27296,0.0842 0.35714,0 0.0842,-0.0842 -0.0842,-0.27296 0,-0.35714 0.17857,-0.17857 0.89286,0.17857 1.07143,0 0.0842,-0.0842 -0.0842,-0.27296 0,-0.35714 0.11059,-0.11059 1.67513,0.11059 1.78571,0 0.0842,-0.0842 -0.0842,-0.27297 0,-0.35715 0.17857,-0.17857 0.89286,0.17858 1.07143,0 0.0842,-0.0842 -0.0842,-0.27296 0,-0.35714 0.0859,-0.0859 1.34263,0.0859 1.42857,0 0.0842,-0.0842 -0.0842,-0.27296 0,-0.35714 0.0859,-0.0859 1.34264,0.0859 1.42857,0 0.0842,-0.0842 -0.0842,-0.27296 0,-0.35714 0.0162,-0.0162 1.61733,0 1.78572,0 0.13116,0 1.4142,0.0144 1.42857,0 0.0842,-0.0842 -0.0842,-0.27297 0,-0.35715 0.0115,-0.0115 0.98481,0 1.07143,0 0.83333,0 1.66667,0 2.5,0 0.11905,0 0.27296,-0.0842 0.35714,0 0.0842,0.0842 -0.0842,0.27297 0,0.35715 0.0144,0.0144 1.29742,0 1.42857,0 2.61905,0 5.2381,0 7.85715,0 1.30952,0 2.61904,0 3.92857,0 0.47619,0 0.95238,0 1.42857,0 0.11905,0 0.47619,0 0.35714,0 -0.23809,0 -0.95238,0 -0.71428,0 0.35714,0 0.71428,0 1.07143,0 0.11904,0 0.27296,-0.0842 0.35714,0 0.0842,0.0842 -0.0842,0.27296 0,0.35714 0.0842,0.0842 0.23809,0 0.35714,0 0.59524,0 1.19048,0 1.78572,0 0.11904,0 0.27296,-0.0842 0.35714,0 0.0842,0.0842 -0.0842,0.27296 0,0.35714 0.0842,0.0842 0.23809,0 0.35714,0 0.71429,0 1.42857,0 2.14286,0 0.11905,0 0.23809,0 0.35714,0 0.11905,0 0.27296,-0.0842 0.35714,0 0.0842,0.0842 -0.0842,0.27297 0,0.35714 0.0842,0.0842 0.2381,0 0.35715,0 0.11904,0 0.23809,0 0.35714,0 1.42857,0 2.85714,0 4.28571,0 1.78572,0 3.57143,0 5.35715,0 0.11904,0 0.23809,0 0.35714,0 0.11905,0 0.27296,0.0842 0.35714,0 0.0842,-0.0842 -0.0842,-0.27296 0,-0.35714 0.0859,-0.0859 1.34263,0.0859 1.42857,0 0.0842,-0.0842 -0.0842,-0.27296 0,-0.35714 0.0859,-0.0859 1.34264,0.0859 1.42858,0 0.0842,-0.0842 -0.0842,-0.27296 0,-0.35714 0.0859,-0.0859 1.34263,0.0859 1.42857,0 0.0842,-0.0842 -0.0842,-0.27297 0,-0.35715 0.0859,-0.0859 1.34263,0.0859 1.42857,0 0.0842,-0.0842 -0.0842,-0.27296 0,-0.35714 0.16836,-0.16836 0.54592,0.16836 0.71428,0 0.0842,-0.0842 -0.0842,-0.27296 0,-0.35714 0.11059,-0.11059 1.67513,0.11059 1.78572,0 0.47619,-0.47619 -0.59524,-0.35715 0.35714,-0.35715 0.71429,0 1.42857,0 2.14286,0 0.11905,0 0.27296,0.0842 0.35714,0 0.0842,-0.0842 -0.0842,-0.27296 0,-0.35714 0.0162,-0.0162 1.61732,0 1.78572,0 0.11904,0 0.27296,-0.0842 0.35714,0 0.0842,0.0842 -0.0842,0.27297 0,0.35714 0.0842,0.0842 0.23809,0 0.35714,0 0.11905,0 0.2381,0 0.35714,0 0.83334,0 1.66667,0 2.5,0 0.11905,0 0.27297,-0.0842 0.35715,0 0.0842,0.0842 -0.0842,0.27297 0,0.35715 0.0115,0.0115 0.98481,0 1.07143,0 1.19047,0 2.38095,0 3.57142,0 0.11905,0 0.2381,0 0.35715,0 0.11904,0 0.27296,-0.0842 0.35714,0 0.0842,0.0842 -0.0842,0.27296 0,0.35714 0.0144,0.0144 1.29741,0 1.42857,0 1.07143,0 2.14286,0 3.21429,0 0.11904,0 0.23809,0 0.35714,0 0.11905,0 0.27296,0.0842 0.35714,0 0.0842,-0.0842 -0.0842,-0.27296 0,-0.35714 0.16836,-0.16836 0.50133,0.10648 0.71429,0 0.15058,-0.0753 0.20656,-0.28185 0.35714,-0.35715 0.10648,-0.0532 0.27296,0.0842 0.35714,0 0.0842,-0.0842 -0.0842,-0.27296 0,-0.35714 0.0842,-0.0842 0.2381,0 0.35715,0 0.11904,0 0.23809,0 0.35714,0 1.71792,0.74584 2.97148,0.71429 4.64286,0.71429 0.11904,0 0.23809,0 0.35714,0 0.11905,0 0.27296,0.0842 0.35714,0 0.0842,-0.0842 -0.0842,-0.27297 0,-0.35715 0.0842,-0.0842 0.2381,0 0.35715,0 0.11904,0 0.23809,0 0.35714,0 0.95238,0 1.90476,0 2.85714,0 0.13116,0 1.4142,-0.0144 1.42857,0 0.0842,0.0842 -0.0842,0.27297 0,0.35715 0.0842,0.0842 0.2381,0 0.35715,0 0.11904,0 0.23809,0 0.35714,0 1.42857,0 2.85714,0 4.28571,0 0.0866,0 1.05995,0.0115 1.07143,0 0.0842,-0.0842 -0.0842,-0.27297 0,-0.35715 0.0977,-0.0977 1.23483,0.0969 1.42857,0 0.15059,-0.0753 0.20656,-0.28185 0.35715,-0.35714 0.21295,-0.10648 0.54592,0.16836 0.71428,0 0.0842,-0.0842 -0.0842,-0.27296 0,-0.35714 0.0859,-0.0859 1.34263,0.0859 1.42857,0 0.0842,-0.0842 -0.0842,-0.27296 0,-0.35714 0.11059,-0.11059 1.67513,0.11058 1.78572,0 0.0842,-0.0842 -0.0842,-0.27297 0,-0.35715 0.0842,-0.0842 0.23809,0 0.35714,0 0.59524,0 1.19048,0 1.78571,0 0.11905,0 0.27297,0.0842 0.35715,0 0.0842,-0.0842 -0.0842,-0.27296 0,-0.35714 0.0115,-0.0115 0.98481,0 1.07143,0 2.2619,0 4.5238,0 6.78571,0"
       id="path4293"
       inkscape:connector-curvature="0" />
  </g>
</svg>
